<svg version="1.1" xmlns="http://www.w3.org/2000/svg" xmlns:xlink="http://www.w3.org/1999/xlink" width="505.17832" height="428.99929" viewBox="0,0,505.17832,428.99929"><g transform="translate(11.05344,20.06893)"><g data-paper-data="{&quot;isPaintingLayer&quot;:true}" fill="#8ba936" fill-rule="nonzero" stroke="none" stroke-width="0.5" stroke-linecap="butt" stroke-linejoin="miter" stroke-miterlimit="10" stroke-dasharray="" stroke-dashoffset="0" style="mix-blend-mode: normal"><path d="M323,373.43036c0,2.5 -2.5,2.5 -2.5,2.5c-6.6777,0 -13.45618,0.32948 -20.12453,-0.0031c-3.32954,-0.16606 -6.62188,-0.82868 -9.9514,-0.99509c-2.04221,-0.10207 -4.28609,-0.08518 -6.57627,-0.12936c0.16084,2.48459 0.33849,4.96107 0.52832,7.42109c0.54023,7.02301 0.91462,14.04948 2.60515,20.90101l-0.10918,0.30546h0.12791v3c0,1.38071 -1.11929,2.5 -2.5,2.5c-1.11165,0 -2.05384,-0.72556 -2.37883,-1.72894l-1.63257,-4.66447c-1.60426,-2.92189 -2.20234,-6.29239 -3.3035,-9.43858c-2.20234,-6.29239 -4.40467,-12.58478 -6.60701,-18.87717c-0.31574,-0.90212 -0.63149,-1.80424 -0.94723,-2.70636c-1.82398,-1.30655 -4.31722,-3.24875 -5.47931,-3.97932c-0.41004,-0.25777 -0.82206,-0.51203 -1.23575,-0.76333c-0.69301,0.00591 -1.39534,0.04826 -2.11034,0.13944c-3.35252,0.42754 -6.61352,1.52732 -9.905,1.98645c-6.81346,0.9504 -14.50193,0.03228 -21.40046,0.03228c-4.24898,0 -8.76748,0.39898 -13,0c-1.60079,-0.1509 -3.63082,0.40472 -4.76777,-0.73223c-1.5923,-1.5923 -0.35956,-5.33308 -0.69995,-7.36731c-0.15195,-0.90805 -0.60266,-1.73992 -0.90399,-2.60989c-0.76525,-2.36703 -0.73044,-4.92141 -1.09472,-7.38225c-0.39438,-2.66415 -1.93839,-5.0256 -2.88103,-7.54843c-1.72694,-4.62186 -3.98842,-9.51436 -5.08961,-14.30253c-2.43392,-10.58311 -6.57277,-21.44238 -8.04419,-32.2519c-0.88586,-6.50782 -0.20569,-13.96411 0.15533,-20.51635c0.73834,-13.32667 0.16827,-26.65944 0.83403,-39.96368c0.16364,-3.27021 1.02166,-6.49847 0.99247,-9.77264c-0.04087,-4.58377 -1.5913,-9.30604 -1.99427,-13.87556c-0.35251,-3.99734 -0.00629,-8.1633 -0.00629,-12.17722c0,-4.65929 -0.83744,-10.42589 0,-15v-4c0,-1.24557 0.9109,-2.27838 2.10289,-2.46863c0.23954,-3.25139 1.07217,-6.18489 2.28565,-9.05923l-0.31389,-0.07847l0.98732,-3.94927c0.25265,-1.1133 1.24829,-1.9444 2.43804,-1.9444c1.11165,0 2.05384,0.72556 2.37883,1.72894l0.35421,1.01203c2.96835,-0.26977 7.10999,-0.64503 7.19305,-0.64612c4.70601,-0.06182 9.44839,0.77071 14.15438,0.90644c8.39589,0.24215 16.6806,0.11663 25.07223,0.71753c5.7775,0.41371 13.61664,-1.18356 18.94567,1.53539c5.27623,2.69201 6.34726,7.45686 8.07451,12.68673c1.37342,4.17652 3.55484,8.74753 4.28295,13.09125c1.63791,9.77132 1.21932,20.37218 1.8015,30.26923c0.68239,11.60064 1.34912,23.14955 1.77579,34.71596c2.09419,-1.99558 4.2093,-3.99725 6.07822,-6.1554c2.18212,-2.51981 3.86386,-5.44109 6,-8c1.19362,-1.42985 2.79531,-2.48969 3.95528,-3.94697c1.41679,-1.77993 2.55553,-3.83791 4.29535,-5.30366c8.32389,-7.01265 16.68377,-13.69266 24.40577,-21.41467c2.09676,-2.09676 4.40363,-4.00114 6.29888,-6.28167c2.34512,-2.82186 4.32345,-6.32117 7.47158,-8.44313c1.1986,-0.8079 2.77444,-0.99699 3.89008,-1.91606c2.51467,-2.0716 4.07294,-5.10998 6.41726,-7.37255c5.90395,-5.69807 12.22131,-11.41314 18.56716,-16.61475c8.78855,-7.20387 18.16521,-13.64849 26.90143,-20.91459c4.95879,-4.95587 10.81299,-8.6087 16.10087,-13.0873c4.98811,-4.22471 9.71859,-8.46405 15.19,-12.14127c3.55912,-2.39201 7.40239,-4.84701 11.07056,-7.04574c2.5103,-1.5047 5.43166,-2.27799 7.86263,-3.90774c0.78311,-0.52501 1.21433,-1.47884 2,-2c3.39665,-2.25308 7.7773,-3.06035 11.14745,-5.09852c0.7572,-0.45794 1.11331,-1.41508 1.85255,-1.90148c2.91537,-1.91821 4.61715,-2.31919 7.67121,-3.3436c3.50199,-1.137 8.32996,-6.1617 11.81867,-1.09007c1.22398,1.77933 0.37572,4.30426 0.47189,6.46178c0.12797,2.87092 -0.8716,5.69875 -1.68458,8.45512c-1.33431,4.52388 -2.727,9.29255 -3.74834,13.89385c-2.71221,12.21893 -3.33318,25.89061 -1.70743,38.30041c0.84973,6.48622 2.6671,13.00668 3.97857,19.41799c2.56598,12.6937 0.35565,25.90657 1.15695,38.77729c0.57005,9.15627 1.53485,18.64537 2.77944,27.73476c1.4319,10.4573 4.466,20.62035 5.86428,31.04632c1.42874,10.71554 4.10518,21.67168 3.35628,32.52961c-0.63367,9.18732 -3.45291,17.46515 -5.94893,26.176c-0.4606,1.60745 -0.41134,3.33459 -0.88937,4.93694c-1.33487,4.47445 -3.97032,8.36253 -6.59937,12.15182c-3.58018,5.16017 -6.29378,9.84644 -12.41583,11.99614c-11.97835,2.40328 -24.56321,2.83729 -36.7662,2.08065c-6.66623,-0.41334 -13.2882,-1.52632 -19.95092,-1.99308c-14.42331,-1.01045 -28.72252,-1.07709 -43.10888,-2.67558c-10.83969,-1.20441 -22.65863,-2.43459 -33.56932,-1.3404c-3.63039,0.36408 -7.6616,0.90883 -11.75803,1.22389c0.00769,0.0922 0.01169,0.18824 0.01169,0.28828z"/><path d="M335.13404,-4.66347c5.90292,-3.86597 12.39965,-5.47141 19.0842,-7.43166c9.73076,-2.85355 19.01344,-4.96014 29.10263,-6.09652c4.92012,-0.61506 10.28621,-1.8714 15.23942,-1.87726c6.01473,-0.00711 12.61384,2.32979 18.51953,3.39498c7.83466,1.41311 15.75211,2.45278 23.55639,4.0325c10.85234,2.1967 21.24311,5.04014 32.12258,6.43016l3.08049,-0.77012c0.21047,-0.05753 0.43201,-0.08824 0.66073,-0.08824c1.38071,0 2.5,1.11929 2.5,2.5c0,0.85898 -0.43322,1.61678 -1.09308,2.06683c-23.19741,16.26831 -48.90087,34.29411 -72.09827,50.56243c-19.10375,13.39743 -38.2075,26.79487 -57.31125,40.1923c-4.09366,2.87088 -8.18732,5.74176 -12.28098,8.61264c-0.91559,0.64211 -1.784,1.37639 -2.65271,2.11008c0.1179,0.18788 0.22225,0.40792 0.308,0.66516c0.79057,2.37171 -1.58114,3.16228 -1.58114,3.16228c-1.6157,0.53857 -3.2314,1.07713 -4.8471,1.6157c-2.17701,5.57624 -4.47801,11.8003 -9.62915,15.13922c-4.66042,3.02083 -13.08784,1.37337 -18.31433,1.37337c-7.96957,0 -16.71244,-1.02802 -24.60723,-0.03105c-1.05403,0.13311 -1.97654,0.84202 -3.02783,0.99522c-4.96743,0.72388 -10.34266,1.03164 -15.36494,1.03582c-4.14822,0.00346 -12.55602,1.13979 -15.93336,-1.91503c-1.0449,-0.94512 -0.32338,-6.79883 -0.53307,-8.17665c-0.42528,-2.79436 -2.32121,-5.1889 -2.98846,-7.93555c-0.24951,-1.02709 0.1222,-2.12437 -0.0268,-3.17078c-0.19456,-1.36628 -0.82513,-2.64905 -0.99693,-4.01838c-0.63059,-5.0261 -0.29394,-10.04176 -1.01418,-15.09402c-0.21003,-18.7515 -0.68165,-37.68189 -5.06529,-56.0304c-2.12141,-8.87957 -5.21315,-17.6964 -7.83648,-26.44082c0,0 -0.2046,-0.682 -0.03145,-1.42726c-0.2658,0.03766 -0.53186,0.07163 -0.79828,0.10071c-2.7503,1.24814 -5.49786,2.50526 -8.28973,3.6573c-1.21176,0.50002 -2.59065,0.74927 -3.59734,1.58888c-1.3762,1.14778 -0.3974,3.57 -0.38863,5.362c0.01668,3.41078 1.23696,10.17742 -1.2344,12.95624c-1.15995,1.30426 -3.15392,1.59123 -4.44905,2.76136c-1.93676,1.74984 -2.25193,4.75408 -3.84603,6.82093c-2.65924,3.44785 -6.16651,4.77764 -9.40574,7.41121c-4.89345,3.97848 -9.42176,8.51842 -14.2821,12.56897c-5.84666,4.87221 -11.53496,10.09082 -17.56647,14.72853c-10.03735,7.71786 -20.90139,14.57536 -31.29609,21.81026c-4.83012,3.36185 -10.261,6.18287 -14.83544,9.87611c-4.71813,3.80924 -8.97395,7.66358 -14.07515,11.06505c-3.7584,3.46216 -7.51927,6.13843 -12.2547,8.16362c-1.77925,0.76093 -3.68187,2.86239 -5.43446,2.04191c-5.15269,-2.41224 -0.08584,-4.74275 -1.13005,-7.24748c-0.26881,-0.64478 -1.15557,-0.81301 -1.60429,-1.3484c-0.92319,-1.10151 -1.57377,-2.41166 -2.48118,-3.52621c-1.33209,-1.63619 -5.54747,-5.78951 -6.79653,-7.37652c-3.06129,-3.88957 -5.53151,-8.26022 -8.71185,-12.08492c-4.84296,-5.82417 -10.37879,-11.16889 -15.08322,-17.10317c-2.42179,-3.0549 -4.00082,-6.99418 -6.17551,-10.26267c-3.67986,-7.35971 -8.46315,-13.78926 -12.69259,-20.81078c-4.24383,-7.0454 -8.24154,-14.39553 -13.05027,-21.07862c-2.5117,-3.49072 -5.67538,-6.29116 -8.29785,-9.67431c-2.57567,-3.32278 -4.76639,-6.57518 -7.4494,-9.6526c-0.98802,0.69241 -1.97244,1.38267 -2.96087,2.04162l-0.61898,0.68764c0,0 -1.76777,1.76777 -3.53553,0c-1.76777,-1.76777 0,-3.53553 0,-3.53553l1.38102,-1.31236c0.94583,-0.63056 1.88835,-1.28773 2.83364,-1.94824c-0.00941,-0.53298 0.18213,-1.13619 0.78535,-1.7394c0.96766,-0.96766 1.93533,-0.87594 2.61304,-0.59469c0.95472,-0.63163 1.91937,-1.23919 2.89991,-1.79982c2.51732,-1.4393 5.38443,-2.2512 7.79304,-3.86583c1.92963,-1.29354 3.76168,-3.11042 6.06132,-3.43961c1.85293,-0.26525 3.74361,-0.01535 5.61542,-0.02302c5.67607,0.96719 11.50411,2.51926 17.23603,2.99808c6.46936,0.54043 13.28222,-0.08289 19.77783,-0.1186c8.2488,-0.04535 16.63511,0.34473 24.86846,-0.13329c13.28786,-0.77148 26.50319,-2.85597 39.8158,-3.65473c11.60779,-0.69647 23.52892,-2.2686 35.15232,-2.09986c4.57329,0.06639 9.34462,1.04421 13.88705,1.55633c8.28087,0.9336 16.56174,1.8672 24.84262,2.8008c4.96852,0.56016 9.93705,1.12032 14.90557,1.68048c0.34453,0.03884 10.13141,1.13517 10.26672,1.18008c2.23988,0.74339 4.20038,2.15306 6.30057,3.22958c-0.1277,0.49538 -0.21157,1.01133 -0.28519,1.53208c5.88458,-0.75276 12.04407,0.4994 17.96457,-0.16924c6.69878,-0.75654 13.16033,-2.43091 19.93597,-2.80825c3.89619,-0.21698 7.53889,0.94358 11.39331,1.26959c14.29095,1.22786 28.6188,1.99956 42.92693,3.02157c4.64758,0.33197 10.22611,0.18377 14.44497,2.4528c0.6891,-0.48056 1.35735,-0.9291 1.98554,-1.34051z"/><path d="M14.61803,366.66643l-3.11803,1.26393c-1.89819,0 -3.81544,-0.28722 -5.69454,-0.01873c-2.57369,0.36773 -4.66787,1.16843 -6.97542,1.6437c-0.48152,0.33431 -1.17453,0.59683 -2.01902,0.30747c-0.40577,0.03781 -0.82246,0.06121 -1.25309,0.06691c-0.01925,0.00044 -0.03856,0.00066 -0.05792,0.00066c-0.31597,0 -0.61826,-0.05862 -0.89657,-0.16558c-0.71716,-0.24366 -1.60343,-0.84591 -1.60343,-2.33442c0,-1.48852 0.88627,-2.09076 1.60343,-2.33442c0.27831,-0.10696 0.58059,-0.16558 0.89657,-0.16558c0.01756,0 0.03508,0.00018 0.05255,0.00054c0.2098,0.00172 0.41605,-0.00192 0.61917,-0.01038c8.06425,-11.99675 16.73609,-23.33694 25.31114,-34.96739c8.93944,-12.12467 17.73742,-24.26823 27.37937,-35.85731c6.32604,-7.59426 13.57959,-14.36986 19.66961,-22.20701c3.51595,-4.52461 6.10768,-9.73653 9.55061,-14.25913c1.61692,-2.12397 3.81807,-3.7468 5.50812,-5.81305c7.39452,-9.04055 12.74909,-19.75258 21.02079,-28.02429c1.57047,-1.61857 2.49024,-4.46516 4.71141,-4.85571c1.78573,-0.31398 3.30048,1.78542 4.35272,3.26196c0.91882,1.28932 0.81543,3.0597 1.23942,4.58509c1.11849,4.02403 3.11817,7.98762 4.00981,12.03783c2.02346,9.19134 3.3497,18.74292 4.84858,28.04574c0.71765,4.45409 0.8441,9.54895 2.1298,13.87387c2.74871,9.24622 8.2269,18.11055 12.67126,26.61073c3.00193,5.74142 5.62107,11.41187 7.96986,17.45797c2.19834,5.65879 4.11829,11.76572 8.00712,16.57816c0.72105,0.8923 1.79311,1.43384 2.64315,2.20426c2.72942,2.47374 5.01475,5.60917 7.89046,7.90475c0.98508,0.78636 2.2441,1.22364 3.13307,2.11722c2.38268,2.39506 7.16746,8.74305 7.71508,12.24175c0.2793,1.78443 0.72427,4.25913 -0.69719,5.37342c-1.79486,1.40701 -4.54232,0.45486 -6.82198,0.52091c-3.33193,0.09654 -6.66242,-0.23794 -9.99363,-0.35692c-34.9777,-1.2492 -69.9554,-2.49841 -104.9331,-3.74761c-12.77069,-0.4561 -25.54138,-0.91219 -38.31207,-1.36829c-0.29784,0.25929 -0.55713,0.38893 -0.55713,0.38893z"/></g></g></svg>