<svg version="1.1" xmlns="http://www.w3.org/2000/svg" xmlns:xlink="http://www.w3.org/1999/xlink" width="524.23349" height="412.49465" viewBox="0,0,524.23349,412.49465"><g transform="translate(27.84305,27.77626)"><g data-paper-data="{&quot;isPaintingLayer&quot;:true}" fill-rule="nonzero" stroke="none" stroke-width="0.5" stroke-linecap="butt" stroke-linejoin="miter" stroke-miterlimit="10" stroke-dasharray="" stroke-dashoffset="0" style="mix-blend-mode: normal"><path d="M329.53013,106.23539c0.01055,5.92971 -2.00698,12.37818 -1.01502,18.30628c0.67766,4.04976 2.34575,7.94345 3,12c0.88581,5.49229 0.03228,11.85235 0.03228,17.40046c0,12.43507 0.02517,24.87047 -0.01873,37.30546c-0.95183,3.8073 -0.87553,6.82927 -0.98127,10.69454c-0.03611,1.31993 0.33365,2.74468 -0.1903,3.95671c-2.82489,6.5346 -11.97647,5.53036 -17.41254,7.20691c-2.55923,0.7893 -4.70354,2.7893 -7.33768,3.27298c-2.92322,0.53676 -5.91102,-0.62711 -8.86493,-0.95532c-1.65647,-0.18405 -3.34426,0.19054 -5,0c-7.55976,-0.86995 -15.68236,-4.34928 -20.2422,-10.5331c-0.23034,-0.31238 -4.46587,-8.436 -4.78046,-9.03719c-2.59272,-9.60737 -6.11358,-19.71733 -7.15774,-29.64543c-1.00915,-9.59513 0.49194,-19.52524 -0.01198,-29.16165c-0.43492,-8.31688 -1.66756,-16.60224 -1.99404,-24.9262c-0.17954,-4.57771 -0.05327,-8.35878 -0.70575,-12.90991c-0.30728,-9.28519 0.93818,-18.2672 1.70614,-27.47399c0.36183,-4.33787 1.72148,-8.62121 1.99805,-12.97487c0.00691,-0.10873 -0.03238,-6.85916 0.02572,-7.21938c0.16784,-1.04064 0.82049,-1.9613 1,-3c0.36969,-2.13913 0.26566,-3.96723 0.42362,-5.893c-0.16861,-0.05688 -0.32618,-0.1049 -0.47085,-0.14224c-6.1041,-1.57582 -13.21205,-1.644 -19.48481,-2.25992c-7.09238,-0.6964 -14.6538,-0.68754 -21.6507,-1.83665c-1.01132,-0.16609 -1.89046,-0.90212 -2.91178,-0.98729c-7.06026,-0.58878 -14.58467,1.60515 -21.61533,2.01853c-11.33511,-0.01014 -22.65211,-2.42222 -34.01918,-2.85772c-18.01087,-0.69004 -36.26579,1.12564 -54.23047,-0.14752c-4.9733,-0.35246 -10.03606,-1.30155 -14.9958,-1.88379c-9.16948,-1.07643 -18.40632,-2.69159 -27.67163,-2.11475c-6.05863,0.3772 -12.81098,0.96806 -18.75489,1.97255c-1.03936,0.17565 -1.95936,0.83216 -3,1c-11.35322,1.83108 -22.77503,-2.81644 -34.095,0.01355c-2.32502,-0.00807 -4.60963,0.61625 -6.905,0.98645c-3.88896,0.62722 -8.45526,0.05218 -12.40046,0.03228c-2.70257,-0.01363 -5.10809,0.30959 -7.51748,-1.51323c-1.15625,-0.87476 -1.66678,-2.37306 -2.52336,-3.54284c-0.79498,-1.08564 -4.82461,-6.18919 -5.35188,-7.71947c-0.36104,-1.04783 0.11074,-2.23139 -0.07499,-3.324c-0.73679,-4.33442 -1.43475,-8.6898 -2.01355,-13.095c-0.50243,-3.82397 0.28177,-3.76926 1,-7.61092c0.26429,-1.41366 -0.54052,-3.33952 0.54791,-4.27951c2.71278,-2.34281 8.55679,-1.89068 11.83255,-1.90302c2.77449,-0.00411 5.56558,-0.30503 8.32348,-0.00207c4.79303,0.52652 9.42872,2.38461 14.13018,3.01509c6.21119,0.83294 13.28556,-0.37256 19.53524,-0.62255c6.57925,-0.26317 13.3482,0.12963 19.89235,-0.39446c13.06202,-1.04608 26.3411,-4.23804 39.27144,-6.38918c13.17318,-2.19155 26.01729,-5.68295 39.13469,-8.03641c21.32782,-3.82652 43.23211,-5.66814 64.72359,-8.45642c6.66459,-0.04643 13.649,-0.66925 20.28851,-0.1181c5.25344,0.43609 9.51412,2.69567 14.48157,4.08642c7.38356,2.06719 15.24153,3.55895 22.7845,4.94925c14.78116,2.72443 29.61997,4.77716 44.34774,7.82855c17.38401,3.60527 35.19453,4.88519 52.63496,8.16824c5.95304,1.12062 11.88346,3.07713 17.85801,3.97836c2.00915,0.30307 5.71529,-0.50381 7.26361,-0.73955c6.59071,-1.00345 13.18288,-1.99741 19.77431,-2.99611c19.77431,-2.99611 39.54862,-5.99222 59.32293,-8.98832c5.99053,-0.90766 12.24799,-2.51238 18.32592,-2.29474c1.39839,0.05007 2.9957,-0.43755 4.18742,0.2958c5.457,3.35812 5.00734,13.73608 5.26807,19.07188c0.03675,4.58657 -1.34161,8.00476 -1.96644,12.43777c-0.14399,1.02158 0.15844,2.07776 -0.01355,3.095c-0.79553,4.70523 -3.20235,9.30338 -4,14c-0.43136,2.53987 0.03217,5.6089 0,8.19909l0.90399,2.60989c0,0 0.79057,2.37171 -1.58114,3.16228l-0.00001,-0.00003c-2.37171,0.79057 -3.16228,-1.58114 -3.16228,-1.58114l-0.09394,-0.29057c-26.84478,0 -53.68957,0 -80.53435,0c-17.73982,0 -35.42983,-0.36226 -53.12374,-0.93173c0.28501,20.0539 0.61938,40.20936 -4.14353,59.725z" data-paper-data="{&quot;index&quot;:null}" fill="#8ba936"/><path d="M471.79739,322.44212c1.82934,0 2.32008,1.33859 2.45173,2.05678c0.04575,-0.00755 0.09151,-0.01514 0.13727,-0.02277c0,0 2.46598,-0.411 2.87698,2.05499c0.411,2.46598 -2.05499,2.87698 -2.05499,2.87698c-0.08139,0.01356 -1.4247,0.23772 -3.10368,0.51749c-0.83933,3.01643 3.43686,6.63242 4.77281,8.62978c3.92095,5.86214 8.93092,10.87198 12.10036,17.16386c0.76317,1.2193 1.529,2.43694 2.28951,3.6579c2.19677,3.52681 8.33063,12.64957 3.00614,16.58266c-1.48161,1.09443 -3.6607,0.43242 -5.49956,0.53972c-4.94492,0.28855 -9.90809,0.3807 -14.85958,0.69017c-9.70951,0.60684 -19.4117,1.2246 -29.13141,1.63961c-0.33038,0.01411 -10.07706,0.4345 -10.24904,0.42428c-1.68131,-0.09997 -3.30736,-0.68076 -4.98588,-0.81982c-4.79451,-0.39722 -9.87009,0.0167 -14.66453,0.25713c-13.32934,0.66633 -26.71749,1.5974 -40.06418,1.75114c-13.00082,0.14976 -26.10435,-1.40814 -39.09212,-0.88003c-8.24637,0.33531 -16.57767,1.52798 -24.82203,2.13906c-9.33237,0.69173 -18.63338,2.09347 -27.95247,2.73623c-14.69481,1.01354 -29.60272,-0.91534 -44.16689,-2.57724c-8.34181,-0.95188 -16.74391,-1.15403 -25.00727,-2.66144c-9.76508,-1.78836 -19.44707,-4.47317 -29.29431,-5.77618c-10.24412,-1.35553 -21.49545,-1.72308 -31.80201,-0.95233c-3.2588,0.2437 -6.3715,1.50663 -9.61188,1.9298c-9.82476,1.28306 -20.40769,-0.96611 -30.29832,-0.94834c-11.62261,0.01822 -23.30803,-0.31816 -34.92391,0.0536c-6.70221,0.2145 -13.33703,0.93594 -20.05076,0.93695c-15.1481,0.00228 -30.81511,-1.14064 -45.8347,0.99377c-12.20696,-0.03411 -25.69931,-4.78472 -31.41109,-16.39539c-2.63438,-5.35507 -1.26919,-13.25556 -1.25421,-19.09838c0.00891,-3.4769 -0.32861,-5.90981 1.3245,-9.23175c0.26864,-0.53984 4.80415,-4.91056 5.21879,-5.07795c2.602,-1.05046 9.33942,-0.1903 11.95671,-0.1903c11.36956,0.04946 21.6822,4.66777 32.72953,6.99352c6.0039,1.26398 11.8913,2.92922 17.87043,4.24173c2.59934,0.57059 5.31163,0.41917 7.9394,0.83987c4.54301,0.72733 8.99956,2.18145 13.44532,3.18991c6.43245,1.45911 12.94508,2.1359 19.38951,3.76313c5.8345,0.30064 11.74599,0.97543 17.58559,0.97216c11.06283,-0.0062 21.91718,-2.65328 32.79388,-3.98816c3.63944,-0.44666 7.61529,0.08378 11.26923,-0.11414c11.62041,-0.62942 23.13068,-1.43676 34.68403,-2.88079c6.02101,-0.66912 12.10808,-1.67846 18.15484,-2.01341c15.99727,-0.88616 32.31706,0.3716 48.26903,-1.44356c4.9157,-0.55935 9.75744,-2.03894 14.65187,-2.77191c6.60627,-0.98933 13.33216,-1.48317 19.97186,-2.22091c4.32949,-0.481 8.75747,-1.24297 13.0986,-1.56313c12.56584,-0.92672 25.76087,0.92449 38.33006,1.54265c16.59222,0.81601 33.18514,1.61907 49.77645,2.45336c11.29446,-0.93714 22.59101,-1.84951 33.88671,-2.77161c4.82933,-0.39423 9.94616,-0.39192 14.72335,-1.1914c3.07652,-0.51487 6.11825,-1.28952 9.22452,-1.57437c7.98405,-0.73216 15.80178,-0.81617 23.69308,-1.71878c0.15115,-0.20711 0.29724,-0.41656 0.4326,-0.63092l-0.41987,0.38675c0,0 0,-2.5 2.5,-2.5z" data-paper-data="{&quot;index&quot;:null}" fill="#8ba936"/><path d="M424.54739,79.94212c0,6.90356 -5.59644,12.5 -12.5,12.5c-6.90356,0 -12.5,-5.59644 -12.5,-12.5c0,-6.90356 5.59644,-12.5 12.5,-12.5c6.90356,0 12.5,5.59644 12.5,12.5z" data-paper-data="{&quot;index&quot;:null}" fill="#8ba936"/><path d="M227.54739,291.94212c0,6.90356 -5.59644,12.5 -12.5,12.5c-6.90356,0 -12.5,-5.59644 -12.5,-12.5c0,-6.90356 5.59644,-12.5 12.5,-12.5c6.90356,0 12.5,5.59644 12.5,12.5z" data-paper-data="{&quot;index&quot;:null}" fill="#8ba936"/><path d="M156.54739,209.94212c0,6.90356 -5.59644,12.5 -12.5,12.5c-6.90356,0 -12.5,-5.59644 -12.5,-12.5c0,-6.90356 5.59644,-12.5 12.5,-12.5c6.90356,0 12.5,5.59644 12.5,12.5z" data-paper-data="{&quot;index&quot;:null}" fill="#8ba936"/><path d="M230.54739,161.94212c0,6.90356 -5.59644,12.5 -12.5,12.5c-6.90356,0 -12.5,-5.59644 -12.5,-12.5c0,-6.90356 5.59644,-12.5 12.5,-12.5c6.90356,0 12.5,5.59644 12.5,12.5z" data-paper-data="{&quot;index&quot;:null}" fill="#8ba936"/><path d="M136.54739,100.94212c0,6.90356 -5.59644,12.5 -12.5,12.5c-6.90356,0 -12.5,-5.59644 -12.5,-12.5c0,-6.90356 5.59644,-12.5 12.5,-12.5c6.90356,0 12.5,5.59644 12.5,12.5z" data-paper-data="{&quot;index&quot;:null}" fill="#8ba936"/><path d="M55.54739,183.94212c0,6.90356 -5.59644,12.5 -12.5,12.5c-6.90356,0 -12.5,-5.59644 -12.5,-12.5c0,-6.90356 5.59644,-12.5 12.5,-12.5c6.90356,0 12.5,5.59644 12.5,12.5z" data-paper-data="{&quot;index&quot;:null}" fill="#8ba936"/><path d="M100.54739,312.94212c0,6.90356 -5.59644,12.5 -12.5,12.5c-6.90356,0 -12.5,-5.59644 -12.5,-12.5c0,-6.90356 5.59644,-12.5 12.5,-12.5c6.90356,0 12.5,5.59644 12.5,12.5z" data-paper-data="{&quot;index&quot;:null}" fill="#8ba936"/><path d="M157.54739,287.94212c0,6.90356 -5.59644,12.5 -12.5,12.5c-6.90356,0 -12.5,-5.59644 -12.5,-12.5c0,-6.90356 5.59644,-12.5 12.5,-12.5c6.90356,0 12.5,5.59644 12.5,12.5z" data-paper-data="{&quot;index&quot;:null}" fill="#8ba936"/><path d="M89.54739,224.94212c0,6.90356 -5.59644,12.5 -12.5,12.5c-6.90356,0 -12.5,-5.59644 -12.5,-12.5c0,-6.90356 5.59644,-12.5 12.5,-12.5c6.90356,0 12.5,5.59644 12.5,12.5z" data-paper-data="{&quot;index&quot;:null}" fill="#8ba936"/><path d="M57.54739,111.94212c0,6.90356 -5.59644,12.5 -12.5,12.5c-6.90356,0 -12.5,-5.59644 -12.5,-12.5c0,-6.90356 5.59644,-12.5 12.5,-12.5c6.90356,0 12.5,5.59644 12.5,12.5z" data-paper-data="{&quot;index&quot;:null}" fill="#8ba936"/><path d="M386.54739,107.94212c0,6.90356 -5.59644,12.5 -12.5,12.5c-6.90356,0 -12.5,-5.59644 -12.5,-12.5c0,-6.90356 5.59644,-12.5 12.5,-12.5c6.90356,0 12.5,5.59644 12.5,12.5z" data-paper-data="{&quot;index&quot;:null}" fill="#8ba936"/><path d="M431.54739,154.94212c0,6.90356 -5.59644,12.5 -12.5,12.5c-6.90356,0 -12.5,-5.59644 -12.5,-12.5c0,-6.90356 5.59644,-12.5 12.5,-12.5c6.90356,0 12.5,5.59644 12.5,12.5z" data-paper-data="{&quot;index&quot;:null}" fill="#8ba936"/><path d="M374.54739,168.94212c0,6.90356 -5.59644,12.5 -12.5,12.5c-6.90356,0 -12.5,-5.59644 -12.5,-12.5c0,-6.90356 5.59644,-12.5 12.5,-12.5c6.90356,0 12.5,5.59644 12.5,12.5z" data-paper-data="{&quot;index&quot;:null}" fill="#8ba936"/><path d="M448.26469,360.54117c-5.92088,2.31803 -12.37851,2.93325 -18.49285,4.67823c-1.46667,0.41858 -2.67915,1.61944 -4.1878,1.8437c-3.09278,0.45975 -6.29004,0.65966 -9.37869,0.17298c-3.53069,-0.55633 -6.76507,-2.32616 -10.21508,-3.26035c-7.18292,-1.94498 -14.58957,-2.96402 -21.93824,-4.13626c-1.81839,-0.29007 -3.76779,0.13113 -5.50273,-0.48584c-2.32068,-0.82526 -4.22404,-2.53609 -6.3741,-3.73771c-1.43161,-0.8001 -3.37555,0.07047 -4.88753,-0.56483c-3.38967,-1.42426 -7.17042,-2.69503 -9.57427,-5.47709c-0.36124,-0.41808 -0.69547,-0.84105 -1.00448,-1.26856c-0.717,0.12785 -1.45517,0.19456 -2.20892,0.19456c-6.90356,0 -12.5,-5.59644 -12.5,-12.5c0,-2.3358 0.64067,-4.52195 1.75587,-6.39234l3.56428,-6.23749c0.72683,-4.3248 3.73902,-7.95514 5.24237,-12.07784c0.71174,-1.95182 0.65264,-4.13321 1.38898,-6.07589c0.51676,-1.36336 1.66466,-2.40569 2.31955,-3.70835c0.6559,-1.30465 0.83195,-2.83522 1.59581,-4.07975c0.78064,-1.27187 2.0455,-2.17889 2.96636,-3.35322c1.84051,-2.34714 3.31127,-4.97617 5.2236,-7.26516c2.71401,-3.24858 6.2393,-5.8005 9,-9c1.35579,-1.57129 2.39042,-3.41824 3.85298,-4.89065c0.76701,-0.77218 1.97395,-0.99645 2.75136,-1.75816c0.5697,-0.55819 0.67381,-1.46322 1.17206,-2.08603c2.20246,-2.75308 6.0642,-6.62763 8.74192,-8.74192c2.98285,-2.35522 6.31258,-4.31258 9,-7c1.56269,-1.07042 6.85059,-4.75818 8.43297,-5.56216c0.58316,-0.29629 1.3595,-0.06743 1.92025,-0.40419c0.56192,-0.33747 0.71732,-1.14388 1.26276,-1.50739c1.24047,-0.82672 2.75975,-1.17296 4,-2c1.0267,-0.68464 1.67894,-1.85791 2.73724,-2.49261c1.2523,-0.75105 2.7778,-0.93455 4.07975,-1.59581c1.07156,-0.54425 1.91303,-1.48723 3,-2c7.23558,-3.41334 15.61741,-3.96386 23.28354,-5.8523c2.84224,-0.70015 5.77681,-0.9592 8.68106,-1.3251c2.84324,-0.35822 5.66851,-1.29286 8.52729,-1.09366c2.60751,0.1817 5.42249,-0.1699 7.78354,0.95151c7.83878,3.72309 10.24022,11.07029 12.55505,18.54622c0.49782,22.55616 -9.09068,43.69755 -10.87498,65.95541c-0.40869,5.09805 -0.11684,9.2326 0.28291,13.59517c1.64909,3.1122 1.48046,6.07313 0.71549,8.47568c0.00929,0.15132 0.01836,0.30349 0.02719,0.45653c0.23843,4.13259 0.0108,8.37383 0.0108,12.51948v1c0,0 0,12.5 -12.5,12.5c-5.77884,0 -8.88608,-2.6716 -10.55682,-5.5446c-1.80436,0.94315 -3.69025,1.80737 -5.67849,2.58577z" fill="#8ba936"/></g></g></svg>