<svg version="1.1" xmlns="http://www.w3.org/2000/svg" xmlns:xlink="http://www.w3.org/1999/xlink" width="589.66666" height="454.73224" viewBox="0,0,589.66666,454.73224"><g transform="translate(60.55285,88.58267)"><g data-paper-data="{&quot;isPaintingLayer&quot;:true}" fill="#8ba936" fill-rule="nonzero" stroke="none" stroke-width="0.5" stroke-linecap="butt" stroke-linejoin="miter" stroke-miterlimit="10" stroke-dasharray="" stroke-dashoffset="0" style="mix-blend-mode: normal"><path d="M28.06887,226.99519c4.47282,-1.90333 9.31665,-3.52938 13.61983,-5.78681c4.44905,-2.33395 9.68381,-5.31761 13.72775,-8.26187c5.41452,-3.94213 9.97482,-8.64033 15.70281,-12.18842c4.40494,-3.90794 9.61714,-6.08975 14.18948,-9.73245c4.7768,-3.80559 8.93445,-9.47545 14.45917,-12.28299c1.22524,-0.62264 2.77056,-0.38571 4,-1c1.44113,-0.72006 2.44537,-2.1325 3.84962,-2.92207c1.41373,-0.7949 3.14514,-0.93567 4.52559,-1.78706c0.55455,-0.34202 5.76965,-5.6817 6.11425,-5.96688c3.03212,-2.50929 3.85059,-2.24402 7.33016,-4.22892c5.18651,-2.95861 10.08886,-6.48633 14.42037,-10.56373c8.47338,3.67152 12.71007,-4.80186 12.71007,-4.80186c2.25758,-5.07317 6.11226,-6.83831 10.88256,-9.23334c0.65127,-0.32699 1.45646,-0.10685 2.17317,-0.2388c0.52016,-0.09576 1.03497,-0.9854 1.44619,-0.65278c4.26567,3.45028 7.90557,7.60944 11.85835,11.41415l12.05181,10.71272c0,0 3.48793,3.10038 7.81633,2.68249c1.95079,2.99939 4.35984,3.23309 8.59492,4.44312c3.29242,0.94069 6.35992,2.44378 9.90058,1.93258c5.54003,-0.79987 8.66417,-5.87717 13.08613,-8.65891c2.18142,-1.37227 4.72433,-2.18759 6.72936,-3.80673c1.80976,-1.46145 3.41491,-3.25451 5.48659,-4.31243c3.14877,-1.60794 6.6305,-2.77621 9.6366,-4.78232c0.8325,-0.55556 1.28996,-1.58236 2.14745,-2.09852c0.9031,-0.54362 2.09612,-0.45767 3,-1c0.80845,-0.48507 1.33333,-1.33333 2,-2c2.84811,-1.00635 8.38634,-3.96845 11.45828,-2.09629c1.70089,1.03658 4.1523,5.7585 5.7636,7.60698c2.12312,2.43565 4.57548,4.56344 6.86022,6.84817c2.072,2.072 4.44499,3.88473 6.20275,6.22924c0.97811,1.30461 1.44673,2.96066 2.50321,4.20265c1.01219,1.18992 2.45421,1.93744 3.61195,2.98629c2.28056,2.06607 4.26499,4.4473 6.57477,6.48066c3.78759,3.33431 7.95573,6.40121 11.26042,10.26885c1.81317,2.12204 2.66849,4.90943 4.18497,7.2527c2.47067,3.81767 5.80232,7.45164 8.86249,10.80605c2.51733,3.78728 5.76443,6.80361 8.7043,10.28147c2.4809,2.9349 5.43337,6.94534 8.6417,9.13323c1.87536,1.27888 2.91288,0.30619 5.03901,-0.28829c2.90048,-0.81099 5.69528,-2.136 8.1785,-3.84015c3.19177,-2.19041 7.90169,-4.59708 10.51097,-7.53715c1.06874,-1.20423 1.58023,-2.81984 2.56982,-4.08992c1.04331,-1.33902 2.40629,-2.40097 3.49946,-3.69961c0.62701,-0.74486 5.59976,-7.66313 6.11227,-8.17667c2.93195,-2.9379 6.78869,-5.19116 10.67726,-6.48737c1.83132,-1.23883 3.78224,-2.31225 5.51341,-3.68757c0.84833,-0.67395 1.3872,-1.75157 2.35323,-2.24214c1.34286,-0.68194 2.95593,-0.63576 4.36438,-1.16921c7.50621,-2.843 15.16639,-5.87256 22.5793,-9.04376c8.59523,-3.67699 18.14344,-7.4068 25.89492,-12.68737c1.40407,-0.9565 2.54528,-2.27591 3.98611,-3.17608c4.75458,-2.97043 9.86251,-4.74814 13.94525,-8.77618c1.62913,-0.80167 3.11779,-1.99853 4.88739,-2.40502c4.55626,-1.0466 15.53414,0.07858 17.81045,5.31509c1.43153,3.29314 0.89486,7.74021 0.74443,11.17481c-0.21878,4.9952 -0.4482,9.98996 -0.67229,14.98493c-0.79258,17.66604 -1.19354,35.32591 -1.58641,53.0052c-0.28974,13.03823 2.05087,26.00636 1.77799,38.98576c-0.24248,11.53314 -3.10829,23.03505 -2.00399,34.64012c0.88722,9.32387 3.78349,18.93615 5.98589,28.02512c0.01647,4.76738 0.02459,9.53469 0.01832,14.30211c-0.0042,3.19066 0.36255,8.39356 -1.39021,11.27416c-0.88731,1.45827 -2.56675,2.34325 -4.13113,3.02633c-4.10546,1.79261 -10.88226,2.49058 -15.33948,3.11693c-14.88709,2.09201 -30.10886,2.11118 -45.07221,3.05323c-5.25232,0.33067 -9.52488,1.0342 -14.81248,0.4619c-8.92279,-0.99142 -17.99477,-2.866 -26.93173,-3.43884c-8.19423,-0.52523 -16.6091,0.00629 -24.82278,0.00629c-15.69267,0 -31.38534,0.00254 -47.07801,-0.00122c-5.01028,-0.31194 -10.28393,-0.24208 -15.25052,-0.96019c-5.70722,-0.82519 -11.16434,-2.4434 -16.94322,-3.05341c-13.24361,-1.39797 -26.52779,-2.48668 -39.78697,-3.72973c-9.49345,-0.89001 -19.23212,-2.60238 -28.75046,-1.90558c-11.5428,0.82449 -22.79479,-0.49863 -34.31277,-1.47888c-23.05297,-1.96196 -45.89053,-4.99564 -68.98714,-6.48574c-34.76977,-2.24487 -69.22698,-7.124 -103.72708,-11.8092c-11.83184,-1.60679 -23.31412,-2.87076 -34.72644,-6.44204c-0.60714,-0.18999 -9.05197,-2.35213 -8.90131,-4.21079c0.19152,-2.3627 3.18891,-3.50815 4.77683,-5.26815c2.80516,-3.10916 6.27132,-6.18903 8.66526,-9.62553c2.7631,-3.96641 4.95083,-8.57855 7.37381,-12.76354c4.05062,-6.99629 8.07401,-14.03781 11.51496,-21.3546c3.14908,-6.6918 6.29812,-13.26927 8.77639,-20.24575c0.35183,-0.99042 0.90255,-1.94765 1.3133,-2.92856c2.69263,-2.21042 4.57622,-5.23231 6.70816,-7.89722c2.2117,-2.76463 4.75066,-5.26521 7,-8c1.5269,-1.85644 2.50842,-4.11507 4,-6c0.10456,-0.13213 0.21267,-0.26295 0.32401,-0.39247c0.74592,-0.31741 1.49183,-0.63482 2.23775,-0.95223z"/><path d="M-29.30356,144.96797c-2.2291,-2.63942 -5.13722,-4.73823 -6.98356,-7.65824c-2.38635,-3.77404 -3.19271,-9.58162 -5.07744,-13.72339c-4.58406,-10.07367 -9.19918,-20.51582 -12.25991,-31.19146c-3.987,-13.90645 -4.54237,-28.91294 -6.1175,-43.22155c-0.3804,-8.32183 -1.06405,-16.66768 -0.7142,-24.99341c0.02001,-0.47621 0.41897,-10.12567 0.46784,-10.37201c1.59048,-8.01691 6.22905,-16.71738 10.46055,-23.60157c3.05853,-4.9759 5.91076,-10.77776 10.87409,-14.20931c6.92833,-4.79011 15.42462,-7.88892 23.25493,-10.82661c32.06664,-12.02499 66.19359,-20.14308 100.2536,-23.4091c11.6134,-1.11361 23.22679,-2.22723 34.84019,-3.34084c6.52705,-0.62588 13.27437,-0.83121 19.74359,-1.88765c16.24698,-2.65319 32.44953,-7.56243 48.48821,-11.29747c8.13247,-1.89386 16.25478,-4.06799 24.44507,-5.69068c9.34947,-1.85236 18.95176,-2.86261 28.37733,-4.28534c8.19979,-1.2377 16.70386,-3.29578 24.97931,-3.75673c7.91766,-0.44102 16.37115,0.9492 24.2921,1.41503c34.86778,2.0506 69.83675,1.67082 104.7504,1.79429c14.99991,0.05305 29.99981,0.10609 44.99972,0.15914c4.99959,0.01768 10.00051,0.00625 14.99991,0.05305c1.85033,0.01732 3.74718,-0.33306 5.55065,0.08108c0.35341,0.08116 8.93442,4.22461 9.53673,4.514c9.15035,4.39653 17.88295,9.07184 26.61516,14.24937c5.80956,3.4481 11.18983,7.45967 16.6849,11.38472c0.64445,0.46032 8.27535,5.88339 8.58968,6.22829c2.07395,2.27563 2.79952,5.48505 4.14929,8.25234c3.30148,6.7687 3.69259,13.36592 2.81037,20.80641c-0.78082,6.58523 -0.95222,13.70858 -2.43985,20.16645c-1.72919,7.50649 -5.86426,15.13398 -8.65854,22.31927c-6.84416,17.59926 -13.05725,35.85486 -21.43971,52.80798c-3.01981,1.66528 -5.66574,3.233 -7.38678,4.09695c-4.54658,2.28237 -9.21437,3.15281 -14.08557,4.65409c-5.39288,1.66206 -10.49402,4.17092 -15.84864,5.95238c-11.51069,3.82955 -22.58377,7.68421 -33.09394,13.91345c-1.76447,1.04578 -3.82475,1.64394 -5.38821,2.97158c-1.96256,1.66655 -3.14996,4.08618 -4.93241,5.9441c-2.88778,1.84866 -6.55141,4.16857 -9,6c-1.32577,0.99161 -2.35844,2.57256 -3.95764,3.00093c-0.55489,0.14864 -1.12894,-0.23488 -1.70247,-0.26751c-2.60408,-0.14814 -5.22833,-0.21396 -7.82481,0.03407c-5.90754,0.56434 -11.19784,0.96593 -17.17519,0.96593c-2.56904,0 -5.18365,0.77297 -7.70247,0.26751c-0.9457,-0.18978 -1.59075,-1.11126 -2.47069,-1.50631c-0.27214,-0.12217 -6.92088,-2.34404 -7.26015,-2.4262c-5.92087,-1.43383 -11.00464,-1.18522 -16.81947,-2.95024c0,0 -3.72874,-1.06535 -7.20564,0.4528c-0.2946,-0.30089 -0.60691,-0.58058 -0.95144,-0.82161c-2.28074,-1.59558 -4.98768,-2.4773 -7.41892,-3.83256c-8.84032,-4.9279 -17.38803,-10.01591 -25.4754,-16.09405c-7.44646,-4.23872 -15.47824,-6.51686 -23.54702,-9.49359c-10.92108,-4.02901 -22.70942,-9.32318 -34.61255,-7.76006c-3.13805,0.41209 -6.10958,1.66642 -9.11617,2.65516c-2.32099,0.76327 -6.96721,1.66789 -9.26307,2.75982c-3.94806,1.87773 -7.53985,4.76792 -11.49819,6.74934c-4.38313,2.17607 -8.25486,3.28539 -12.98383,4.42536c-1.53277,0.36949 -3.02983,1.09744 -4.60634,1.07464c-5.51832,-0.07979 -10.46611,-4.70843 -14.58786,-7.86436c-6.35973,-4.86949 -13.02014,-10.21052 -20.23351,-13.64437c-2.36406,-1.12539 -5.90872,-3.04492 -8.57909,-3.52356c-7.9171,-1.41906 -14.37883,3.24764 -21.13777,6.56039c-3.4606,3.33237 -8.39853,4.03554 -12.58956,6.39688c-1.44228,0.81262 -2.57352,2.11343 -4.02539,2.90879c-5.09272,2.78991 -11.21685,4.65913 -16.56077,6.92545c-18.01708,7.6409 -35.92693,16.8541 -51.64806,28.62941c-5.67507,5.70195 -11.75917,10.97292 -18.00688,16.07353c-3.40779,-1.59293 -7.12511,-0.66359 -7.12511,-0.66359l-5.87236,1.67205c-1.44778,1.05719 -2.73981,2.37008 -4.34335,3.17158c-1.80394,0.90167 -3.90962,1.05537 -5.75245,1.87464c-1.18711,0.52776 -2.10054,1.55082 -3.26197,2.13293c-1.43428,0.71886 -2.87507,1.42077 -4.31371,2.12405c-0.7037,0.25213 -1.34684,0.58118 -1.92402,0.94402c-1.73127,0.85437 -3.45378,1.72265 -5.15232,2.63701c-1.63279,0.87898 -3.72713,-0.03038 -5.55629,0.27427c-1.10041,0.18327 -2.19107,0.56506 -3.2771,1.0211c-3.5274,-2.95343 -7.2524,-5.74254 -10.19834,-9.18226z"/><path d=""/></g></g></svg>