<svg version="1.1" xmlns="http://www.w3.org/2000/svg" xmlns:xlink="http://www.w3.org/1999/xlink" width="678.10695" height="553.14315" viewBox="0,0,678.10695,553.14315"><g transform="translate(12.07101,148.5703)"><g data-paper-data="{&quot;isPaintingLayer&quot;:true}" fill="#8ba936" fill-rule="nonzero" stroke="none" stroke-width="0.5" stroke-linecap="butt" stroke-linejoin="miter" stroke-miterlimit="10" stroke-dasharray="" stroke-dashoffset="0" style="mix-blend-mode: normal"><path d="M-7.93458,79.93607c-2.08703,-7.3129 -1.45439,-15.94287 -0.23522,-22.39807c0.9463,-5.01044 1.96478,-10.00717 3,-15c0.30789,-1.48492 0.91327,-2.59094 0.63589,-4.17104c-1.67327,-9.53177 -6.87212,-20.38152 -4.70703,-30.08147c2.36076,-10.57659 12.84968,-23.22982 24.97875,-19.92189c3.80772,1.03847 7.12958,2.97927 9.7568,5.61363c19.84547,-16.10217 39.69452,-32.19995 59.53408,-48.3093c41.05932,-33.33937 86.56534,-60.79666 130.10122,-90.83013c4.58907,-3.1658 10.01061,-3.78222 15.39014,-3.22511c2.32868,0.24116 4.6119,2.88078 6.16556,4.0597c5.90964,4.48425 8.93535,10.6598 7.40805,18.07982c-0.22742,1.10486 -0.41005,3.46179 -1.15931,4.55398c-9.60441,14.00035 -28.85874,26.02397 -38.24735,35.68841c-0.79707,0.82049 1.87872,1.30709 2.8477,1.91505c1.52575,0.95728 3.60883,1.44112 4.48396,3.01542c0.54807,0.98595 3.19103,6.92691 4.03292,7.76413c0.11692,0.11627 2.95717,-0.65162 3.2251,-0.5992c2.35061,0.4599 4.7435,0.90804 6.93943,1.86449c2.60478,1.13452 9.2724,8.92958 9.98956,11.6787c1.60171,6.13989 0.03492,12.26675 -3.70608,17.29502c-0.68511,0.92086 -8.10001,9.20019 -7.61442,10.07289c0.36352,0.65331 0.10153,1.90057 0.82599,2.08528c1.71441,0.43711 3.51853,-0.37837 5.28144,-0.52814c1.24414,-0.1057 3.98856,0.33072 4.9474,-0.48072c23.76047,-20.10782 47.06775,-40.74526 70.65997,-61.05022c0.36722,-0.31605 0.74794,-0.61664 1.13585,-0.90692c7.64416,-5.72035 19.06213,-17.53993 30.44371,-17.48021c0.98418,0.00517 4.65538,-0.35451 5.98482,0.46374c2.5653,1.57891 4.99001,3.38586 7.3477,5.26069c1.44029,1.14531 2.1557,3.86384 2.8204,5.27321c0.74631,1.5824 1.84105,2.99777 2.47545,4.62826c0.56605,1.45483 -0.44743,5.00165 -0.61919,5.97074c-1.98224,11.18396 -15.52311,20.10581 -22.5327,26.66171c-4.31445,4.03521 -8.8609,8.15233 -13.36916,12.29293c-4.53103,-11.98086 -16.88171,-17.51012 -31.0589,-14.35963c-7.90562,1.7568 -13.99654,8.75166 -20.43429,12.93363c-5.11891,3.32525 -10.84045,5.63983 -15.65517,9.39571c-5.09833,3.97712 -11.91172,10.59767 -17.022,15.69566c-10.7552,2.43487 -19.32665,10.86182 -28.42216,16.43218c-17.61134,10.78572 -31.33544,24.78849 -46.45604,38.44715c-2.27286,2.0531 -5.71291,2.72839 -8.13787,4.6903c-3.99573,3.23273 -8.32717,5.97081 -12.36068,9.16359c-2.60537,2.06232 -4.96012,4.59089 -7.3019,7.00956c-0.23192,-0.00636 -0.46464,-0.00956 -0.6981,-0.00956c-0.4724,0 -0.94174,0.0131 -1.40768,0.03896c-0.93716,-0.08656 -2.0928,0.08548 -3.32923,0.4092c-3.69781,0.7092 -7.10607,2.23307 -10.03077,4.37759c-10.7066,6.76811 -20.40243,15.03034 -30.92132,22.08666c-1.10707,0.74265 -2.71687,0.45101 -3.811,1.21259c-3.10654,2.16234 -6.71586,4.13557 -8.59375,7.42188c-0.48208,0.84364 -0.91674,1.69666 -1.3051,2.55624c-1.22803,-0.29917 -2.4421,-0.63352 -3.63307,-1.03192c-5.77028,-1.93024 -12.84433,-4.03377 -18.96808,-4.0712c-19.38831,-0.11851 -38.77766,-0.12213 -58.16603,-0.01087c-0.19365,-0.53675 -0.36351,-1.08487 -0.50829,-1.6431z"/><path d="M314.79085,-24.08832c1.96832,-0.42678 3.99734,-0.79274 6.0343,-1.01166c1.29908,-0.28477 2.64859,-0.43484 4.03315,-0.43484c2.05166,0 4.02635,0.32953 5.87404,0.93853c2.88845,0.75335 5.59798,2.16154 7.94896,4.51827l0.00002,-0.00003c1.07474,1.07737 1.80178,2.37846 2.3472,3.79587c1.63946,2.78534 2.5798,6.03152 2.5798,9.49733c0,2.35048 -0.43251,4.59995 -1.22227,6.67316c-2.68964,7.06057 -9.52288,12.07684 -17.52773,12.07684c-0.06671,0 -0.13334,-0.00034 -0.19988,-0.00104c-7.60067,2.02163 -15.26415,3.63438 -22.38363,7.56692c-9.65439,5.33272 -11.77144,10.44592 -19.15824,17.94237c-11.04838,11.21238 -15.2287,14.50162 -23.92099,24.83482c-5.03482,5.98528 -9.54291,12.39895 -14.53691,18.41832c-3.19808,3.85472 -9.09742,8.40269 -11.89076,11.09553c-5.81775,5.60844 -11.54175,11.31668 -17.14216,17.14216c-4.38896,4.56534 -7.95119,10.23172 -12.56509,14.48699c-12.45063,11.48284 -25.5918,21.78245 -39.26266,31.62233c-2.98487,-4.1597 -7.17646,-7.1777 -10.87835,-11.02816c-4.84471,-5.03915 -7.98959,-11.5053 -12.97995,-16.44847c-3.76548,-3.72988 -7.61559,-7.35487 -11.57359,-10.82795l6.23602,-3.74161c13.27407,-9.88495 25.71494,-20.93447 37.55896,-32.50334c6.42178,-6.27259 15.77341,-9.05866 22.25631,-15.25631c10.49936,-10.03739 20.78047,-20.95377 32.80479,-29.24801c3.50877,-2.42031 9.87335,-6.96527 14.82479,-10.0653c1.041,0.16206 2.05317,0.23318 3.01777,0.20386c1.90424,-0.05789 3.73225,-0.6187 5.54778,-1.26188c1.44112,-0.51054 2.87437,-1.07297 4.33163,-1.47697c1.60389,-0.44464 3.03801,-1.36553 4.3586,-2.50664c2.66232,-1.91118 4.93368,-4.33254 6.67104,-7.12107c0.01035,-0.01 0.02069,-0.01998 0.03104,-0.02993c5.90733,-5.68325 11.40428,-11.83864 17.78871,-16.98014c3.39368,-2.73299 7.59241,-4.27885 11.34965,-6.48552c3.3224,-1.95128 13.80771,-9.24239 19.39722,-14.33013c0.08347,-0.0181 0.16695,-0.03621 0.25042,-0.0543z"/><path d="M-11.01026,246.59004c0.4246,-2.68409 0.77796,-5.17491 1.56477,-7.51054c0.17827,-0.52919 0.37879,-1.0504 0.60743,-1.5641c0.11085,-2.03672 0.21849,-4.07358 0.30975,-6.11107c0.82797,-18.48565 4.81512,-36.61835 5.0283,-55.18913c0.03016,-2.62754 0.02376,-5.26352 -0.01377,-7.90621c0.77289,-0.34756 1.54833,-0.6648 2.31046,-0.71894c3.94198,-0.28003 7.91881,0.02027 11.84931,-0.39062c5.59178,-0.58457 11.24923,-2.87339 16.94385,-2.79439c2.79533,0.03878 5.66785,1.03693 8.51308,1.17037c0.4198,0.88428 0.89864,1.71402 1.42879,2.50652c2.2058,4.25404 5.59803,7.79382 9.73853,10.18119l4.09697,2.45818c4.02186,2.68124 7.88571,5.98579 12.19218,8.22943c9.69222,5.04958 19.43681,9.05903 28.97455,13.79748c-17.04743,14.40988 -35.38015,27.33151 -53.02036,41.15697c-5.07961,3.98113 -7.97303,6.31008 -11.04823,8.63925c0.73597,4.00744 1.14121,8.10475 1.14121,11.99746c0,3.37706 -1.48786,6.20555 -2.11682,9.47443c-1.36564,7.09761 -2.11265,17.89987 -1.94995,24.2738c0.16727,6.55285 0.55577,13.14267 1.55038,19.62542c10.20681,-6.35132 21.11416,-10.5186 31.76572,-16.19608c10.33688,-5.50974 21.24258,-16.92716 29.95339,-23.39196c10.61934,-7.88123 19.48423,-17.38759 29.50594,-26.04906c4.12338,-3.56371 12.3767,-8.70194 14.69117,-10.35525c1.76637,-1.26178 8.39727,-6.2552 15.21433,-11.18704c0.8011,0.84722 1.61507,1.68184 2.45049,2.4954c1.52911,1.48909 6.85335,4.254 8.17236,5.11491c11.21801,7.3219 20.9958,14.03027 30.94147,22.70567c7.28615,6.35555 14.84814,12.47176 21.91946,19.06551c6.90025,6.43424 10.77259,12.58714 16.51159,20.09758c4.69145,6.13955 14.15883,15.34251 16.76157,18.09853c9.13926,9.67746 19.72155,17.73447 28.64883,27.66721c3.75533,4.17828 9.34233,12.65506 14.69648,17.66311c9.53435,8.91804 12.87605,11.63418 20.71297,18.41616c-12.69909,0.09235 -25.39552,-1.48742 -38.09116,-2.1173l0,-0.00001c-11.622,-0.57661 -29.97283,-4.0634 -43.87026,-4.05479c-12.65729,0.00785 -25.10846,3.22475 -37.65424,4.90121c-6.90112,0.92218 -16.78466,-0.22543 -21.70534,0.17585c-9.23995,0.7535 -17.48844,4.4192 -26.89668,3.97113c-35.03404,-1.66849 -69.22158,-8.80026 -104.03256,-13.08223c-15.8606,-1.95095 -23.54533,2.31424 -35.31488,-9.32351c-3.18503,-3.14936 -5.89536,-7.1335 -5.78866,-12.07162c0.01828,-0.84598 0.34166,-1.63558 0.69382,-2.42228c-0.01419,-0.02383 -0.02835,-0.04771 -0.04249,-0.07163c-1.41907,-2.40151 -1.75821,-5.31827 -2.21328,-8.07034c-0.53094,-3.2109 -2.40447,-6.34417 -2.94202,-9.65301c-1.73924,-10.70572 -3.70249,-22.04023 -3.15609,-32.75269c0.23536,-4.61433 -0.03171,-16.17088 1.26061,-22.82865c0.74608,-3.84362 1.95793,-8.34918 2.42026,-12.2527c0.08279,-0.69901 -0.24283,-2.55306 -0.68068,-4.63687c-0.17746,-0.21256 -0.35064,-0.42888 -0.51935,-0.64883c-0.00931,-0.61678 -0.01759,-1.22499 -0.0229,-1.82293c-0.5221,-2.30744 -1.04124,-4.46282 -1.17711,-5.27807z"/><path d="" data-paper-data="{&quot;index&quot;:null}"/><path d="" data-paper-data="{&quot;index&quot;:null}"/><path d="" data-paper-data="{&quot;index&quot;:null}"/><path d="M479.32297,178.06621c-5.35415,5.00805 -10.94115,13.48483 -14.69648,17.66311c-8.92728,9.93274 -19.50957,17.98975 -28.64883,27.66721c-2.60274,2.75602 -12.07012,11.95898 -16.76157,18.09853c-5.739,7.51044 -9.61134,13.66334 -16.51159,20.09758c-7.07132,6.59375 -14.63331,12.70996 -21.91946,19.06551c-9.94567,8.6754 -19.72346,15.38377 -30.94147,22.70567c-1.31901,0.86091 -6.64325,3.62582 -8.17236,5.11491c-0.83542,0.81356 -1.64939,1.64818 -2.45049,2.4954c-6.81706,-4.93184 -13.44796,-9.92526 -15.21433,-11.18704c-2.31447,-1.65331 -10.56779,-6.79154 -14.69117,-10.35525c-4.26501,-3.68612 -8.3205,-7.52527 -12.39088,-11.32706c13.63646,-9.97908 25.24501,-23.04668 37.71642,-34.20531c1.29349,-1.15733 2.3683,-3.1441 3.64554,-4.13187c5.26094,-4.06862 9.34695,-5.30825 14.13111,-10.4999c5.14609,-5.5844 9.60976,-14.48268 7.45777,-22.3733c-3.91662,-14.36095 -17.31278,-23.32734 -31.76456,-19.61116c-6.9315,1.78238 -7.30813,4.82378 -12.17985,7.76044c-2.94035,1.77243 -5.18383,2.23722 -7.83034,4.38277c-10.58885,8.58446 -19.55057,19.16893 -29.44368,28.47584c-2.75794,2.59453 -5.79499,4.97995 -8.86784,7.29c-1.37922,-1.33226 -2.79481,-2.62386 -4.2781,-3.83987c-3.77336,-3.09341 -7.75089,-4.71288 -11.83628,-7.24584c-9.48142,-5.87852 -17.78033,-11.26749 -27.89569,-16.44785c-2.81233,-1.44027 -4.89924,-4.12622 -7.63562,-5.77478c-8.13738,-4.90244 -16.18978,-10.05634 -24.86541,-13.9273c-1.69974,-0.98724 -3.52649,-1.77991 -5.44976,-2.34751c1.06882,-2.44655 2.7741,-4.58167 4.6428,-6.42944c11.76955,-11.63775 19.45428,-7.37256 35.31488,-9.32351c34.81098,-4.28197 68.99852,-11.41374 104.03256,-13.08223c9.40824,-0.44807 17.65673,3.21763 26.89668,3.97113c3.91555,0.31931 10.97353,-0.34212 17.17071,-0.16102c1.7705,0.9063 3.55993,1.88413 5.09964,2.44013c1.40164,0.50614 1.96378,2.25254 3.07678,3.2435c2.64547,2.35541 5.63562,3.53303 8.40022,5.63446c0.60376,0.45893 0.99613,2.27763 1.31431,2.6633c1.26572,1.53421 2.84335,3.25839 4.56085,4.93661c2.52245,5.15124 6.80822,9.50331 12.86838,11.8144c1.76453,0.67292 3.65601,0.8439 5.56183,0.95976c1.2936,0.20652 2.62031,0.31381 3.97208,0.31381c0.20004,0 0.39953,-0.00235 0.59844,-0.00702c0.97011,0.12126 2.15015,-0.01864 3.40607,-0.31198c3.72118,-0.5991 7.16761,-2.01951 10.1474,-4.06934c6.09868,-2.60716 10.51079,-8.99519 14.35192,-14.07463c3.71217,-4.90891 9.5083,-8.17746 13.99568,-12.27266c0.0601,-0.05485 0.12022,-0.10963 0.18035,-0.16434c12.20408,-0.67243 24.40895,-2.12878 36.6163,-2.04001c-7.8369,6.78197 -11.17861,9.49811 -20.71295,18.41614z" data-paper-data="{&quot;index&quot;:null}"/><path d="M500.03597,159.65007c-0.00002,0 -0.00004,0 -0.00005,0c0.00001,-0.00001 0.00002,-0.00001 0.00002,-0.00002z" data-paper-data="{&quot;index&quot;:null}"/><path d="M393.7857,391.85408c-15.8606,-1.95095 -23.54533,2.31424 -35.31488,-9.32351c-3.18503,-3.14936 -5.89536,-7.1335 -5.78866,-12.07162c0.03262,-1.50972 1.03689,-2.83985 1.44241,-4.29446c3.87572,-13.90213 15.24167,-18.38971 27.11133,-26.40009c11.01163,-7.43133 22.96884,-11.83467 34.61999,-18.04495c2.52467,-1.3457 5.08328,-3.0438 7.63555,-4.93609c1.27579,1.20931 2.44933,2.29013 3.44871,3.20278c8.94278,8.16668 16.44122,17.82116 25.02356,26.4035c7.3821,7.3821 17.86675,11.35815 26.14851,17.49499c2.21903,1.64432 5.19569,4.27611 8.57207,7.05457c-0.21195,2.05608 -0.34007,4.1011 -0.34007,6.1211c0,5.71276 2.38756,21.8894 5.08664,27.51255c-32.81024,-2.16254 -64.95277,-8.6974 -97.64517,-12.71877z" data-paper-data="{&quot;index&quot;:null}"/><path d="M475.31522,272.27842c2.13637,-1.8464 5.38137,-4.11545 8.33463,-6.1035c1.90204,12.87161 -0.27481,25.8848 0.96277,39.65313c0.07755,0.86281 0.15277,1.68967 0.22596,2.48343c-0.07616,-0.06385 -0.14909,-0.12926 -0.21844,-0.1964c-7.90776,-7.65564 -14.67159,-16.09419 -22.59174,-23.67376c4.37255,-4.07364 8.709,-8.20642 13.28683,-12.1629z" data-paper-data="{&quot;index&quot;:null}"/><path d="M645.32297,383.64406c9.53435,8.91804 12.87605,11.63418 20.71297,18.41616c-11.22279,0.08161 -22.44351,-1.14271 -33.66343,-1.86323c0.05175,-0.67514 0.09341,-1.34435 0.12749,-2.00449c0.45614,-8.83437 1.66205,-18.33673 1.8347,-27.6434c3.29119,4.26633 7.19807,9.54977 10.98827,13.09496z" data-paper-data="{&quot;index&quot;:null}"/><path d="M492.7455,290.29537c-8.89346,6.49228 -22.08098,2.7051 -27.31243,-6.15817c-1.07079,-1.81417 -1.74147,-3.87736 -2.10611,-5.9887c-0.21087,-1.09763 -0.32603,-2.2293 -0.33646,-3.38598c-1.0195,-32.93255 -1.77281,-65.90014 -1.11905,-98.84154c-5.28092,1.52399 -11.50017,3.14404 -17.23015,4.18149c1.65255,-1.99753 3.16725,-4.07779 4.60225,-5.97541c3.71217,-4.90891 9.5083,-8.17746 13.99568,-12.27266c0.67932,-0.61995 1.36062,-1.23066 2.03251,-1.84203c1.26895,-1.86999 2.85423,-3.46093 4.66466,-4.72742c2.26171,-2.75603 3.89665,-5.93262 4.13379,-10.20107c0.8257,-14.86253 -9.04759,-27.60504 -23.93292,-28.64962c-9.40674,-0.66012 -20.332,6.98101 -28.96847,14.70929c-1.12363,-0.7955 -2.29869,-1.62593 -3.56724,-2.57345c-1.01204,-0.75593 -1.84179,-1.71869 -2.67683,-2.67699c-2.85303,-6.94337 -8.77614,-12.7589 -15.80951,-16.19554c6.9504,-6.58615 14.37621,-12.55847 21.16622,-19.29934c3.41184,-3.38714 6.73175,-6.72633 10.16118,-10.13432c0.26569,-0.26403 -0.45184,-7.35245 -0.45291,-7.36565c-0.02423,-0.30017 -0.7273,-4.9364 -0.9947,-5.0985c-6.87398,-4.16695 -16.04022,-1.10098 -24.06975,-1.47742c-5.69079,-0.2668 -12.20598,-2.01529 -18.47558,-3.18292l-0.43041,0.75322l-0.45664,0.4765l-0.22197,0.62153l-5.58631,8.37946l-0.29228,0.70148l-3.68277,3.15666l-1.77438,1.61308l-1.00695,1.00695l-0.29616,0.1777l-0.51158,0.46507l-0.4899,0.13581l-0.30375,0.18225l-1.25623,1.38186l-2.56697,1.71132l-2.51764,1.88823l-1.74494,1.74494l-0.97013,1.4552l-0.3942,0.35837l-0.20674,0.491l-3,4l-1.04741,0.85102l-0.69434,1.15723l-4,4l-1.42001,0.85201l-1.08582,1.25034l-9.61347,6.72943l-7.70613,5.99366l-3.17457,3.17457l-2.58454,1.55073l-2.28845,1.96153l-4.65107,2.32553l-0.35918,0.31021l-0.71837,0.22857l-0.27138,0.13569l-0.51418,0.11426l-4.94138,1.57226l-2.86868,0.28687l-0.13174,0.04391l-2.87199,0.64851l-0.06533,0.00089l-0.06226,0.01981l-2.92969,0.29297h-3l-1.16011,-0.11601l-1.16554,-0.02878l-8,-1l-2.87073,-0.65409l-1.97217,-0.91023l-1.21671,-0.27038l-14,-7l-0.5582,-0.47846l-0.70334,-0.21406l-10,-6l-0.32328,-0.32328l-0.43055,-0.15377l-9,-6l-0.20879,-0.22967l-0.28879,-0.11377l-6.39067,-4.56477l-3.74043,-2.24426l-8.99261,-4.49631c-2.91721,-1.38289 -5.42054,-3.49661 -7.27353,-6.10469l-0.42689,-0.36591l-0.32306,-0.77535c-0.95865,-1.58135 -1.69012,-3.31575 -2.14913,-5.15792l-0.80329,-1.92791l0.28606,-1.41348c-0.02535,-0.39904 -0.03822,-0.80147 -0.03822,-1.20691c0,-6.56915 3.37825,-12.34926 8.49223,-15.6978l0.95538,-1.07271l2.02152,-0.5134c1.69107,-0.71323 3.50863,-1.18553 5.40969,-1.37389l0.82303,-0.20902l0.55439,0.1232c0.16407,-0.00424 0.32867,-0.00638 0.49376,-0.00638c2.81781,0 5.49044,0.62158 7.88826,1.73511l1.22697,-3.85618l0.11426,-0.51418l0.13569,-0.27138l0.22857,-0.71837l0.31021,-0.35918l0.32553,-0.65107l0.77107,-0.89958l0.3985,-1.11579l0.89247,-1.33871l0.06319,-0.20439l0.23675,-0.24552l0.80758,-1.21138l2.92218,-2.65652l2.74129,-2.84281l1.23459,-0.77162l0.25238,-0.22943l0.20616,-0.05715l6.30687,-3.94179l0.25084,-0.08135l1.03314,-0.81667l0.56468,-0.153l-0.95465,-3.75893l-0.62417,-1.36181l0.03592,-0.95441l-0.2351,-0.92569l0.32497,-1.46237l0.19449,-5.16778l1.36947,-1.87004l0.20738,-0.93322l1,-2l0.77107,-0.89958l0.3985,-1.11579l8,-12l0.45871,-0.41701l1.06021,-1.78206l4.53873,-3.30789l1.09278,-0.99343l1.42311,-0.39453l1.09813,-0.49226l6,-2l1.43095,-0.32312l1.41584,-0.38396l12,-2l0.76828,-0.05038l0.7571,-0.13997l12,-1l0.78043,0.0129l0.77667,-0.07767h24l1.32312,0.13231l1.32853,0.05614l7,1l0.21247,0.05235l0.21836,0.01432l4.46932,0.74489h1.95512l18.5076,-0.97408l0.49369,0.02326l0.49179,-0.04918h18l1.83841,0.18384l1.83877,0.18027l5,1l2.81534,0.86184l1.0053,0.55633l0.88744,0.19721l2,1l0.48868,0.41887l1.96591,0.53133l3.83617,4.44188l1.04634,0.89686l0.25335,0.60804l0.04758,0.05509c33.82267,14.89722 39.07174,13.46766 60.87681,34.34529c2.14068,2.04963 4.553,3.8644 6.35816,6.2149c7.14345,9.30147 7.23788,16.64321 0.56206,26.0981c-2.7601,3.90909 -8.30785,7.06147 -12.89062,7.61719c-2.64801,0.32111 -5.30545,0.39872 -7.92969,0.29297c-0.37891,-0.01527 -0.86105,-0.37245 -1.13253,-0.10768c-2.42594,2.36586 4.16995,5.3453 6.13253,8.10768c2.93199,4.12683 4.26457,9.68762 5.78781,14.32073c4.9297,14.99419 11.2936,35.62696 8.64941,51.92122c-0.19705,1.21426 -0.43637,2.41215 -0.72332,3.58412c0.37692,0.189 0.75236,0.39014 1.12595,0.60362c8.83228,5.04702 7.83029,16.42197 7.91016,24.72163c0.30432,31.62305 0.66574,63.24552 0.99861,94.86829c0.00092,0.07669 0.00139,0.15349 0.00139,0.2304c0,3.56655 -0.9958,6.90052 -2.72453,9.73904c-1.01632,2.17031 -2.51183,4.13553 -5.01971,5.96629z"/><path d="M364.06925,177.16695c-0.44019,-0.18301 -0.78802,-0.5735 -1.04814,-0.97299c-4.98742,-2.62428 -8.64814,-7.42984 -9.71356,-13.14811c-0.53458,-1.35175 -0.81754,-2.76387 -0.72851,-4.26324c0.05946,-1.00136 0.38273,-2.0153 0.80207,-3.02198c0.15493,-0.74659 0.35426,-1.47692 0.59509,-2.1881c1.431,1.06759 2.91737,1.87056 4.21101,2.19397c4.19792,1.04948 8.43176,1.95616 12.6761,2.79873c0.04167,0.00827 0.08334,0.01654 0.12501,0.0248c2.92118,0.57901 6.94853,3.33335 9.99697,4.43416c1.40164,0.50614 1.96378,2.25254 3.07678,3.2435c2.64547,2.35541 5.63562,3.53303 8.40022,5.63446c0.60376,0.45893 0.99613,2.27763 1.31431,2.6633c0.72307,0.87645 1.54793,1.8149 2.44251,2.77135c-6.06627,-1.36533 -11.82169,-2.9488 -12.52769,-3.10569l-1.76906,1.10566c-2.91282,1.88745 -6.38244,2.98865 -10.10835,3.0031c-2.38063,0.28127 -4.84479,0.03275 -7.74476,-1.17294z"/></g></g></svg>