<svg version="1.1" xmlns="http://www.w3.org/2000/svg" xmlns:xlink="http://www.w3.org/1999/xlink" width="544.15198" height="428.67564" viewBox="0,0,544.15198,428.67564"><g transform="translate(30.60392,29.19592)"><g data-paper-data="{&quot;isPaintingLayer&quot;:true}" fill="#8ba936" fill-rule="nonzero" stroke="none" stroke-width="0.5" stroke-linecap="butt" stroke-linejoin="miter" stroke-miterlimit="10" stroke-dasharray="" stroke-dashoffset="0" style="mix-blend-mode: normal"><path d="M13.34997,234.18102c-0.94417,0.84058 -1.85965,1.70162 -2.73987,2.58675c0,0 -1.76777,1.76777 -3.53553,0c-1.76777,-1.76777 0,-3.53553 0,-3.53553c7.68373,-7.64648 17.74625,-13.56879 26.49357,-19.97528c14.79071,-10.83263 29.58142,-21.66527 44.37214,-32.4979c19.80061,-14.50141 38.84744,-30.81867 61.94535,-40.06875c2.3107,-0.92537 4.96652,-0.52383 7.38233,-1.12342c1.33067,-0.33026 2.37676,-1.38924 3.65277,-1.8908c1.61783,-0.63593 3.32825,-1.00492 4.99238,-1.50738c6.34335,-1.89644 12.36003,-5.9602 18.77761,-7.3619c4.60851,-1.00657 10.12575,-0.73973 14.86387,-1.29018c11.25468,-1.30753 22.12673,-0.82851 33.42483,-0.07541c4.97513,0.33163 10.26602,0.30391 15.18806,1.08496c6.5524,1.03977 13.15053,3.21769 19.61853,4.7343c12.54959,2.9426 24.82666,6.00115 37.10465,9.93011c5.36034,1.71531 10.63238,3.52047 15.81906,5.46471c2.87376,1.07724 5.54283,2.73368 8.51252,3.50823c10.37179,2.70516 20.92373,3.33649 31.62012,3.33649c1.25698,0 2.52452,-0.00824 3.79924,-0.01799c-0.03053,6.67136 6.96982,9.00481 6.96982,9.00481c6.46052,2.15351 13.67415,3.49584 19.76876,6.49632c1.55128,0.76372 2.85293,2.04819 4.49567,2.58777c1.36381,0.44796 2.87282,0.11251 4.29602,0.29995c1.88782,0.24863 3.34558,1.84989 5.13236,2.50798c2.67085,0.98369 5.60702,1.11178 8.27699,2.09786c2.26158,0.83526 4.38895,2.00379 6.63867,2.8705c4.79101,1.84577 9.38339,3.56083 14.08167,5.59705c0.59171,0.25645 1.36871,0.12792 1.85411,0.55251c0.51293,0.44867 0.4589,1.31097 0.8846,1.84311c0.92356,1.15446 1.98109,2.20869 3.1154,3.15689c2.80048,2.341 5.77806,4.4616 8.66709,6.69241c10.86636,13.17477 24.52024,24.16888 37.3749,35.34445c3.14145,2.73111 13.93814,14.20646 19.87357,12.19885c1.01729,-0.34409 1.95635,-0.86466 2.81354,-1.52435c1.1587,4.39574 2.45805,8.74845 4.0081,13.00847c1.69477,4.65776 3.7801,9.20305 5.622,13.80504c0.60628,1.51478 1.53703,2.94357 1.79141,4.55523c0.05873,0.37211 -0.39991,9.85476 -0.43125,10.52848c-0.23231,4.9946 -0.46461,9.9892 -0.69692,14.9838c-0.23225,4.99339 -0.4125,9.99314 -0.69692,14.9838c-0.07048,1.23675 0.13681,2.53465 -0.26359,3.70691c-0.42979,1.25829 -1.43345,2.23993 -2.15018,3.35989c-3.60544,9.71722 -7.64116,20.27214 -13.07101,29.12911c-1.51493,2.47109 -3.50624,4.6257 -5.0489,7.07958c-3.0132,4.79303 -4.98702,10.19955 -7.97853,14.96588c-4.70142,7.49069 -12.93936,15.40853 -21.08198,18.95695c-0.17257,0.0752 -9.31666,3.33766 -9.62122,3.44644c-1.6968,0.58667 -3.31042,1.52547 -5.09039,1.76c-0.34333,0.04524 -9.85783,-0.69392 -10.49364,-0.74221c-4.98564,-0.37866 -9.97128,-0.75731 -14.95692,-1.13597c-11.63316,-0.88353 -23.26633,-1.76706 -34.89949,-2.65059c-6.31769,-0.47982 -13.2459,-0.24386 -19.45428,-1.49377c-6.49482,-1.30758 -13.0353,-4.06552 -19.36174,-6.04688c-33.40026,-10.46052 -66.80052,-20.92104 -100.20079,-31.38156c-14.3144,-4.48308 -28.6288,-8.96616 -42.94319,-13.44924c-4.76357,-1.49189 -9.59354,-2.86174 -14.3144,-4.48308c-1.23923,-0.4256 -2.36146,-1.36421 -3.6711,-1.40517c-0.6376,-0.01994 -0.98903,0.80762 -1.45347,1.2449c-1.61299,1.51867 -3.25399,3.02145 -4.69538,4.70386c-5.29312,6.17822 -8.85627,13.21502 -15.12928,18.48347c-4.81158,3.87557 -11.63702,4.67247 -17.5353,6.3185c-9.41288,2.62685 -19.17766,4.7439 -28.4151,7.92553c-17.1222,5.89736 -32.80301,15.49157 -50.12612,20.5414c-0.38694,0.1128 -9.70475,2.83571 -9.91287,2.86833c-6.48482,1.01662 -13.74266,0.41324 -20.31132,0.57632c-4.09519,0.10167 -10.06836,0.27081 -13.70981,-2.18717c-1.56,-1.053 -2.7107,-2.61194 -4.05213,-3.93216c-0.23793,-0.23417 -7.15868,-7.15556 -7.25881,-7.28127c-0.11564,-0.14518 -5.28342,-8.40086 -5.47312,-8.70357c-4.38024,-6.98994 -9.51573,-14.25061 -12.96698,-21.74626c-0.06984,-0.15169 -3.2315,-9.38969 -3.33612,-9.69496c-2.92922,-8.68838 -3.01308,-19.5451 -3.10917,-28.69009c-0.08732,-8.31055 -0.66072,-16.92289 -0.04556,-25.21051c0.37002,-4.98505 1.49402,-10.07446 2.23578,-15.01967c1.13928,-7.59543 3.06888,-17.22002 7.41249,-23.74368c2.32759,-3.49581 4.31938,-4.78937 7.44844,-7.39152c0.42358,-0.4817 6.19917,-7.05411 6.53347,-7.41625c1.76576,-1.91287 3.16654,-2.22564 3.37051,-4.15341z"/><path d="M-5.56454,98.001c-0.36471,0.29334 -0.87609,0.499 -1.59312,0.499c-2.5,0 -2.5,-2.5 -2.5,-2.5l0.1903,-2.04329c-2.40887,-2.17746 -2.86377,-4.85291 -4.74054,-7.52614c-4.47938,-6.38036 -8.18976,-12.18939 -10.35006,-19.7316c-0.18852,-0.65818 -2.00381,-5.85932 -2.06742,-6.29851c-0.95911,-6.62241 0.51457,-13.60855 -0.22822,-20.28639c-0.51721,-4.64984 -1.71433,-9.23241 -2.2796,-13.89089c-0.92414,-7.63639 -2.82052,-16.34398 0.06483,-23.82042c1.55547,-4.03047 5.79256,-9.29019 10.08743,-10.76331c4.15273,-1.42437 10.2829,-0.93641 14.6502,-1.30035c16.37834,-1.36486 32.9566,-0.70825 49.27507,-2.53552c13.26587,-1.48031 26.35851,-3.22522 39.52382,-5.27541c20.51401,-3.19459 41.58426,-3.80844 62.27606,-5.1222c34.27022,-2.17589 68.52976,-4.3974 102.79838,-6.60189c22.2957,4.22415 44.4029,9.08936 66.09786,15.82675c9.15346,2.84262 17.75236,8.53176 27.47179,9.16771c13.31096,0.95048 26.73166,1.38535 40.00796,2.71696c7.59889,0.76217 15.21276,2.39291 22.75796,3.581c13.21356,2.08065 26.3765,4.21331 39.50839,6.76228c9.69876,1.88258 20.75944,3.31563 29.62707,7.93259c0.77653,0.4043 6.89333,5.35951 7.68149,5.85252c1.49076,0.93251 3.26982,1.37259 4.69944,2.39637c2.2678,1.62401 3.64326,4.22591 5.39721,6.39477c3.15416,3.9003 6.33658,7.85449 9.32413,11.88363c2.69168,3.63011 5.42314,7.37884 7.93679,11.13385c1.21862,1.82043 3.55142,3.37609 3.49434,5.566c-0.05707,2.18991 -2.45698,3.63005 -3.77952,5.37644c-2.01239,2.65733 -4.2679,5.12148 -6.40184,7.68221c-6.57406,7.88887 -13.16009,16.14111 -22.39453,21.15351c-3.78663,2.05537 -9.19234,2.81737 -13.30375,4.05963c-4.79856,1.44989 -9.62019,3.18573 -14.48919,4.37409c-4.8441,1.18229 -9.87932,1.57983 -14.72338,2.75943c-8.99681,2.19086 -17.15052,6.04654 -26.61247,6.07619c-1.26738,0 -10.15118,0.05322 -10.95671,-0.1903c-1.15268,-0.34847 -1.75314,-1.65384 -2.6813,-2.42106c-1.42888,-1.18114 -3.23375,-1.96767 -4.38543,-3.4204c-0.874,-1.10247 -0.95792,-2.6459 -1.46432,-3.95848c-1.18435,-3.06978 -2.27363,-6.18582 -3.11253,-9.36741c-2.01304,-7.63456 -3.39144,-15.41068 -5.33599,-23.02628c-0.78837,-3.08754 -2.6163,-5.81153 -3.89803,-8.729c-0.49746,-1.13231 -2.43649,-7.70089 -3.25279,-9.01084c-1.11244,-1.78518 -3.62826,-3.18548 -5.29965,-4.2961c-3.44047,-2.28617 -6.6351,-4.80389 -9.90293,-7.33213c-2.60631,-1.82386 -4.96941,-4.04711 -7.80029,-5.49812c-8.38239,-4.29651 -17.81111,-4.00355 -26.81575,-2.80655c-2.8002,0.37224 -6.14943,0.60008 -8.82646,1.71135c-0.54393,0.22579 -1.96791,1.93296 -1.6012,2.64747c1.35101,2.63233 4.09636,4.27334 6.04473,6.50005c4.91438,5.61644 10.1215,11.04296 14.87354,16.78568l0.17447,-0.20936l3.82644,3.1887c0.55817,0.4585 0.91421,1.15406 0.91421,1.93278c0,1.38071 -1.11929,2.5 -2.5,2.5c-0.19113,0 -0.37725,-0.02145 -0.55608,-0.06207c-3.26466,-0.67313 -10.43524,-2.1516 -13.6999,-2.82472c-19.58797,-4.03876 -39.17593,-8.07751 -58.7639,-12.11627c-4.89699,-1.00969 -9.79398,-2.01938 -14.69098,-3.02907c-2.95076,-0.6084 -5.80847,-2.25967 -8.81126,-2.01397c-2.12193,0.17363 -3.19535,2.81779 -4.71011,4.31386c-1.84691,1.82412 -3.99079,3.53798 -6.45344,4.35886c-3.98856,4.07517 -9.633,5.11836 -14.9453,6.7149c-4.63798,1.39388 -5.17079,2.07386 -10.10906,2.64492c-1.37735,0.15928 -2.7843,-0.13619 -4.15937,0.04166c-5.28977,0.68421 -10.0005,2.76503 -15.50105,1.93961c-10.70639,-1.60662 -20.24255,-8.32932 -29.87383,-12.6031c-5.01935,-2.22728 -10.22203,-3.55079 -14.8241,-6.61883c-3.21991,-1.04684 -6.8365,-2.37771 -10.20074,-2.76375c-9.6073,-1.10241 -19.00281,2.54629 -28.29594,4.26906c-17.68449,3.27837 -34.65761,7.99953 -51.91469,13.0536c-10.84474,3.60012 -21.9939,9.93251 -30.90529,17.12866c-1.14024,0.92077 -1.93006,2.24363 -3.1232,3.09475c-2.14604,1.53087 -4.8219,2.25407 -6.8768,3.90525c-5.05132,4.0589 -8.65982,9.70476 -12.65162,14.65162c-1.68434,2.08733 -3.51685,4.12464 -4.69729,6.53306c0,0 -1.11803,2.23607 -3.3541,1.11803c-2.23607,-1.11803 -1.11803,-3.3541 -1.11803,-3.3541c1.26964,-2.49776 3.06224,-4.69821 4.82919,-6.88096z"/></g></g></svg>