<svg version="1.1" xmlns="http://www.w3.org/2000/svg" xmlns:xlink="http://www.w3.org/1999/xlink" width="431.00294" height="436.11053" viewBox="0,0,431.00294,436.11053"><g transform="translate(-17.99706,36.3348)"><g data-paper-data="{&quot;isPaintingLayer&quot;:true}" fill="#8ba936" fill-rule="nonzero" stroke="none" stroke-width="0.5" stroke-linecap="butt" stroke-linejoin="miter" stroke-miterlimit="10" stroke-dasharray="" stroke-dashoffset="0" style="mix-blend-mode: normal"><path d="M32.56897,360.35437c-0.19445,0.80059 -0.42331,1.61033 -0.69726,2.4362c0,0 -0.79057,2.37171 -3.16228,1.58114c-2.37171,-0.79057 -1.58114,-3.16228 -1.58114,-3.16228c0.00818,-0.02442 0.01632,-0.04882 0.02441,-0.0732c-0.59094,-0.32784 -1.1527,-0.95116 -1.1527,-2.13623c0,-2.01415 1.62272,-2.40558 2.25344,-2.48165c0.3465,-2.19481 0.49153,-4.37063 0.75932,-6.77059c0.36952,-3.31169 1.35459,-6.53742 1.69153,-9.85259c0.9986,-9.82536 0.29571,-20.0341 0.29571,-29.89517c0,-7.07599 1.4144,-15.59584 -0.9003,-22.30103c-1.5124,-6.09384 -1.03006,-12.17874 -2.0685,-18.30526c-1.30892,-7.72224 -3.48264,-16.17619 -5.90993,-23.62454c-2.37949,-7.30168 -4.10163,-15.02692 -4.12127,-22.76917c-0.00184,-0.72685 -0.0265,-6.36624 0.10727,-6.72446c1.72862,-4.62902 2.71152,-4.21905 6.57019,-5.63635c4.90325,-1.80098 9.49733,-3.45365 14.62142,-4.5036c18.8428,-3.8351 37.01026,-4.63558 56.20112,-4.63558c5.87124,0 15.31607,-1.29924 19.83971,3.80723c4.17468,4.71255 3.62607,14.73626 3.83112,20.60365c1.19822,34.74832 -0.17083,69.32212 -0.17083,104.06417c0,6.28842 0.73499,13.18157 -0.03228,19.42541c-0.12856,1.04622 -0.82049,1.9613 -1,3c-0.37158,2.15009 0.65816,4.15741 -0.07499,6.324c-1.09647,3.24031 -5.25435,7.42665 -8.47338,8.60036c-3.01533,1.09944 -6.38396,0.68492 -9.55971,1.14917c-13.2272,1.93366 -27.94314,5.24009 -40.99675,0.94346c-3.71808,-0.74937 -8.00963,-0.47244 -11.46126,-2.17167c-4.03111,-1.9845 -6.94691,-7.74579 -11.90162,-7.74579c-1.02758,0 -1.9834,0.39953 -2.93103,0.85437z"/><path d="M40,-10c0,-2.5 2.5,-2.5 2.5,-2.5h3c5.72884,0.01052 11.21436,-1.59214 16.88956,-1.99756c2.77296,-0.19809 5.5451,0.40771 8.3169,0.62144c3.36734,0.25966 6.76924,0.00993 10.1242,0.39808c2.96393,0.34291 5.73963,1.64071 8.64328,2.32719c10.84657,2.56431 22.15596,4.49352 33.30867,4.75237c8.42828,0.21329 16.56048,2.12097 24.92358,2.907c4.27667,0.40196 6.3261,-1.11434 9.92043,3.17715c0.84187,1.00515 0.09286,2.63124 0.34184,3.91852c0.70612,3.65082 1.40819,7.347 1.99925,10.99535c0.4858,2.99861 2.29187,5.87655 2.97035,8.84744c1.00852,4.41603 0.87518,8.96114 1.0593,13.43836c0.2592,6.30272 1.11192,12.6985 1.99634,18.93744c0.00611,5.0299 0.52803,10.48401 -0.01244,15.48268c-0.83803,7.7507 -3.93772,15.88445 -5.84323,23.45017c-1.60226,6.36169 -4.5534,15.03493 -10.68133,18.55407c-0.87109,0.50025 -2.07878,-0.36228 -3.01352,0.00555c-0.88554,0.34848 -1.12777,1.75207 -2.04996,1.98702c-0.9013,0.22963 -9.62281,-0.02786 -10.97163,-0.05923c-8.33108,-0.19375 -16.66216,-0.38749 -24.99324,-0.58124c-13.32973,-0.30999 -26.65946,-0.61999 -39.98919,-0.92998c-1.97607,-0.04596 -10.51489,-0.06963 -11.72737,-0.98472c-1.27714,-0.96389 -0.56541,-3.15375 -0.7118,-4.7471c-0.2243,-2.44124 0.33688,-5.20749 0.03228,-7.59954c-1.12121,-8.80495 -5.94692,-17.40814 -6.03228,-26.40046c0,-11.33868 -0.11162,-22.53778 -0.99371,-33.82278c-0.87664,-11.21527 1.12498,-22.71677 0.00864,-33.90443c-0.41868,-4.19594 -1.91794,-8.57798 -2.94028,-12.66645c0,0 -0.12623,-0.50494 -0.03311,-1.11162c-0.18026,0.0032 -0.36077,0.00499 -0.54153,0.00529h-3c0,0 -2.5,0 -2.5,-2.5z"/><path d="M243,-12c0,-2.5 2.5,-2.5 2.5,-2.5l2.6268,0.07985c6.19827,1.6237 12.66042,1.59064 18.93745,2.98466c7.12098,1.58145 13.0568,5.63197 19.83621,7.96777c1.67496,-0.0208 3.42047,0.51513 5.02516,0.0346c2.48732,-0.74484 4.60694,-2.64453 7.17393,-3.0346c3.63297,-0.55205 8.58922,-0.78871 12.24511,-1.02745c4.65056,-0.30369 8.85999,1.00094 13.52544,0.98866c17.9642,-0.04729 36.69307,0.28286 54.33874,-3.07822c3.15654,-0.60125 6.38935,-0.87964 9.47448,-1.77812c3.64806,-1.06242 7.53441,-3.92647 10.90378,-5.66924c7.25196,-3.75102 14.72621,-7.19955 21.54482,-11.69618c0.20072,-0.13237 8.49166,-5.60031 8.56777,-5.63045c2.2942,-0.90836 4.91457,-2.63701 7.20189,-1.71145c1.38074,0.55871 1.09843,7.82417 1.09843,9.07017c0,9.36101 0.67877,18.50902 1.5666,27.83055c0.47636,5.0018 1.13823,10.03448 1.43054,15.05001c0.44815,7.68954 -0.37157,15.45013 0.0146,23.143c0.49983,9.95715 2.27589,19.86168 2.98255,29.80772c0.80407,11.31702 0.85665,22.76967 1.17172,34.11088c0.94506,34.02227 0.83398,68.02366 0.83398,102.05785c0,14.66409 0.38113,29.32281 0.66994,43.98385c0.26091,13.24498 0.49822,26.4178 1.94367,39.57721c0.23202,0.35085 0.38639,0.81771 0.38639,1.43894c0,0.33159 -0.04398,0.6192 -0.12028,0.86866c0.0331,0.27375 0.06675,0.5475 0.10097,0.82125c0,0 0.31009,2.48069 -2.17061,2.79078c-2.48069,0.31009 -2.79078,-2.17061 -2.79078,-2.17061c-0.02009,-0.16072 -0.03999,-0.32144 -0.0597,-0.48217l-0.22737,-0.06015c-3.92898,-3.92898 -8.40013,-6.37325 -13.19613,-9.20692c-6.1342,-5.77412 -13.03268,-10.37147 -19.60042,-15.61074c-3.51992,-2.80794 -6.58494,-6.15515 -10.02065,-9.01675c-3.08967,-2.57338 -6.56874,-4.40845 -9.81437,-6.72734c-12.94906,-9.25167 -23.38063,-21.9608 -33.8925,-33.72433c-13.10395,-11.06027 -27.5038,-21.76751 -38.64152,-34.89671c-2.83558,-3.3426 -5.35059,-7.01776 -8.31548,-10.30286c-7.17568,-7.95064 -15.29426,-15.30517 -23.18048,-22.53573c-13.98367,-12.82107 -32.26527,-22.05367 -40.81648,-39.64801c-1.06472,-2.1907 -1.15407,-4.74281 -1.46797,-7.15823c-0.6367,-4.89926 -1.78601,-10.37297 -1.51489,-15.33395c0.33547,-6.1384 2.22755,-12.95026 3.74738,-18.91166c-0.00116,-0.22877 -0.05188,-6.69639 0.01355,-7.095c0.38797,-2.36339 1.64692,-4.53417 1.98645,-6.905c1.18228,-8.25554 -0.77418,-17.33603 -1.01765,-25.62111c-0.35339,-12.02573 1.44066,-24.77004 -0.95253,-36.58314c0,0 -0.21432,-1.0716 0.34894,-1.93951c-0.17491,-0.04235 -0.34968,-0.08587 -0.52428,-0.13063l-1.3732,0.07985c0,0 -2.5,0 -2.5,-2.5z"/><path d="M446.78552,371.9541c0.36203,0.70203 0.31765,1.32312 0.12882,1.81961c-0.13453,0.51231 -0.45796,1.04195 -1.15647,1.40272c-9.43525,6.862 -19.3085,14.04255 -28.74376,20.90455c-1.58033,1.09882 -2.92961,2.64553 -4.741,3.29647c-1.49778,0.53825 -3.18167,0.10259 -4.77311,0.12254c-2.66646,0.03343 -5.33333,0 -8,0c-4.58673,0 -9.78429,0.63455 -14.32759,-0.02156c-3.29601,-0.47599 -6.24911,-2.31997 -9.44458,-3.25766c-5.80264,-1.70275 -11.61085,-2.75938 -17.34594,-4.98473c-4.99515,-1.93823 -10.87716,-6.28379 -16.31403,-6.68626c-5.93357,-0.43924 -12.45939,1.67414 -18.31481,2.51087c-24.72931,3.53276 -49.15139,7.10476 -74.1089,8.76861c-4.81752,0.32117 -10.66195,1.50096 -15.44961,0.652c-1.96564,-0.34855 -4.33334,-0.45554 -5.66506,-1.94274c-1.1038,-1.23267 -0.33147,-3.29266 -0.49721,-4.93899c0.71937,-2.15811 0.85261,-4.4832 0.97255,-6.75489c0.14089,-2.66851 0.82634,-5.28764 0.99758,-7.95437c0.37972,-5.91353 -0.96323,-11.90797 -1.20105,-17.80634c-0.44433,-11.02041 -1.37833,-22.03068 -1.79953,-33.0405c-0.38225,-9.99176 0.09852,-20.0309 -0.15303,-30.03119c-0.41219,-16.40875 -1.16699,-32.30998 1.54123,-48.55931c0.10884,-0.65303 1.65402,-10.02628 1.78515,-10.37229c0.5458,-1.44021 1.45747,-2.76999 2.55706,-3.84842c2.43855,-2.39164 5.26654,-3.70541 8.72448,-2.54193c1.11942,0.37665 1.69587,1.65135 2.62826,2.37634c1.81386,1.41039 3.91438,2.55313 5.34838,4.34838c2.366,2.96205 3.17421,5.98082 4.31243,9.48659c2.47992,3.67955 4.63733,7.2832 5.23548,11.79292c0.17115,1.29037 -0.18982,2.61532 -0.01355,3.905c0.65959,4.82589 3.67826,10.07294 5.77807,14.30208c2.20483,4.44064 5.64612,8.70067 8.68757,12.51341c2.23867,2.80638 3.73137,6.2225 6,9c4.60653,5.6398 10.00032,9.99421 14.10749,16.14104c2.70235,3.60313 5.60841,7.3255 8.06529,11.09701c3.42523,5.25801 5.82474,10.8177 9.82749,15.76228c0.80141,0.98998 1.81044,1.81038 2.54137,2.85349c0.80877,1.1542 0.90245,2.87924 2.04949,3.69812c1.0796,0.77074 2.62772,0.36658 3.93756,0.5761c2.75625,0.44088 5.49793,0.96845 8.24688,1.45276c14.77459,2.60297 29.37398,3.47998 44.3557,3.52059c4.8734,0.07798 10.88614,-0.19909 15.61941,1.07898c1.50058,0.40518 2.72873,1.51208 4.18332,2.05988c0.78987,0.29747 7.29649,1.70818 7.89033,1.83999c9.20831,2.04402 18.47521,3.45969 27.76243,5.06019c6.19028,1.06679 13.79618,0.94916 17.6065,7.1302c0.60665,0.98411 0.80219,2.1648 1.15889,3.26843z"/></g></g></svg>