<svg version="1.1" xmlns="http://www.w3.org/2000/svg" xmlns:xlink="http://www.w3.org/1999/xlink" width="524.2335" height="412.49468" viewBox="0,0,524.2335,412.49468"><g transform="translate(27.84305,27.77627)"><g data-paper-data="{&quot;isPaintingLayer&quot;:true}" fill="#8ba936" fill-rule="nonzero" stroke="none" stroke-width="0.5" stroke-linecap="butt" stroke-linejoin="miter" stroke-miterlimit="10" stroke-dasharray="" stroke-dashoffset="0" style="mix-blend-mode: normal"><path d="M139.01726,250.70673c-0.01055,-5.92971 2.00698,-12.37818 1.01502,-18.30628c-0.67766,-4.04976 -2.34575,-7.94345 -3,-12c-0.88581,-5.49229 -0.03228,-11.85235 -0.03228,-17.40046c0,-12.43507 -0.02517,-24.87047 0.01873,-37.30546c0.95183,-3.8073 0.87553,-6.82927 0.98127,-10.69454c0.03611,-1.31993 -0.33365,-2.74468 0.1903,-3.95671c2.82489,-6.5346 11.97647,-5.53036 17.41254,-7.20691c2.55923,-0.7893 4.70354,-2.7893 7.33768,-3.27298c2.92322,-0.53676 5.91102,0.62711 8.86493,0.95532c1.65647,0.18405 3.34426,-0.19054 5,0c7.55976,0.86995 15.68236,4.34928 20.2422,10.5331c0.23034,0.31238 4.46587,8.436 4.78046,9.03719c2.59272,9.60737 6.11358,19.71733 7.15774,29.64543c1.00915,9.59513 -0.49194,19.52524 0.01198,29.16165c0.43492,8.31688 1.66756,16.60224 1.99404,24.9262c0.17954,4.57771 0.05327,8.35878 0.70575,12.90991c0.30728,9.28519 -0.93818,18.2672 -1.70614,27.47399c-0.36183,4.33787 -1.72148,8.62121 -1.99805,12.97487c-0.00691,0.10873 0.03238,6.85916 -0.02572,7.21938c-0.16784,1.04064 -0.82049,1.9613 -1,3c-0.36969,2.13913 -0.26566,3.96723 -0.42362,5.893c0.16861,0.05688 0.32618,0.1049 0.47085,0.14224c6.1041,1.57582 13.21205,1.644 19.48481,2.25992c7.09238,0.6964 14.6538,0.68754 21.6507,1.83665c1.01132,0.16609 1.89046,0.90212 2.91178,0.98729c7.06026,0.58878 14.58467,-1.60515 21.61533,-2.01853c11.33511,0.01014 22.65211,2.42222 34.01918,2.85772c18.01087,0.69004 36.26579,-1.12564 54.23047,0.14752c4.9733,0.35246 10.03606,1.30155 14.9958,1.88379c9.16948,1.07643 18.40632,2.69159 27.67163,2.11475c6.05863,-0.3772 12.81098,-0.96806 18.75489,-1.97255c1.03936,-0.17565 1.95936,-0.83216 3,-1c11.35322,-1.83108 22.77503,2.81644 34.095,-0.01355c2.32502,0.00807 4.60963,-0.61625 6.905,-0.98645c3.88896,-0.62722 8.45526,-0.05218 12.40046,-0.03228c2.70257,0.01363 5.10809,-0.30959 7.51748,1.51323c1.15625,0.87476 1.66678,2.37306 2.52336,3.54284c0.79498,1.08564 4.82461,6.18919 5.35188,7.71947c0.36104,1.04783 -0.11074,2.23139 0.07499,3.324c0.73679,4.33442 1.43475,8.6898 2.01355,13.095c0.50243,3.82397 -0.28177,3.76926 -1,7.61092c-0.26429,1.41366 0.54052,3.33952 -0.54791,4.27951c-2.71278,2.34281 -8.55679,1.89068 -11.83255,1.90302c-2.77449,0.00411 -5.56558,0.30503 -8.32348,0.00207c-4.79303,-0.52652 -9.42872,-2.38461 -14.13018,-3.01509c-6.21119,-0.83294 -13.28556,0.37256 -19.53524,0.62255c-6.57925,0.26317 -13.3482,-0.12963 -19.89235,0.39446c-13.06202,1.04608 -26.3411,4.23804 -39.27144,6.38918c-13.17318,2.19155 -26.01729,5.68295 -39.13469,8.03641c-21.32782,3.82652 -43.23211,5.66814 -64.72359,8.45642c-6.66459,0.04643 -13.649,0.66925 -20.28851,0.1181c-5.25344,-0.43609 -9.51412,-2.69567 -14.48157,-4.08642c-7.38356,-2.06719 -15.24153,-3.55895 -22.7845,-4.94925c-14.78116,-2.72443 -29.61997,-4.77716 -44.34774,-7.82855c-17.38401,-3.60527 -35.19453,-4.88519 -52.63496,-8.16824c-5.95304,-1.12062 -11.88346,-3.07713 -17.85801,-3.97836c-2.00915,-0.30307 -5.71529,0.50381 -7.26361,0.73955c-6.59071,1.00345 -13.18288,1.99741 -19.77431,2.99611c-19.77431,2.99611 -39.54862,5.99222 -59.32293,8.98832c-5.99053,0.90766 -12.24799,2.51238 -18.32592,2.29474c-1.39839,-0.05007 -2.9957,0.43755 -4.18742,-0.2958c-5.457,-3.35812 -5.00734,-13.73608 -5.26807,-19.07188c-0.03675,-4.58657 1.34161,-8.00476 1.96644,-12.43777c0.14399,-1.02158 -0.15844,-2.07776 0.01355,-3.095c0.79553,-4.70523 3.20235,-9.30338 4,-14c0.43136,-2.53987 -0.03217,-5.6089 0,-8.19909l-0.90399,-2.60989c0,0 -0.79057,-2.37171 1.58114,-3.16228l0.00001,0.00003c2.37171,-0.79057 3.16228,1.58114 3.16228,1.58114l0.09394,0.29057c26.84478,0 53.68957,0 80.53435,0c17.73982,0 35.42983,0.36226 53.12374,0.93173c-0.28501,-20.0539 -0.61938,-40.20936 4.14353,-59.725z"/><path d="M-3.25,34.5c-1.82934,0 -2.32008,-1.33859 -2.45173,-2.05678c-0.04575,0.00755 -0.09151,0.01514 -0.13727,0.02277c0,0 -2.46598,0.411 -2.87698,-2.05499c-0.411,-2.46598 2.05499,-2.87698 2.05499,-2.87698c0.08139,-0.01356 1.4247,-0.23772 3.10368,-0.51749c0.83933,-3.01643 -3.43686,-6.63242 -4.77281,-8.62978c-3.92095,-5.86214 -8.93092,-10.87198 -12.10036,-17.16386c-0.76317,-1.2193 -1.529,-2.43694 -2.28951,-3.6579c-2.19677,-3.52681 -8.33063,-12.64957 -3.00614,-16.58266c1.48161,-1.09443 3.6607,-0.43242 5.49956,-0.53972c4.94492,-0.28855 9.90809,-0.3807 14.85958,-0.69017c9.70951,-0.60684 19.4117,-1.2246 29.13141,-1.63961c0.33038,-0.01411 10.07706,-0.4345 10.24904,-0.42428c1.68131,0.09997 3.30736,0.68076 4.98588,0.81982c4.79451,0.39722 9.87009,-0.0167 14.66453,-0.25713c13.32934,-0.66633 26.71749,-1.5974 40.06418,-1.75114c13.00082,-0.14976 26.10435,1.40814 39.09212,0.88003c8.24637,-0.33531 16.57767,-1.52798 24.82203,-2.13906c9.33237,-0.69173 18.63338,-2.09347 27.95247,-2.73623c14.69481,-1.01354 29.60272,0.91534 44.16689,2.57724c8.34181,0.95188 16.74391,1.15403 25.00727,2.66144c9.76508,1.78836 19.44707,4.47317 29.29431,5.77618c10.24412,1.35553 21.49545,1.72308 31.80201,0.95233c3.2588,-0.2437 6.3715,-1.50663 9.61188,-1.9298c9.82476,-1.28306 20.40769,0.96611 30.29832,0.94834c11.62261,-0.01822 23.30803,0.31816 34.92391,-0.0536c6.70221,-0.2145 13.33703,-0.93594 20.05076,-0.93695c15.1481,-0.00228 30.81511,1.14064 45.8347,-0.99377c12.20696,0.03411 25.69931,4.78472 31.41109,16.39539c2.63438,5.35507 1.26919,13.25556 1.25421,19.09838c-0.00891,3.4769 0.32861,5.90981 -1.3245,9.23175c-0.26864,0.53984 -4.80415,4.91056 -5.21879,5.07795c-2.602,1.05046 -9.33942,0.1903 -11.95671,0.1903c-11.36956,-0.04946 -21.6822,-4.66777 -32.72953,-6.99352c-6.0039,-1.26398 -11.8913,-2.92922 -17.87043,-4.24173c-2.59934,-0.57059 -5.31163,-0.41917 -7.9394,-0.83987c-4.54301,-0.72733 -8.99956,-2.18145 -13.44532,-3.18991c-6.43245,-1.45911 -12.94508,-2.1359 -19.38951,-3.76313c-5.8345,-0.30064 -11.74599,-0.97543 -17.58559,-0.97216c-11.06283,0.0062 -21.91718,2.65328 -32.79388,3.98816c-3.63944,0.44666 -7.61529,-0.08378 -11.26923,0.11414c-11.62041,0.62942 -23.13068,1.43676 -34.68403,2.88079c-6.02101,0.66912 -12.10808,1.67846 -18.15484,2.01341c-15.99727,0.88616 -32.31706,-0.3716 -48.26903,1.44356c-4.9157,0.55935 -9.75744,2.03894 -14.65187,2.77191c-6.60627,0.98933 -13.33216,1.48317 -19.97186,2.22091c-4.32949,0.481 -8.75747,1.24297 -13.0986,1.56313c-12.56584,0.92672 -25.76087,-0.92449 -38.33006,-1.54265c-16.59222,-0.81601 -33.18514,-1.61907 -49.77645,-2.45336c-11.29446,0.93714 -22.59101,1.84951 -33.88671,2.77161c-4.82933,0.39423 -9.94616,0.39192 -14.72335,1.1914c-3.07652,0.51487 -6.11825,1.28952 -9.22452,1.57437c-7.98405,0.73216 -15.80178,0.81617 -23.69308,1.71878c-0.15115,0.20711 -0.29724,0.41656 -0.4326,0.63092l0.41987,-0.38675c0,0 0,2.5 -2.5,2.5z"/><path d="M44,277c0,-6.90356 5.59644,-12.5 12.5,-12.5c6.90356,0 12.5,5.59644 12.5,12.5c0,6.90356 -5.59644,12.5 -12.5,12.5c-6.90356,0 -12.5,-5.59644 -12.5,-12.5z"/><path d="M241,65c0,-6.90356 5.59644,-12.5 12.5,-12.5c6.90356,0 12.5,5.59644 12.5,12.5c0,6.90356 -5.59644,12.5 -12.5,12.5c-6.90356,0 -12.5,-5.59644 -12.5,-12.5z"/><path d="M312,147c0,-6.90356 5.59644,-12.5 12.5,-12.5c6.90356,0 12.5,5.59644 12.5,12.5c0,6.90356 -5.59644,12.5 -12.5,12.5c-6.90356,0 -12.5,-5.59644 -12.5,-12.5z"/><path d="M238,195c0,-6.90356 5.59644,-12.5 12.5,-12.5c6.90356,0 12.5,5.59644 12.5,12.5c0,6.90356 -5.59644,12.5 -12.5,12.5c-6.90356,0 -12.5,-5.59644 -12.5,-12.5z"/><path d="M332,256c0,-6.90356 5.59644,-12.5 12.5,-12.5c6.90356,0 12.5,5.59644 12.5,12.5c0,6.90356 -5.59644,12.5 -12.5,12.5c-6.90356,0 -12.5,-5.59644 -12.5,-12.5z"/><path d="M413,173c0,-6.90356 5.59644,-12.5 12.5,-12.5c6.90356,0 12.5,5.59644 12.5,12.5c0,6.90356 -5.59644,12.5 -12.5,12.5c-6.90356,0 -12.5,-5.59644 -12.5,-12.5z"/><path d="M368,44c0,-6.90356 5.59644,-12.5 12.5,-12.5c6.90356,0 12.5,5.59644 12.5,12.5c0,6.90356 -5.59644,12.5 -12.5,12.5c-6.90356,0 -12.5,-5.59644 -12.5,-12.5z"/><path d="M311,69c0,-6.90356 5.59644,-12.5 12.5,-12.5c6.90356,0 12.5,5.59644 12.5,12.5c0,6.90356 -5.59644,12.5 -12.5,12.5c-6.90356,0 -12.5,-5.59644 -12.5,-12.5z"/><path d="M379,132c0,-6.90356 5.59644,-12.5 12.5,-12.5c6.90356,0 12.5,5.59644 12.5,12.5c0,6.90356 -5.59644,12.5 -12.5,12.5c-6.90356,0 -12.5,-5.59644 -12.5,-12.5z"/><path d="M411,245c0,-6.90356 5.59644,-12.5 12.5,-12.5c6.90356,0 12.5,5.59644 12.5,12.5c0,6.90356 -5.59644,12.5 -12.5,12.5c-6.90356,0 -12.5,-5.59644 -12.5,-12.5z"/><path d="M82,249c0,-6.90356 5.59644,-12.5 12.5,-12.5c6.90356,0 12.5,5.59644 12.5,12.5c0,6.90356 -5.59644,12.5 -12.5,12.5c-6.90356,0 -12.5,-5.59644 -12.5,-12.5z"/><path d="M37,202c0,-6.90356 5.59644,-12.5 12.5,-12.5c6.90356,0 12.5,5.59644 12.5,12.5c0,6.90356 -5.59644,12.5 -12.5,12.5c-6.90356,0 -12.5,-5.59644 -12.5,-12.5z"/><path d="M94,188c0,-6.90356 5.59644,-12.5 12.5,-12.5c6.90356,0 12.5,5.59644 12.5,12.5c0,6.90356 -5.59644,12.5 -12.5,12.5c-6.90356,0 -12.5,-5.59644 -12.5,-12.5z"/></g></g></svg>