<svg version="1.1" xmlns="http://www.w3.org/2000/svg" xmlns:xlink="http://www.w3.org/1999/xlink" width="82.51578" height="335.95051" viewBox="0,0,82.51578,335.95051"><g transform="translate(-72.18467,-21.97986)"><g data-paper-data="{&quot;isPaintingLayer&quot;:true}" fill-rule="nonzero" stroke="none" stroke-width="0.5" stroke-linecap="butt" stroke-linejoin="miter" stroke-miterlimit="10" stroke-dasharray="" stroke-dashoffset="0" style="mix-blend-mode: normal"><path d="M134.73424,85.9209c1.2287,1.29131 2.16435,3.3145 1.16794,6.30372c-2.05548,6.16644 -8.22192,4.11096 -8.22192,4.11096c-1.64549,-0.55424 -3.32514,-1.01586 -4.93647,-1.66273c-1.75843,-0.70592 -3.14075,-2.38386 -5.01196,-2.6821c-1.33426,-0.21266 -2.72308,0.33211 -4.0523,0.08995c-2.80041,-0.51019 -5.1948,-2.41632 -7.95972,-3.09295c-0.74702,-0.18281 -1.54528,0.25213 -2.3038,0.12518c-2.29646,-0.38435 -4.52941,-1.08215 -6.7883,-1.64687c-1.74525,-0.43631 -3.44264,-1.10311 -5.22372,-1.35613c-1.71782,-0.24403 -3.50175,0.21217 -5.20371,-0.12518c-1.53803,-0.30486 -2.95496,-1.50704 -4.51261,-1.32762h-3.003c-3.58985,0 -6.5,-2.91015 -6.5,-6.5c0,-1.79493 0.72754,-3.41993 1.90381,-4.59619v0l2.62004,-2.62004c1.0111,-1.95433 2.20213,-3.76355 3.68045,-5.16418c1.77689,-1.68352 4.52396,-1.96836 6.50711,-3.40317c2.04726,-1.4812 3.36902,-4.66599 4.7799,-6.35536c1.96182,-2.34906 4.73997,-3.88013 7.23211,-5.65665c2.77928,-1.98121 4.17256,-5.40661 6.39767,-7.99475c1.24936,-1.45319 2.59153,-2.85181 4.11284,-4.01727c0.62353,-0.47768 1.65201,-0.26921 2.20743,-0.82462c0.55541,-0.55541 0.33654,-1.592 0.82462,-2.20743c2.85141,-3.59535 4.45644,-4.82867 8.37219,-6.51766c1.92883,-0.83197 3.81776,-2.37629 5.90989,-2.18772c11.88491,1.07119 10.39876,12.48664 12.45731,20.72082c0,6.28659 2.79295,12.46296 1.37632,18.8041c-0.24401,1.09223 -1.23007,1.91726 -1.5015,3.003c-0.24278,0.97111 0.26221,2.03695 0,3.003c-0.42383,1.56149 -1.32107,2.95432 -2.01384,4.4165c-0.74565,1.57377 -2.04761,2.90834 -2.49066,4.59251c-0.38297,1.45579 0.17388,3.00729 0.17388,4.51261z" fill="#ff0000"/><path d="M131.33336,23.31164c5.81378,-4.75634 8.72067,4.75634 8.72067,4.75634l2.01384,7.2264c0,1.63787 -0.24278,3.32464 0,4.9136c0.27143,1.77652 1.2575,3.12647 1.5015,4.9136c0.43649,3.19693 -0.50933,6.65926 0,9.82721c0.56945,3.54188 2.51719,6.25213 3.003,9.82721c0.37659,2.7713 -0.12399,5.70491 0.12518,8.51446c0.54622,6.15889 1.51525,12.27395 1.5502,18.49709c0,10.96792 0.72193,22.78597 -0.08393,33.64204c-0.19083,2.5708 -1.16258,4.84078 -1.5015,7.3704c-0.70648,5.27301 0.08393,12.51017 0.08393,17.95079c0,8.76051 -1.01096,19.25228 -0.08393,27.778c0.27723,2.54966 1.25487,4.81234 1.5015,7.3704c0.38995,4.04465 -0.53588,8.28432 0,12.28401c0.33892,2.52962 1.21289,4.82413 1.5015,7.3704c0.47135,4.15851 -0.30549,8.49562 0.03523,12.68815c0.497,6.11551 1.36641,8.21931 2.87782,13.59675c0.10253,4.33834 -0.37482,8.74946 0.08995,13.02393c0.27723,2.54966 1.25487,4.81234 1.5015,7.3704c0.62963,6.53066 0.81391,19.63837 -0.08995,26.25837c-0.24401,1.78714 -1.22582,3.13884 -1.5015,4.9136c-0.20957,1.3492 0.25686,2.80864 0.08995,4.17368c-0.3105,2.53937 -1.23896,4.81658 -1.5015,7.3704c-0.27411,2.66643 0.23404,5.45891 -0.08995,8.11032c-0.21942,1.79565 -1.18563,3.15686 -1.5015,4.9136c-0.80095,4.45455 0.57321,11.00038 0.14225,15.80207c-0.71896,8.0104 -3.24608,15.73633 -2.97137,23.52002c0,0 0,10.63549 -6.5,10.63549c-6.5,0 -6.5,-10.63549 -6.5,-10.63549c0.05796,-3.27131 -0.20461,-6.60038 0.17388,-9.81394c0.25166,-2.13675 1.30172,-3.83522 1.67944,-5.92167c0.58252,-3.2177 0.90322,-6.55549 1.18131,-9.8804c0.50574,-6.04688 -0.68052,-12.56706 0.14225,-18.59315c0.24401,-1.78714 1.28194,-3.118 1.5015,-4.9136c0.26506,-2.16775 -0.30986,-4.44926 -0.08995,-6.63049c0.25761,-2.55516 1.1912,-4.83097 1.5015,-7.3704c0.22588,-1.84856 -0.18571,-3.82313 0.08995,-5.65352c0.26777,-1.778 1.18563,-3.15686 1.5015,-4.9136c0.42486,-2.36291 -0.17388,-4.92062 -0.17388,-7.38367c0,-3.52709 0.46151,-7.10783 0.08393,-10.58039c-0.27723,-2.54966 -1.25487,-4.81234 -1.5015,-7.3704c-0.45586,-4.72824 -0.19568,-7.48658 0.08995,-11.54409c-1.6778,-4.83849 -2.62631,-10.38276 -3.12818,-15.88487c-0.35725,-3.91662 0.55349,-8.01173 0.03523,-11.87987c-0.33892,-2.52962 -1.21289,-4.82413 -1.5015,-7.3704c-0.45633,-4.02602 0.43834,-8.25264 0,-12.28401c-0.27723,-2.54966 -1.25487,-4.81234 -1.5015,-7.3704c-0.95061,-9.85997 -0.08393,-21.14426 -0.08393,-31.18523c0,-6.74067 -0.66541,-14.74686 0.08393,-21.35803c0.28861,-2.54628 1.29868,-4.80206 1.5015,-7.3704c0.76404,-9.67514 -0.08393,-20.43768 -0.08393,-30.2348c0.04298,-5.35783 -0.99787,-10.5918 -1.4528,-15.89813c-0.1763,-2.05644 0.32587,-4.1759 0.12518,-6.22635c-0.35395,-3.6163 -2.46944,-6.2704 -3.003,-9.82721c-0.47724,-3.1813 0.56505,-6.68465 0,-9.82721c-0.31587,-1.75674 -1.23007,-3.13709 -1.5015,-4.9136c-0.24278,-1.58897 0,-3.27574 0,-4.9136l-0.98916,-2.6008c0,0 -2.90689,-9.51267 2.90689,-14.26901z" fill="#80ff00"/></g></g></svg>