<svg version="1.1" xmlns="http://www.w3.org/2000/svg" xmlns:xlink="http://www.w3.org/1999/xlink" width="124.13104" height="400.36642" viewBox="0,0,124.13104,400.36642"><g transform="translate(-7.18467,12.02669)"><g data-paper-data="{&quot;isPaintingLayer&quot;:true}" fill-rule="nonzero" stroke="none" stroke-width="0.5" stroke-linecap="butt" stroke-linejoin="miter" stroke-miterlimit="10" stroke-dasharray="" stroke-dashoffset="0" style="mix-blend-mode: normal"><path d="M69.73424,41.25719c1.2287,1.07609 2.16435,2.76207 1.16794,5.25307c-2.05548,5.13867 -8.22192,3.42578 -8.22192,3.42578c-1.64549,-0.46186 -3.32514,-0.84654 -4.93647,-1.3856c-1.75843,-0.58826 -3.14075,-1.98654 -5.01196,-2.23507c-1.33426,-0.17722 -2.72308,0.27676 -4.0523,0.07496c-2.80041,-0.42516 -5.1948,-2.01359 -7.95972,-2.57744c-0.74702,-0.15234 -1.54528,0.21011 -2.3038,0.10432c-2.29646,-0.32029 -4.52941,-0.90179 -6.7883,-1.37238c-1.74525,-0.36359 -3.44264,-0.91925 -5.22372,-1.1301c-1.71782,-0.20336 -3.50175,0.17681 -5.20371,-0.10432c-1.53803,-0.25405 -2.95496,-1.25586 -4.51261,-1.10634h-3.003c-3.58985,0 -6.5,-2.42511 -6.5,-5.41663c0,-1.49577 0.72754,-2.84992 1.90381,-3.83014v0l2.62004,-2.18335c1.0111,-1.6286 2.20213,-3.13627 3.68045,-4.30346c1.77689,-1.40292 4.52396,-1.64029 6.50711,-2.83596c2.04726,-1.23433 3.36902,-3.8883 4.7799,-5.2961c1.96182,-1.95754 4.73997,-3.23342 7.23211,-4.71385c2.77928,-1.651 4.17256,-4.50548 6.39767,-6.66225c1.24936,-1.21098 2.59153,-2.37649 4.11284,-3.3477c0.62353,-0.39806 1.65201,-0.22434 2.20743,-0.68718c0.55541,-0.46284 0.33654,-1.32666 0.82462,-1.83951c2.85141,-2.99611 4.45644,-4.02387 8.37219,-5.43135c1.92883,-0.6933 3.81776,-1.98023 5.90989,-1.82309c11.88491,0.89265 10.39876,10.40547 12.45731,17.26725c0,5.23879 2.79295,10.38574 1.37632,15.66999c-0.24401,0.91019 -1.23007,1.59771 -1.5015,2.50248c-0.24278,0.80925 0.26221,1.69745 0,2.50248c-0.42383,1.30123 -1.32107,2.46192 -2.01384,3.68039c-0.74565,1.31147 -2.04761,2.4236 -2.49066,3.82707c-0.38297,1.21315 0.17388,2.50606 0.17388,3.76049z" fill="#ff0000"/><path d="M66.33337,-10.91688c5.81378,-3.96359 8.72067,3.96359 8.72067,3.96359l2.01384,6.02196c0,1.36488 -0.24278,2.77052 0,4.09464c0.27143,1.48042 1.2575,2.60538 1.5015,4.09464c0.43649,2.66409 -0.50933,5.54935 0,8.18929c0.56945,2.95155 2.51719,5.21008 3.003,8.18929c0.37659,2.3094 -0.12399,4.75406 0.12518,7.09534c0.54622,5.13238 1.51525,10.22823 1.5502,15.41415c0,9.13988 0.72193,18.98819 -0.08393,28.03486c-0.19083,2.14232 -1.16258,4.03396 -1.5015,6.14196c-0.70648,4.39415 0.08393,10.42508 0.08393,14.9589c0,7.30038 -1.01096,16.04347 -0.08393,23.14819c0.27723,2.1247 1.25487,4.01026 1.5015,6.14196c0.38995,3.37052 -0.53588,6.90356 0,10.23661c0.33892,2.108 1.21289,4.02008 1.5015,6.14196c0.47135,3.4654 -0.30549,7.07964 0.03523,10.57339c0.497,5.09623 1.36641,6.84938 2.87782,11.33056c0.10253,3.61526 -0.37482,7.29117 0.08995,10.85321c0.27723,2.1247 1.25487,4.01026 1.5015,6.14196c0.62963,5.44218 0.81391,16.36521 -0.08995,21.88184c-0.24401,1.48927 -1.22582,2.61568 -1.5015,4.09464c-0.20957,1.12433 0.25686,2.34052 0.08995,3.47805c-0.3105,2.11613 -1.23896,4.01379 -1.5015,6.14196c-0.27411,2.22201 0.23404,4.54906 -0.08995,6.75856c-0.21942,1.49637 -1.18563,2.6307 -1.5015,4.09464c-0.80095,3.7121 0.57321,9.16693 0.14225,13.16831c-0.71896,6.67529 -3.24608,13.11353 -2.97137,19.5999c0,0 0,8.86285 -6.5,8.86285c-6.5,0 -6.5,-8.86285 -6.5,-8.86285c0.05796,-2.72608 -0.20461,-5.50028 0.17388,-8.17823c0.25166,-1.78061 1.30172,-3.196 1.67944,-4.9347c0.58252,-2.6814 0.90322,-5.46288 1.18131,-8.23362c0.50574,-5.03904 -0.68052,-10.47249 0.14225,-15.4942c0.24401,-1.48927 1.28194,-2.59832 1.5015,-4.09464c0.26506,-1.80645 -0.30986,-3.70769 -0.08995,-5.52537c0.25761,-2.12929 1.1912,-4.02578 1.5015,-6.14196c0.22588,-1.54046 -0.18571,-3.18592 0.08995,-4.71124c0.26777,-1.48166 1.18563,-2.6307 1.5015,-4.09464c0.42486,-1.96908 -0.17388,-4.10049 -0.17388,-6.15302c0,-2.93922 0.46151,-5.92316 0.08393,-8.81694c-0.27723,-2.1247 -1.25487,-4.01026 -1.5015,-6.14196c-0.45586,-3.94018 -0.19568,-6.23878 0.08995,-9.62002c-1.6778,-4.03205 -2.62631,-8.65225 -3.12818,-13.23731c-0.35725,-3.26383 0.55349,-6.6764 0.03523,-9.89983c-0.33892,-2.108 -1.21289,-4.02008 -1.5015,-6.14196c-0.45633,-3.355 0.43834,-6.87716 0,-10.23661c-0.27723,-2.1247 -1.25487,-4.01026 -1.5015,-6.14196c-0.95061,-8.21659 -0.08393,-17.62011 -0.08393,-25.98753c0,-5.61719 -0.66541,-12.28898 0.08393,-17.79825c0.28861,-2.12189 1.29868,-4.00169 1.5015,-6.14196c0.76404,-8.06257 -0.08393,-17.0313 -0.08393,-25.19551c0.04298,-4.46483 -0.99787,-8.82645 -1.4528,-13.24836c-0.1763,-1.71369 0.32587,-3.4799 0.12518,-5.18859c-0.35395,-3.01357 -2.46944,-5.2253 -3.003,-8.18929c-0.47724,-2.65107 0.56505,-5.57051 0,-8.18929c-0.31587,-1.46394 -1.23007,-2.61423 -1.5015,-4.09464c-0.24278,-1.32413 0,-2.72977 0,-4.09464l-0.98916,-2.16732c0,0 -2.90689,-7.92718 2.90689,-11.89077z" fill="#80ff00"/><path d="M130.9677,359.8308c-1.88989,10.1477 -9.79027,17.17192 -18.24986,21.78285c-16.75319,9.13139 -38.70279,6.31668 -57.21786,6.3167c-7.94182,0 -15.6245,-0.30095 -23.39417,-2.09838c-1.37939,-0.31911 -6.54381,-1.35627 -7.92016,-2.27499c-4.66333,-3.11283 -5.58055,-8.14947 -8.58193,-12.40561c-0.30227,-0.42864 -0.64306,-0.82288 -1.00379,-1.19861c-0.21625,-0.00305 -0.45121,-0.03329 -0.7063,-0.09706c-1.63721,-0.4093 -1.89295,-1.6475 -1.88626,-2.409c-0.94157,-0.99877 -1.72013,-2.12694 -1.98528,-3.68452c-0.23876,-1.40257 0.73745,-2.74827 1.10617,-4.1224l1.13564,-2.32746c0,0 0.65346,-1.30692 1.96038,-1.42288c0.52914,-7.57219 -0.72468,-15.22408 0.51538,-22.81115c0.84664,-5.18 2.67381,-9.5639 4.4023,-14.47846c3.73812,-10.6285 7.64693,-20.65649 13.2295,-30.48074c2.11441,-3.15412 2.99025,-6.78433 4.9642,-9.94003c2.35089,-3.7583 5.49896,-6.91669 8.23096,-10.33368c2.46023,-3.07707 5.10924,-7.44084 8.61903,-9.54165c2.70172,-1.61714 7.80841,-2.8313 10.91387,-3.34109c2.00484,-0.32911 4.08481,0.2811 6.095,-0.01355c7.46435,-1.09411 15.31096,-2.14973 22.61979,0.35464c3.02099,2.90453 6.5649,5.83609 9.17263,9.09949c4.15209,5.19606 6.91096,11.9608 10.0624,17.78878c5.54261,10.24997 10.27495,21.41751 13.2905,32.81229c-1.42161,3.33006 -0.54127,6.85142 -0.54127,6.85142c0.93451,3.65763 1.24257,7.44741 1.83055,11.17647c0.42812,2.71519 1.79232,5.25912 2,8c0.18596,2.4543 -0.29221,4.93135 -0.08046,7.38355c0.20529,2.37743 1.20185,4.62192 1.76677,6.94245c0.00602,1.5497 -0.08528,3.06337 -0.34773,4.47262z" fill="#8ba936"/></g></g></svg>