<svg version="1.1" xmlns="http://www.w3.org/2000/svg" xmlns:xlink="http://www.w3.org/1999/xlink" width="484.11499" height="414.0909" viewBox="0,0,484.11499,414.0909"><g transform="translate(1.96117,24.06809)"><g data-paper-data="{&quot;isPaintingLayer&quot;:true}" fill="#8ba936" fill-rule="nonzero" stroke="none" stroke-width="0.5" stroke-linecap="butt" stroke-linejoin="miter" stroke-miterlimit="10" stroke-dasharray="" stroke-dashoffset="0" style="mix-blend-mode: normal"><path d="M341.66569,266.73174c11.57276,-12.80206 22.07273,-26.35922 32.84031,-39.80935c3.12314,-4.37413 7.01523,-8.46074 9.9405,-12.91792c5.17857,-7.89047 8.69247,-16.32275 15.22911,-23.28338c2.23572,-2.38073 4.71787,-4.5712 7.44152,-6.37343c1.21679,-0.80515 2.74528,-1.08151 3.92109,-1.9454c1.36419,-1.00229 2.2212,-2.60021 3.60088,-3.58107c1.92942,-1.37168 4.43754,-1.83271 6.27593,-3.32418c4.14902,-3.36606 8.43585,-7.55476 13.48659,-9.31243c3.23003,-2.17696 6.76474,-4.54896 10.69792,-5.22193c0.22899,-0.03918 5.94692,-0.03457 6.40046,-0.03228c2.73766,0.01381 4.81226,-0.29675 7.31433,1.37337c2.54599,1.69944 5.39936,5.65477 7.28048,8.03993c5.33293,6.76191 9.87046,14.01057 11.83765,22.50951c1.16803,5.04629 0.88362,10.3329 0.9984,15.46832c0.12699,5.68189 0.66486,11.3513 1.06756,17.01975c0,9.74158 -1.01712,19.49259 -1.58995,29.21866c-0.29355,4.98426 0.07885,10.13609 -0.40943,15.08924c-0.99676,10.11119 -4.61654,19.66792 -6.82958,29.49962c-0.94451,4.19611 -0.89171,8.94482 -2.28065,13.01889c-1.65179,4.84507 -4.37334,9.6522 -6.6231,14.24081c-5.34546,6.21516 -11.13833,12.03841 -16.68006,18.08273c-2.82213,3.07808 -5.28781,6.88076 -8.32778,9.71677c-4.44574,4.14745 -9.4581,7.56682 -14.40931,11.03813c1.75718,1.74435 3.51435,3.4887 5.27153,5.23305c1.59367,-0.41404 3.19386,-0.80906 4.74315,-1.32652l3,-1c0,0 2.37171,-0.79057 3.16228,1.58114l0.00002,0.00001c0.79057,2.37171 -1.58114,3.16228 -1.58114,3.16228l-3,1c-0.80579,0.26809 -1.6265,0.50227 -2.45316,0.72346c0.30016,0.67853 0.42538,1.67028 -0.56318,2.66611c-1.76128,1.77423 -3.53551,0.01295 -3.53551,0.01295c-0.41061,-0.40762 -0.82122,-0.81523 -1.23184,-1.22285c-0.6951,0.22482 -1.38037,0.47319 -2.05017,0.75831c-1.49354,0.63577 -2.82151,1.67766 -4.38233,2.12342c-1.01736,0.29055 -2.13044,-0.14027 -3.17393,0.0346c-1.03705,0.17379 -1.95501,0.82616 -2.99227,0.99873c-2.55453,0.42501 -5.21575,0.24739 -7.7125,0.9348c-5.43512,1.49641 -10.91337,2.63306 -16.59065,3.08953c-5.31015,0.42695 -10.15852,-0.34607 -15.35138,-1.00295c-6.77882,-0.85749 -14.73568,-0.31448 -21.50816,0.44472c-7.68594,0.84592 -15.34894,2.85848 -22.81212,4.88922c-1.88301,0.51237 -3.66126,1.76325 -5.6106,1.67194c-1.72366,-0.08073 -3.08982,-1.55245 -4.70667,-2.15518c-4.47457,-1.66804 -8.94108,-2.4183 -13.37045,-4.38464c-9.1471,-4.06069 -18.00203,-8.72679 -27.12227,-12.81404c-1.61004,-0.72154 -3.35397,-1.14907 -4.90363,-1.99254c-2.37393,-1.29212 -4.11853,-3.50353 -6.2476,-5.16851c-2.24196,-1.75326 -4.6329,-3.30717 -6.94881,-4.96151c-3.87265,-2.94433 -5.91875,-5.88711 -9.29112,-9.24954c-5.49419,-5.47798 -11.48608,-10.72205 -15.40273,-17.52722c-3.25746,-5.65983 -4.87771,-12.25298 -7.99405,-17.98964c-1.97663,-3.63865 -5.14423,-7.03456 -7.58052,-10.37734c-4.90825,-6.7345 -9.8165,-13.46901 -14.72475,-20.20351c-3.64244,-4.99793 -7.37401,-9.92013 -11.08348,-14.8534c-6.21995,6.0042 -13.03254,11.27889 -19.3231,17.20257c-13.33224,12.54799 -27.20718,24.3214 -41.13555,36.1734c-6.31512,5.37369 -13.30602,10.02785 -19.46975,15.5719c-6.11585,5.50098 -11.67754,11.80482 -17.46541,17.65283c-0.32691,0.3303 -7.11943,7.20565 -7.31563,7.35214c-5.22412,3.9005 -12.18745,6.56535 -17.94113,9.64997c-4.27578,2.29229 -9.01398,5.69958 -13.59956,7.25204c-0.25715,0.08706 -9.7672,1.61855 -10.27256,1.7005c-4.93553,0.80036 -9.87105,1.60071 -14.80658,2.40107c-6.77098,1.098 -12.5769,1.51506 -19.41645,1.15508c-0.7897,-0.04156 -10.22451,-0.51188 -10.64189,-0.64927c-1.60793,-0.52929 -2.79977,-1.90358 -4.19966,-2.85537c-2.62281,-7.29137 -1.27929,-13.82534 0.42649,-21.20768c1.103,-4.77359 2.36583,-9.72262 4.25218,-14.27039c1.11496,-2.68802 2.5065,-4.32183 3.60607,-7.14201c2.37746,-6.0977 4.2462,-12.52759 6.34598,-18.7335c2.895,-8.55623 7.85637,-16.12122 11.1779,-24.45c3.9965,-9.98869 8.76002,-19.01553 14.15846,-28.24446c2.45798,-4.20204 2.09233,-4.93933 5.04917,-9.00798c3.69329,-5.08202 8.58646,-9.31578 13.34309,-13.35923c7.83885,-6.66354 15.54502,-13.41447 22.42436,-21.05818c7.26796,-8.07274 15.54414,-15.60745 21.77704,-24.56807c8.9156,-12.81737 15.35954,-27.54238 20.21345,-42.38952l-0.28743,-1.08646c0,0 0,-1.66609 1.36012,-2.27803c0.25296,-0.81358 0.50135,-1.62713 0.74531,-2.44034c0,0 0.71837,-2.39457 3.11294,-1.6762c0.77936,0.23381 1.22897,0.64518 1.48091,1.09377c0.5639,-4.73296 1.92569,-9.52232 5.02116,-13.19019c3.22535,-3.82175 7.56913,-5.5353 11.83498,-7.66082c1.81737,-0.90553 4.55422,-3.55082 6.37392,-4.14694c1.18028,-0.38666 2.48297,-0.07151 3.72446,-0.10727c1.52479,0.02229 3.09628,-0.30824 4.57438,0.06688c7.16552,1.81848 12.06366,8.4519 16.35897,13.84815c0.9883,1.24161 3.41548,3.00782 4.19327,4.27064c0.55279,0.89751 0.47052,2.08854 1,3c2.48558,4.27878 8.91001,7.14279 12.62642,10.11521c8.94777,7.15649 16.81994,15.24709 25.81016,22.24511c9.00833,9.11433 17.18339,18.84044 27.02177,27.02066c3.11599,2.59082 6.54013,4.48337 9.901,6.7c5.56338,3.66927 10.44644,8.38255 15.93311,12.17515c6.79311,4.69566 14.05283,8.81407 21.11584,13.08488c12.69769,12.46865 25.32939,25.00585 37.94515,37.55915c3.3217,-2.64838 6.69305,-5.23812 9.53183,-8.37844zM127.68356,156.07206c0.20348,0.20345 0.4051,0.40624 0.60466,0.60923c0.04338,-1.14632 0.08324,-2.08095 0.10024,-2.50994c0.00545,-0.13755 0.01137,-0.27544 0.01779,-0.41366c-0.23687,0.77146 -0.47773,1.543 -0.72269,2.31438z"/><path d="M121.14443,-6.67022c5.34294,-3.43609 11.02781,-6.54103 16.70967,-9.37156c3.9764,-1.98092 7.71016,-2.71829 11.94693,-3.92816c3.87563,-1.10675 7.25461,-2.60204 11.34963,-3.06752c7.75381,-0.88138 15.69372,-1.03467 23.50468,-1.02735c33.9864,4.21596 67.8772,9.33639 102.00484,12.30401c5.99507,0.52131 11.81789,0.69116 17.83982,0.69116c3.64753,0 8.77729,-0.61369 12.40046,0.03228c10.0671,1.79486 18.32358,8.21208 28.09194,10.9965c12.281,3.50063 24.97414,4.75167 36.82709,9.65543c2.08374,0.8698 4.0248,1.94475 5.88238,3.1472c0.24706,-0.50504 0.50864,-1.00325 0.7897,-1.49223c3.64215,-6.33644 10.68463,-10.78937 12.91649,-17.84356c1.22759,-1.85974 2.34461,-3.79483 3.37441,-5.77262c-0.36707,-1.22357 -0.75674,-2.52248 -1.08645,-3.62151l-0.00002,0.00002c-0.3493,-2.33328 -2.17928,-4.92952 -1.04791,-6.99983c0.87812,-1.60687 3.57504,-0.98126 5.40619,-0.97539c1.0589,0.00339 1.97136,0.81986 3.01442,1.00238c4.07117,0.7124 8.72848,0.25954 12.88493,0.66297c4.98965,0.4843 10.12156,0.61475 15.07944,1.3313c4.56845,0.66026 9.16914,2.05806 13.6709,3.07151c7.945,1.7886 16.51665,4.45148 24.75229,4.84938c0.16089,-0.01299 0.33043,-0.00754 0.50796,0.02166c0.56499,0.02085 1.12829,0.03069 1.68961,0.02852c0,0 2.5,0 2.5,2.5c0,2.5 -2.5,2.5 -2.5,2.5c-0.20811,-0.00069 -0.41643,-0.00298 -0.62495,-0.00681c-2.65141,4.39503 -4.06628,9.47552 -6.37505,14.09698c-4.29469,8.59666 -9.26537,17.31034 -12.66563,26.30465c-2.32959,6.16219 -3.66721,12.76658 -5.70369,19.03424c-2.06392,6.35211 -4.42099,12.62589 -6.62863,18.92972c-1.90088,5.42787 -3.45519,11.26045 -5.64008,16.64169c-1.70354,0.53153 -3.35701,1.26569 -5.11762,1.53465c-14.02176,2.14202 -27.6178,5.83281 -41.47487,9.35594c-7.25633,2.87537 -14.45526,4.80464 -21.31682,8.53178c-4.20711,2.28526 -10.2139,2.00705 -14.65202,3.83801c-1.11102,0.45835 -1.9009,1.51376 -3,2c-3.7358,1.65271 -8.91098,2.5454 -12.91563,3.33934c-7.34449,1.45606 -17.78146,2.44487 -21.13535,10.65208c-0.16602,0.40627 -0.31609,0.83441 -0.45115,1.28242c-1.4082,0.12059 -2.82266,0.24615 -4.24614,0.36279c-3.95501,0.32408 -8.10988,-0.48639 -12.04916,0.01499c-1.65591,0.21076 -3.25368,0.77954 -4.9107,0.98137c-1.93435,0.2356 -3.92571,-0.35193 -5.84589,-0.02011c-1.04124,0.17993 -1.96247,0.84644 -3.00774,1.00124c-4.02091,0.59549 -4.36982,-0.55299 -8.63906,-0.98113c-4.86782,-0.48817 -10.13296,0.01109 -15.02645,-0.00276c-0.78449,-0.1716 -9.17722,-1.99789 -9.53498,-2.11917c-1.55508,-0.52714 -2.90115,-1.57341 -4.45764,-2.09638c-3.32816,-1.11824 -7.00882,-1.39491 -10.05249,-3.14511c-1.10913,-0.63778 -1.83664,-1.79627 -2.878,-2.53957c-2.65093,-1.89217 -5.63768,-3.48312 -7.72394,-5.98416c-3.14399,-3.76906 -5.51468,-8.27149 -8.88947,-11.87547c-2.06525,-2.2055 -4.66604,-3.84479 -6.8893,-5.89091c-7.86976,-7.24271 -15.19248,-15.21312 -22.02101,-23.39274c-7.5341,-9.04945 -16.24045,-17.06498 -24.02984,-25.88131c-4.03277,-4.56444 -8.30795,-10.07271 -11.40854,-15.29812c-0.7566,-1.27509 -1.06236,-2.78836 -1.84696,-4.04642c-3.64537,-5.84509 -8.36126,-11.38731 -12.61967,-16.90897c-3.99081,1.99136 -8.03801,3.9121 -12.07647,6.00959c-8.65217,4.49375 -17.6232,9.46592 -25.74909,14.85285c-6.86227,4.54924 -13.29396,9.9741 -19.88262,14.91478c-0.14987,0.1124 -8.03812,6.03027 -8.11764,6.08304c-3.82274,2.53666 -8.23415,4.30131 -11.96054,6.97399c-2.09534,1.50284 -3.85081,3.44406 -5.93946,4.95619c-3.44294,2.49261 -7.68886,4.25949 -10.94435,6.95722c-3.38228,2.80279 -6.65768,5.69428 -9.78362,8.80736c-1.80544,1.79802 -3.49257,3.76183 -6.04331,4.62496c-1.17647,0.3981 -2.48251,0.09581 -3.72446,0.10727c-6.82185,0.06296 -10.1922,-2.17387 -14.93336,-6.91503c-0.22213,-0.33092 -4.15567,-6.17082 -4.31243,-6.48659c-2.87215,-5.78534 -2.19054,-12.56073 -3.22066,-18.69019c-0.17513,-1.04206 -0.83302,-1.96454 -1.00127,-3.00773c-0.57782,-3.58256 0.30922,-6.591 1.0346,-9.97484c1.12772,-5.26072 1.33264,-10.03542 4.32082,-14.76285c1.82461,-2.88661 4.23973,-5.35464 6.34032,-8.04707c1.65491,-2.12119 3.05071,-4.47555 4.97598,-6.35478c2.98765,-2.9162 6.34996,-5.34366 9.33422,-8.28902c7.71455,-3.92137 15.58978,-7.33854 23.34374,-11.20796c2.20481,-1.10026 4.69522,-1.6154 6.80371,-2.89056c0.7572,-0.45794 1.11206,-1.41699 1.85255,-1.90148c2.619,-1.71354 5.76095,-2.48663 8.76281,-3.37219c3.97958,-1.174 5.57713,-2.3794 9.82305,-2.09662c7.07426,0.47115 11.48868,5.62282 17.37566,8.88299c5.13902,2.84595 10.19289,4.46115 15.79074,6.21048c0.12763,0.03989 0.2553,0.07965 0.383,0.11928c0.9019,-0.68616 1.86402,-1.29745 2.81715,-1.91041z"/></g></g></svg>