<svg version="1.1" xmlns="http://www.w3.org/2000/svg" xmlns:xlink="http://www.w3.org/1999/xlink" width="474.1538" height="414.0909" viewBox="0,0,474.1538,414.0909"><g transform="translate(-8,24.06809)"><g data-paper-data="{&quot;isPaintingLayer&quot;:true}" fill="#8ba936" fill-rule="nonzero" stroke="none" stroke-width="0.5" stroke-linecap="butt" stroke-linejoin="miter" stroke-miterlimit="10" stroke-dasharray="" stroke-dashoffset="0" style="mix-blend-mode: normal"><path d="M86.45783,381.92286c0.3493,2.33328 2.17928,4.92952 1.04791,6.99983c-0.87812,1.60687 -3.57504,0.98126 -5.40619,0.97539c-1.0589,-0.00339 -1.97136,-0.81986 -3.01442,-1.00238c-4.07117,-0.7124 -8.72848,-0.25954 -12.88493,-0.66297c-4.98965,-0.4843 -10.12156,-0.61475 -15.07944,-1.3313c-4.56845,-0.66026 -9.16914,-2.05806 -13.6709,-3.07151c-7.945,-1.7886 -16.51665,-4.45148 -24.75229,-4.84938c-0.16089,0.01299 -0.33043,0.00754 -0.50796,-0.02166c-0.56499,-0.02085 -1.12829,-0.03069 -1.68961,-0.02852c0,0 -2.5,0 -2.5,-2.5c0,-2.5 2.5,-2.5 2.5,-2.5c0.20811,0.00069 0.41643,0.00298 0.62495,0.00681c2.65141,-4.39503 4.06628,-9.47552 6.37505,-14.09698c4.29469,-8.59666 9.26537,-17.31034 12.66563,-26.30465c2.32959,-6.16219 3.66721,-12.76658 5.70369,-19.03424c2.06392,-6.35211 4.42099,-12.62589 6.62863,-18.92972c2.19385,-6.26444 3.92608,-13.06797 6.69883,-19.09456c4.85476,-10.55188 12.07958,-20.21973 17.63467,-30.42669c3.13331,-5.75717 4.87402,-12.65224 8.60457,-18.03062c4.67495,-6.73994 11.47441,-12.7166 16.98298,-18.80501c3.52773,-3.88214 6.33262,-8.38111 10.49603,-11.71768c0.1926,-0.15435 6.31221,-4.22495 6.48659,-4.31243c0.87001,-0.43648 1.94293,-0.391 2.78405,-0.88084c1.73994,-1.01327 2.50116,-3.40355 4.35762,-4.18307c1.12341,-0.47172 2.44635,0.00949 3.65125,-0.17157c2.36843,-0.3559 4.54162,-1.59848 6.905,-1.98645c0.24618,-0.04041 5.93176,-0.03348 6.40046,-0.03228c4.40935,0.01131 9.52648,0.58504 13.7075,2.11359c1.82415,0.6669 3.86037,1.26907 5.15408,2.71772c0.44118,0.49402 3.63279,9.4851 3.97059,10.4193c0.85798,4.80049 2.57589,10.32236 2.66726,15.19626c0.15545,8.29118 -2.48886,17.26159 -4.47572,25.2293c-5.04965,20.25012 -12.37798,38.742 -23.94139,56.20726c-0.15294,0.22941 -5.58673,8.38547 -5.67648,8.49795c-2.70159,3.38581 -6.1629,6.25814 -8.16044,10.21775c-2.63247,5.21819 -3.14326,11.97368 -4.82847,17.51219c-0.86564,2.84496 -2.73909,5.28895 -4.34697,7.79052c-2.56004,3.98298 -3.54589,8.74399 -5.9077,12.85297c-3.64215,6.33644 -10.68463,10.78937 -12.91649,17.84356c-1.22759,1.85974 -2.34461,3.79483 -3.37441,5.77262c0.36707,1.22357 0.75674,2.52248 1.08645,3.62151z"/><path d="M51.12829,-3.77907c-0.79057,-2.37171 1.58114,-3.16228 1.58114,-3.16228l3,-1c0.80579,-0.26809 1.6265,-0.50227 2.45316,-0.72346c-0.30016,-0.67853 -0.42538,-1.67028 0.56318,-2.66611c1.76128,-1.77423 3.53551,-0.01295 3.53551,-0.01295c0.41061,0.40762 0.82122,0.81523 1.23184,1.22285c0.6951,-0.22482 1.38037,-0.47319 2.05017,-0.75831c1.49354,-0.63577 2.82151,-1.67766 4.38233,-2.12342c1.01736,-0.29055 2.13044,0.14027 3.17393,-0.0346c1.03705,-0.17379 1.95501,-0.82616 2.99227,-0.99873c2.55453,-0.42501 5.21575,-0.24739 7.7125,-0.9348c5.43512,-1.49641 10.91337,-2.63306 16.59065,-3.08953c5.31015,-0.42695 10.15852,0.34607 15.35138,1.00295c6.77882,0.85749 14.73568,0.31448 21.50816,-0.44472c7.68594,-0.84592 15.34894,-2.85848 22.81212,-4.88922c1.88301,-0.51237 3.66126,-1.76325 5.6106,-1.67194c1.72366,0.08073 3.08982,1.55245 4.70667,2.15518c4.47457,1.66804 8.94108,2.4183 13.37045,4.38464c9.1471,4.06069 18.00203,8.72679 27.12227,12.81404c1.61004,0.72154 3.35397,1.14907 4.90363,1.99254c2.37393,1.29212 4.11853,3.50353 6.2476,5.16851c2.24196,1.75326 4.6329,3.30717 6.94881,4.96151c3.87265,2.94433 5.91875,5.88711 9.29112,9.24954c5.49419,5.47798 11.48608,10.72205 15.40273,17.52722c3.25746,5.65983 4.87771,12.25298 7.99405,17.98964c1.97663,3.63865 5.14423,7.03456 7.58052,10.37734c4.90825,6.7345 9.8165,13.46901 14.72475,20.20351c10.85605,14.89598 22.50381,29.1193 31.99845,44.96752c5.00893,8.36078 8.79448,17.96644 14.9412,25.59632c3.74432,4.6478 8.79167,7.87449 12.56687,12.57516c5.89281,7.85935 11.7347,16.22669 15.12818,25.47379c0.63833,1.73941 3.08999,8.21447 3.35268,9.94668c0.20388,1.34443 -0.13267,8.9697 -0.19185,10.46358c-0.2348,5.92699 -1.3462,12.50917 -5.33198,17.23197c-3.22535,3.82175 -7.56913,5.5353 -11.83498,7.66082c-1.81737,0.90553 -4.55422,3.55082 -6.37392,4.14694c-1.18028,0.38666 -2.48297,0.07151 -3.72446,0.10727c-1.52479,-0.02229 -3.09628,0.30824 -4.57438,-0.06688c-7.16552,-1.81848 -12.06366,-8.4519 -16.35897,-13.84815c-0.9883,-1.24161 -3.41548,-3.00782 -4.19327,-4.27064c-0.55279,-0.89751 -0.47052,-2.08854 -1,-3c-2.48558,-4.27878 -8.91001,-7.14279 -12.62642,-10.11521c-8.94777,-7.15649 -16.81994,-15.24709 -25.81016,-22.24511c-9.00833,-9.11433 -17.18339,-18.84044 -27.02177,-27.02066c-3.11599,-2.59082 -6.54013,-4.48337 -9.901,-6.7c-5.56338,-3.66927 -10.44644,-8.38255 -15.93311,-12.17515c-6.79311,-4.69566 -14.05283,-8.81407 -21.11584,-13.08488c-24.57762,-24.13429 -48.90801,-48.52541 -73.35407,-72.79302c-20.19243,-20.04504 -40.38486,-40.09008 -60.57729,-60.13512c-1.59367,0.41404 -3.19386,0.80906 -4.74315,1.32652l-3,1c0,0 -2.37171,0.79057 -3.16228,-1.58114z"/><path d="M332.07609,368.92992c-0.69753,0.48519 -1.38973,0.98475 -2.07609,1.50045c0,0 -2,1.5 -3.5,-0.5c-1.5,-2 0.5,-3.5 0.5,-3.5c9.16681,-6.86353 19.288,-10.9938 29.35493,-16.22234c8.65217,-4.49375 17.6232,-9.46592 25.74909,-14.85285c6.86227,-4.54924 13.29396,-9.9741 19.88262,-14.91478c0.14987,-0.1124 8.03812,-6.03027 8.11764,-6.08304c3.82274,-2.53666 8.23415,-4.30131 11.96054,-6.97399c2.09534,-1.50284 3.85081,-3.44406 5.93946,-4.95619c3.44294,-2.49261 7.68886,-4.25949 10.94435,-6.95722c3.38228,-2.80279 6.65768,-5.69428 9.78362,-8.80736c1.80544,-1.79802 3.49257,-3.76183 6.04331,-4.62496c1.17647,-0.3981 2.48251,-0.09581 3.72446,-0.10727c6.82185,-0.06296 10.1922,2.17387 14.93336,6.91503c0.22213,0.33092 4.15567,6.17082 4.31243,6.48659c2.87215,5.78534 2.19054,12.56073 3.22066,18.69019c0.17513,1.04206 0.83302,1.96454 1.00127,3.00773c0.57782,3.58256 -0.30922,6.591 -1.0346,9.97484c-1.12772,5.26072 -1.33264,10.03542 -4.32082,14.76285c-1.82461,2.88661 -4.23973,5.35464 -6.34032,8.04707c-1.65491,2.12119 -3.05071,4.47555 -4.97598,6.35478c-2.98765,2.9162 -6.34996,5.34366 -9.33422,8.28902c-7.71455,3.92137 -15.58978,7.33854 -23.34374,11.20796c-2.20481,1.10026 -4.69522,1.6154 -6.80371,2.89056c-0.7572,0.45794 -1.11206,1.41699 -1.85255,1.90148c-2.619,1.71354 -5.76095,2.48663 -8.76281,3.37219c-3.97958,1.174 -5.57713,2.3794 -9.82305,2.09662c-7.07426,-0.47115 -11.48868,-5.62282 -17.37566,-8.88299c-5.13902,-2.84595 -10.19289,-4.46115 -15.79074,-6.21048c-4.46882,-1.39663 -8.98258,-2.63326 -13.45409,-4.0169c-8.09935,-2.50623 -15.54596,-6.74755 -22.48765,0.38122l-2.64973,1.4683c0,0 -0.71697,0.35849 -1.54194,0.26349z"/></g></g></svg>