<svg version="1.1" xmlns="http://www.w3.org/2000/svg" xmlns:xlink="http://www.w3.org/1999/xlink" width="47.57313" height="45.70496" viewBox="0,0,47.57313,45.70496"><g transform="translate(-235.67263,-157.14752)"><g data-paper-data="{&quot;isPaintingLayer&quot;:true}" fill="#9966ff" fill-rule="nonzero" stroke="none" stroke-width="0.5" stroke-linecap="butt" stroke-linejoin="miter" stroke-miterlimit="10" stroke-dasharray="" stroke-dashoffset="0" style="mix-blend-mode: normal"><path d="M237.02604,161.83981c-0.65617,-0.34881 -1.73229,-1.20401 -1.21898,-2.91507c0.71837,-2.39457 3.11294,-1.6762 3.11294,-1.6762c3.05818,0.91868 6.29383,1.8619 9.17512,3.24953c3.92083,1.88828 6.64762,4.16693 10.86609,5.50617c5.29416,1.68075 10.89538,2.12583 15.46928,5.36192c2.08925,1.47816 8.45996,4.35549 8.79774,7.38938c0.17407,1.56353 -0.98555,3.03713 -1.88899,4.32504c-2.56776,3.66055 -9.44664,5.94243 -13.25553,7.72277c-5.9634,1.42102 -11.93355,2.80622 -17.89164,4.22378c-0.83224,0.19801 -5.96661,1.70989 -6.42035,1.59183c-4.88889,-1.2721 -4.62396,-3.69509 -5.43734,-7.74092c-1.6008,-7.9625 -0.80647,-16.53034 -0.81656,-24.56473l-0.44427,-1.46931c0,0 -0.11162,-0.44648 -0.04751,-1.0042z"/><path d="M237.07356,197.15599l0.44427,-1.46931c0.0101,-8.03439 -0.78424,-16.60223 0.81656,-24.56473c0.81339,-4.04583 0.54845,-6.46882 5.43734,-7.74092c0.45374,-0.11807 5.58812,1.39382 6.42035,1.59183c5.9581,1.41755 11.92824,2.80276 17.89164,4.22378c3.80889,1.78034 10.68777,4.06221 13.25554,7.72276c0.90343,1.28791 2.06306,2.76152 1.88898,4.32504c-0.33777,3.03389 -6.70849,5.91122 -8.79773,7.38939c-4.57391,3.23609 -10.17512,3.68117 -15.46929,5.36192c-4.21847,1.33925 -6.94526,3.61789 -10.8661,5.50617c-2.88129,1.38763 -6.11694,2.33085 -9.17512,3.24954c0,0 -2.39456,0.71837 -3.11293,-1.6762c-0.51332,-1.71105 0.56281,-2.56626 1.21898,-2.91506c-0.06411,-0.55772 0.04752,-1.0042 0.04752,-1.0042z" data-paper-data="{&quot;index&quot;:null}"/></g></g></svg>