<svg version="1.1" xmlns="http://www.w3.org/2000/svg" xmlns:xlink="http://www.w3.org/1999/xlink" width="482.21409" height="456.14769" viewBox="0,0,482.21409,456.14769"><g transform="translate(3.04573,47.2777)"><g data-paper-data="{&quot;isPaintingLayer&quot;:true}" fill="#8ba936" fill-rule="nonzero" stroke="none" stroke-width="0.5" stroke-linecap="butt" stroke-linejoin="miter" stroke-miterlimit="10" stroke-dasharray="" stroke-dashoffset="0" style="mix-blend-mode: normal"><path d="M-1.29057,1.64744c-1.81301,-0.60434 -1.77812,-2.13263 -1.66108,-2.81912c-0.18665,-0.66292 -0.16535,-1.54559 0.7219,-2.36013c0.96191,-3.11462 2.02383,-6.7551 3.51529,-9.35272c4.5278,-7.8859 12.24177,-12.33973 21.21445,-12.33973c3.77275,0 6.0009,-0.5202 9.31433,1.37337c0.91364,0.52213 1.44716,1.53811 2.27064,2.19327c3.02519,2.40681 5.78619,4.9031 8.52598,7.55049c1.43092,-0.61079 2.65682,0.6151 2.65682,0.6151l0.61898,0.68764c3.1797,2.13434 3.98664,2.37429 6.60122,5.56421c3.70452,4.51972 5.10519,10.37229 8.91304,14.89228c4.88736,5.80139 10.46172,10.58896 15.8613,15.85042c6.79208,6.61835 12.5542,14.40397 18.4737,21.78301c3.89487,4.8552 8.13723,9.40398 11.96272,14.31209c6.19189,7.94872 11.77742,16.17522 17.68524,24.31627c4.64589,6.4021 10.14759,12.36495 14.28949,19.1265c1.32286,2.15954 1.72159,4.79258 2.99086,6.98405c1.42903,2.46731 3.4807,4.52988 4.97522,6.95808c4.50437,7.31842 8.42997,15.04993 12.85924,22.43204c2.52607,4.21012 5.06984,8.33392 7.23729,12.74313c0.74216,1.50977 1.93947,2.88117 2.19705,4.54365c0.27476,1.77332 0.53096,4.00463 -0.66536,5.34215c-0.60629,0.67785 -6.88359,0.90714 -8.16822,0.69995c-1.04064,-0.16784 -1.95435,-0.86685 -3,-1c-2.6139,-0.33285 -5.29525,0.37747 -7.905,0.01355c-1.3612,-0.18982 -2.63667,-0.82614 -4,-1c-1.53461,-0.19571 -6.909,0.41788 -8.15632,-0.45316c-1.16051,-0.81042 -1.02107,-2.6561 -1.75267,-3.86784c-1.54376,-2.55688 -4.32972,-7.193 -6.50691,-9.34728c-0.62179,-0.61524 -1.60744,-0.74131 -2.27744,-1.30367c-3.63387,-3.05007 -6.12377,-6.87358 -8.89703,-10.65109c-7.50561,-6.02585 -11.52664,-14.73636 -18.33959,-21.49886c-5.80968,-5.76667 -12.67465,-10.41911 -18.82057,-15.79952c-11.45091,-10.02463 -22.94452,-20.38562 -32.84564,-31.93695c-9.34619,-10.99905 -19.13397,-21.75461 -28.07143,-33.08763c-7.81313,-9.90733 -13.6117,-21.16718 -21.42516,-31.05775c-0.12569,-0.02558 -0.25642,-0.0605 -0.39235,-0.10581z"/><path d="M233.2313,248.84113c9.0266,-7.52846 16.85362,-16.60154 25.60139,-24.42821c5.61905,-5.0274 11.29555,-10.24504 17.08233,-15.07054c1.63923,-1.36692 3.49077,-2.49077 5,-4c4.28283,-2.8748 8.06924,-5.73604 12,-9c1.84927,-1.53557 4.16733,-2.44466 6,-4c6.07438,-5.15516 10.78876,-12.00782 17,-17c9.34827,-7.51352 19.99546,-15.80801 26.81721,-25.83441c2.01343,-1.37704 4.33074,-2.37317 6.0783,-4.07498c2.7346,-2.66302 5.97715,-8.02133 10.35763,-8.63513c5.03638,-0.7057 10.98525,6.06288 14.63605,8.53004c1.40345,0.94843 3.05076,1.50956 4.4213,2.50495c3.82165,2.77558 7.04756,6.52865 10.78432,9.45031c1.12074,0.87627 2.59923,1.35547 3.47693,2.4751c0.24878,0.31735 2.50368,6.86128 2.5084,7.36214c0.07522,7.97885 -5.08456,14.5963 -8.35365,21.44527c-3.75884,5.02439 -7.9716,9.95444 -12.35315,14.457c-2.19749,2.25819 -4.88786,4.3939 -6.85501,6.83805c-4.12417,5.12421 -7.49626,10.99074 -11.46358,16.25894c-3.57825,4.75155 -7.688,9.31087 -11.58115,13.79409c-5.69499,6.55817 -12.06556,11.65926 -16.95528,18.94697c-5.01289,5.01289 -7.5144,12.07528 -13.39482,16.38554c-1.36274,0.99887 -2.96523,1.63577 -4.34262,2.61433c-2.88227,2.0477 -4.87482,5.14941 -7.61093,7.34851c-3.32721,2.67419 -6.71767,5.2722 -10,8c-3.2441,2.69602 -5.70981,6.35556 -9,9c-1.83175,1.47224 -3.45235,2.74095 -5.08809,4.20177c1.29897,1.41196 2.65301,2.74234 4.08809,3.93151c3.4223,2.83588 6.53543,6.22834 10,9c1.00203,0.80162 2.27542,1.25821 3.18279,2.16559c2.5542,2.5542 4.77926,6.37366 7.12087,9.12976c1.64769,1.93935 4.0797,3.0708 5.87913,4.87024c2.55109,2.55109 3.96149,5.57369 5.47802,8.66939c0.87747,1.79117 2.67358,2.97862 3.78232,4.6366c0.82867,1.23917 1.33333,2.66667 2,4c2.66433,2.66433 3.96729,5.9518 6.05202,9.07503c4.02663,6.03247 7.82343,12.25934 12.3308,17.93866c0.17906,-0.03356 0.37489,-0.05191 0.58908,-0.05191c1.70971,0 2.25017,1.16924 2.42103,1.90847c0.7785,-0.02582 1.50624,0.05872 2.04075,0.56342c1.43944,1.35917 1.31423,3.73499 1.97135,5.60249c-3.11949,3.67898 -5.21805,4.62854 -9.33474,6.67141c-2.62102,1.30066 -3.28108,2.82229 -6.08699,4.0405c-1.30775,0.56777 -2.80726,0.56278 -4.14402,1.05843c-2.44178,0.90536 -4.43878,2.73828 -6.76899,3.90108c-0.87094,0.43461 -1.95021,0.37872 -2.78405,0.88084c-0.80768,0.48636 -1.18709,1.52243 -2,2c-3.37558,1.98308 -7.5419,2.40819 -11.31433,2.37337c-1.24195,-0.01146 -2.54418,0.27939 -3.72446,-0.10727c-0.90024,-0.29491 -5.43688,-3.60642 -6.53036,-4.23045c-2.81629,-1.60723 -5.64732,-3.22171 -8.24518,-5.16228c0,0 -2,-1.5 -0.5,-3.5c0.16544,-0.22059 0.33697,-0.39861 0.51123,-0.54075c-3.27546,-7.09279 -9.71462,-13.58621 -14.24253,-19.66012c-11.90484,-15.96959 -23.6279,-32.19623 -36.74732,-47.1927c-11.51341,-13.7886 -24.35756,-26.23592 -36.51705,-39.45275c-4.26937,-4.64062 -9.11832,-9.11834 -12.97026,-14.1093c-5.88446,-7.6245 -9.39454,-16.66284 -13.66231,-25.22326c-5.75879,-8.43649 -11.66038,-16.96124 -15.68146,-26.36441c-0.36249,-0.84767 -0.42619,-1.80735 -0.81693,-2.64238c-0.64839,-1.38566 -3.03249,-2.64816 -2.28266,-3.98166c1.95888,-3.48369 10.39019,-3.22172 13.71475,-2.81393c1.36415,0.16732 2.6343,0.84587 4,1c3.96266,0.44723 8.13996,-0.55925 12.095,0.01355c0.35859,0.05193 6.69359,2.1975 6.91387,2.34109c1.25253,0.81646 2.00596,2.24422 3.20316,3.13986c2.11518,1.58239 4.59733,2.60321 6.88781,3.91912c5.24016,4.1812 9.99179,8.89873 15.1772,13.13226c4.77649,3.89967 10.17951,7.62927 14.28033,12.26808c0.63779,0.72146 1.21333,1.48016 1.74756,2.26329c1.42049,-0.94826 2.80991,-1.93718 4.12092,-3.0306z"/><path d="M346.26777,-46.49203c1.21071,1.21071 0.76303,2.42142 0.36067,3.06424c22.93701,18.28063 45.87403,36.56126 68.81104,54.84188c14.33694,11.42643 28.67387,22.85286 43.01081,34.27929c5.20897,4.15151 10.52181,8.20293 15.6403,12.4652c1.55442,1.2944 3.58607,2.21121 4.59385,3.96509c0.75367,1.31165 0.44094,3.02431 0.28695,4.52921c-0.40683,3.97592 -2.83163,8.60928 -4.09968,12.41342c-0.19781,0.59344 -2.06244,6.24697 -2.24508,6.52376c-2.35346,3.56663 -6.53588,5.93213 -9.19327,9.27064c-1.38035,1.73414 -2.60156,3.61231 -4.16559,5.18279c-0.93499,0.93885 -4.64011,4.81478 -5.59054,4.72594c-2.27078,-0.21224 -3.96116,-2.27694 -5.81523,-3.60508c-3.02867,-2.16955 -5.56481,-5.14532 -8.4602,-7.47275c-0.67291,-0.54091 -7.66468,-4.73058 -8.25936,-5.10212c-2.61441,-1.63341 -5.00112,-3.6457 -7.73707,-5.06615c-3.07081,-1.5943 -5.57641,-1.46639 -8.13711,-4.07211c-7.50027,-1.71391 -13.66602,-6.08309 -20.08258,-10.04887c-3.58185,-2.21377 -8.9053,-4.21872 -11.67244,-7.60914c-0.71659,-0.878 -0.55566,-2.23202 -1.13986,-3.20316c-0.45615,-0.75828 -1.41051,-1.11633 -1.90148,-1.85255c-0.85244,-1.27825 -1.24335,-2.82428 -2.07773,-4.11439c-2.20409,-3.40791 -5.209,-6.63126 -7.81959,-9.7528c-3.58644,-4.28836 -7.09998,-8.8335 -10.92062,-12.90874c-3.61034,-3.85092 -7.03177,-6.98084 -9.97401,-11.4077c-2.19975,-2.50827 -4.68155,-4.76883 -6.77935,-7.36296c-0.49706,-0.61466 -0.49576,-1.60035 -1.11321,-2.09393c-1.14471,-0.91507 -2.81674,-1.00803 -3.94189,-1.94705c-0.96151,-0.80245 -1.22711,-2.22146 -2.11326,-3.10643c-0.8504,-0.84927 -2.15564,-1.14472 -3,-2c-0.23241,-0.23541 -3.98304,-5.88704 -4.31236,-6.38102c-2.79651,-4.19476 -6.58228,-9.07338 -6.41803,-14.48269c0.14822,-4.88165 5.72681,-9.09636 8.5648,-12.48903c3.91969,-4.68578 6.80941,-9.80294 11.16559,-14.18279l1,-1c0,0 1.76777,-1.76777 3.53553,0z"/></g></g></svg>