<svg version="1.1" xmlns="http://www.w3.org/2000/svg" xmlns:xlink="http://www.w3.org/1999/xlink" width="562.27022" height="457.55079" viewBox="0,0,562.27022,457.55079"><g transform="translate(38.54864,56.03502)"><g data-paper-data="{&quot;isPaintingLayer&quot;:true}" fill="#8ba936" fill-rule="nonzero" stroke="none" stroke-width="0.5" stroke-linecap="butt" stroke-linejoin="miter" stroke-miterlimit="10" stroke-dasharray="" stroke-dashoffset="0" style="mix-blend-mode: normal"><path d="M-13.17498,65.7834c-0.94047,0.01288 -1.74665,-0.74632 -2.67483,-0.89841c-4.53136,-0.74252 -9.33258,-1.64997 -13.091,-4.28793c-1.86628,-1.3099 -2.39727,-3.88812 -3.78127,-5.70012c-1.384,-1.81201 -3.73166,-3.00266 -4.50436,-5.14783c-0.72596,-2.01541 -2.02024,-12.52305 -0.85533,-16.57492c1.38854,-4.82972 5.96292,-10.56865 8.84796,-14.30751c11.14124,-14.43846 21.46939,-30.14428 38.23381,-38.52648c4.18501,-2.0925 8.32902,-2.17954 12.75569,-3.125c9.41426,-2.01072 20.3103,-4.15419 29.24431,1.125c3.25862,1.92555 6.2788,4.42733 8.59375,7.42188c1.19971,1.55191 -0.12802,4.64121 1.53537,5.68087c0.55913,0.34946 9.1136,-1.49045 10.46798,-1.74226c10.33497,-1.92147 20.97986,-2.75215 31.39228,-4.12724c11.1052,-1.46657 22.08957,-7.66233 32.16555,-12.11741c9.02261,-3.98933 18.70643,-6.34786 28.01536,-9.52683c5.65829,-1.93229 10.34274,-4.86977 16.72726,-4.86977c7.55029,0 17.81123,2.60462 23.84055,3.35733c9.42206,1.17626 18.89409,1.91155 28.33439,2.93114c4.74608,0.5126 9.34743,2.60005 14.07603,2.86729c7.91794,0.4475 43.5069,0.10755 54.38208,-0.90122c14.6561,-1.35948 15.49711,-5.88157 26.64632,-12.75569c2.99705,-1.84785 21.16989,-8.90272 27.41684,-9.95247c14.51514,-2.43915 27.8493,2.53492 41.10551,7.34c15.77714,5.71885 32.31379,9.54049 47.5029,16.67593c12.23034,5.74549 24.27769,11.88826 36.63569,17.35375c4.58824,2.02921 9.91752,2.43499 14.15011,5.12846c11.18878,7.12013 16.37775,16.14263 12.22912,30.01693c-1.13371,3.79149 -5.33857,6.12999 -6.56283,9.89322c-0.10196,0.31342 4.17499,4.39013 5.00934,5.56177c4.38123,6.15237 8.61642,13.08741 12.27373,19.77693c3.60999,6.60295 4.52635,14.4275 6.00774,21.62417c3.45779,16.79813 -4.91736,31.32585 -19.45202,39.08562c-3.89062,2.07713 -7.95532,3.5805 -12.5955,4.30837c-4.70241,0.73763 -10.88514,-1.99393 -15.30324,-3.43868c-4.24242,-1.3873 -8.74155,-2.78623 -13.21088,-4.30661c-3.15789,10.18897 -12.65641,17.58953 -23.88343,17.58953c-13.80712,0 -25,-11.19288 -25,-25c0,-6.47538 2.46188,-12.37577 6.50072,-16.81622c-12.62649,-8.15789 -25.25607,-16.311 -37.90449,-24.43482c-2.38543,-1.53211 -5.74007,-1.83228 -8.35449,-2.82177c-10.52913,-3.98498 -21.70004,-6.04031 -32.68061,-8.52421c-5.71075,-1.29182 -11.40904,-2.67982 -17.18832,-3.61859c-5.42507,-0.88124 -11.48962,-0.38533 -16.84078,-2.2622c-1.63173,-0.57231 -3.26009,-1.15412 -4.88654,-1.74133c0.23312,1.37157 0.35452,2.78118 0.35452,4.21915c0,13.80712 -11.19288,25 -25,25c-13.80712,0 -25,-11.19288 -25,-25c0,-4.57057 1.22653,-8.85467 3.36839,-12.54112c-1.057,0.14681 -2.1193,0.27166 -3.18936,0.36312c-3.26748,0.27928 -6.49582,-0.62735 -9.65452,-0.82201c-3.75235,-0.23124 -16.96112,0.78723 -22.04902,1c-1.77492,0.07422 -4.02924,0.92198 -5.64116,1.30968c-7.74406,1.8626 -15.52626,3.57232 -23.23493,5.57638c-11.1465,2.89782 -21.94648,7.8741 -33.17614,10.51861c-19.40887,4.57066 -39.29007,6.66469 -58.88332,10.39387c-2.23788,11.51142 -12.37408,20.20146 -24.53994,20.20146c-6.62658,0 -12.65099,-2.57819 -17.12487,-6.7862c-10.93924,4.34771 -21.12587,11.22759 -32.24495,14.92196c-3.47409,1.82907 -7.43125,2.86424 -11.63018,2.86424c-0.47049,0 -0.93795,-0.013 -1.40203,-0.03865c-4.68254,0.25415 -9.24747,-0.63161 -12.275,-4.03094c-6.81864,-4.46473 -11.32297,-12.17155 -11.32297,-20.93041c0,-2.58676 0.39287,-5.08175 1.12219,-7.42858c0.31501,-1.27013 -2.48869,0.97887 -3.79717,0.99679z"/><path d="M366.78477,200.00327c2.08835,0.85991 4.35058,1.47322 6.15604,2.83005c1.14546,0.86083 1.39325,2.53958 2.37624,3.58209c0.98299,1.04251 2.64429,1.38845 3.43637,2.58248c0.47701,0.71908 3.60065,9.02848 3.6994,10.73551c0.15865,2.74231 -2.34452,6.18619 -0.50396,8.22525c6.22315,6.89428 8.9113,9.57667 14.64269,18.83465c2.95985,4.78108 3.73001,11.48392 7.34323,15.66824c5.35422,6.20051 11.56443,11.20932 17.2429,17.07598c2.82591,2.91956 5.32895,6.14973 7.77996,9.42557c4.51512,-6.49568 12.03217,-10.7479 20.54237,-10.7479c13.80712,0 25,11.19288 25,25c0,13.78748 -11.16107,24.96816 -24.9411,24.99993c-0.24177,0.70046 -0.87858,1.25744 -1.21031,1.93576c-1.87773,3.83963 -2.00147,6.02249 -4.58422,9.56381c-8.29447,11.37289 -25.17426,17.45323 -38.18799,20.08226c-3.91213,0.79033 -7.94539,0.9766 -11.91063,1.32425c-7.476,0.65545 -14.97227,1.10684 -22.42939,1.95038c-13.98745,1.58224 -27.47344,4.04181 -41.35172,5.1436c-11.95533,0.94913 -23.41317,5.88882 -35.38463,6c-4.22527,0.03924 -8.45158,-0.02452 -12.67743,-0.06069c-1.46447,0.68093 -3.04481,1.34163 -3.82871,1.39114c-3.32759,0.21016 -6.92203,-0.22338 -10.52368,-0.89576c-2.74553,0.62015 -5.56617,1.68269 -8.36772,1.72106c-3.8387,0.05258 -7.13739,-0.94469 -10.03018,-2.63221c-0.83788,0.25557 -1.47239,0.45646 -1.70425,0.51454c-3.75991,0.94189 -7.84888,1.39989 -11.689,1.78391c-10.89192,1.08919 -21.47304,3.20692 -32.27278,4.78737c-6.25378,0.91519 -12.23941,0.88324 -18.61496,2.02025c-14.48637,2.5835 -30.89393,7.64622 -46.29605,6.106c-7.52496,-0.7525 -15.23148,-2.57762 -21.19517,-6.39572c-0.54944,0.72873 -1.13491,1.4218 -1.75377,2.077c-0.52517,2.66286 -1.13368,5.24259 -4.85612,9.01534c-7.06411,7.15958 -13.80821,9.43265 -24.25356,6.82131c-4.84156,-1.21039 -9.47106,-3.84202 -13.07419,-7.29502c-6.83441,-6.54965 -5.93703,-15.91199 -4.84948,-24.08795c1.10594,-8.31423 3.09178,-10.97499 6.789,-17.69002c0.05396,-0.098 0.11107,-0.20488 0.17113,-0.32014c3.88458,-17.17997 7.95535,-33.82367 11.53122,-50.95524c1.38414,-6.63124 0.41427,-10.32266 0.49571,-18.9052c0.13917,-14.66543 2.59868,-29.42881 6.00093,-43.70258c4.38287,-18.38791 15.34276,-34.5544 23.27245,-51.71379c4.13357,-8.94481 14.15703,-24.23469 22.04895,-31.2613c4.33873,-3.86302 9.37284,-7.03121 13.8651,-10.68789c7.57613,-6.16694 13.82662,-11.05824 22.96459,-14.61306c1.8161,-0.70649 3.7225,-1.22303 5.67923,-1.60426c-0.5423,-2.04783 -0.83124,-4.19873 -0.83124,-6.41712c0,-13.80712 11.19288,-25 25,-25c13.80712,0 25,11.19288 25,25c0,4.96817 -1.4492,9.59786 -3.94793,13.4894c17.51799,3.17782 34.48898,11.15766 50.4359,18.39936c4.54021,2.06177 10.53204,5.13464 14.48746,8.1481c2.87409,2.18964 4.65152,6.17157 7.52602,8.10925c6.13831,4.13779 11.14528,8.82068 15.19505,13.96934c2.6461,-10.96761 12.52328,-19.11545 24.3035,-19.11545c13.80712,0 25,11.19288 25,25c0,3.34682 -0.65766,6.54004 -1.85079,9.45747c1.53263,0.12102 3.01397,0.45702 5.13556,1.33062zM259.2663,318.55777c-0.39167,1.17559 -0.77127,2.33244 -1.14744,3.46868c0.33897,-0.55609 0.73958,-1.84949 1.14744,-3.46868z"/></g></g></svg>