<svg version="1.1" xmlns="http://www.w3.org/2000/svg" xmlns:xlink="http://www.w3.org/1999/xlink" width="496.47635" height="533.54442" viewBox="0,0,496.47635,533.54442"><g transform="translate(9.76026,148.5703)"><g data-paper-data="{&quot;isPaintingLayer&quot;:true}" fill="#8ba936" fill-rule="nonzero" stroke="none" stroke-width="0.5" stroke-linecap="butt" stroke-linejoin="miter" stroke-miterlimit="10" stroke-dasharray="" stroke-dashoffset="0" style="mix-blend-mode: normal"><path d="M399.55804,222.39836c2.72968,2.88881 5.38906,5.38314 7.70125,7.93001c1.41378,1.08436 2.66863,2.36558 3.7236,3.80268c6.32845,0.53588 12.94784,2.96852 17.2607,5.31358c4.80494,2.61262 9.17338,6.02835 13.89958,8.77107c10.8806,6.31426 27.29256,15.59779 34.48567,27.61419c3.71609,6.20789 3.56457,10.43797 5.90307,17.14654c0.90338,2.59156 3.39402,4.67036 3.5943,7.40754c0.20368,2.78365 0.6473,5.56254 0.5837,8.3529c-0.05143,2.25602 -1.76884,4.20341 -2.10158,6.43535c-2.01206,13.49635 0.21153,28.00724 -6.5776,40.30588c-3.30625,5.98932 -13.52574,17.02399 -21.47591,19.75387c-2.3571,0.80937 -4.99617,0.66799 -7.29846,1.62216c-2.5174,1.04331 -4.79281,4.12225 -7.24761,5.15585c-3.17167,1.33544 -10.06192,1.52669 -13.30278,0.36924c-1.42144,-0.50765 -2.33853,-2.18838 -3.83093,-2.41406c-3.45548,-0.52254 -7.2449,0.37038 -10.77575,-0.75307c-2.52327,-0.80286 -5.14624,-2.60787 -7.6643,-4.82265c-0.30942,0.0798 -0.60989,0.15059 -0.89948,0.21162c-0.08621,0.01817 -20.14839,5.28733 -28.67718,5.36411c-4.96518,0.0447 -9.93264,-0.10705 -14.89729,-0.06901c1.38385,-6.97833 -0.19533,-14.67669 -5.58136,-21.3203c-9.4942,-11.711 -22.73696,-19.50992 -32.91784,-30.54962c-3.9744,-4.30967 -8.67866,-11.53943 -13.56808,-16.48873c-14.02364,-14.19538 -29.52444,-27.27256 -42.50087,-42.41993c-8.59915,-10.03777 -10.49072,-13.79254 -19.6783,-23.71922c-7.02058,-7.58536 -23.5433,-20.69773 -25.06492,-22.023c-7.96136,-6.93407 -16.01452,-13.08382 -24.50377,-18.94036c3.79489,-1.59138 7.58016,-3.2272 11.32715,-4.99032c4.99729,-2.35145 10.67956,-3.046 15.53451,-5.76726c0.71413,-0.40028 14.1892,-6.72288 17.72366,-10.26482c4.52444,-4.53403 10.74693,-8.38992 16.14403,-11.73087c5.17653,-3.20441 9.91257,-7.59774 15.5978,-10.23706c6.0474,-2.80745 13.08105,-3.31354 19.56416,-4.60127c26.17704,-5.19952 49.05201,4.49089 68.07935,22.11353c6.10549,5.65475 10.6043,12.76898 16.00531,19.11092c6.95783,8.16998 14.05439,16.51848 21.43614,24.33053z" data-paper-data="{&quot;index&quot;:null}"/><path d="M270.94478,379.9429c-11.622,-0.57661 -29.97283,-4.0634 -43.87026,-4.05479c-12.65729,0.00785 -25.10846,3.22475 -37.65424,4.90121c-6.90112,0.92218 -16.78466,-0.22543 -21.70534,0.17585c-9.23995,0.7535 -17.48844,4.4192 -26.89668,3.97113c-35.03404,-1.66849 -69.22158,-8.80026 -104.03256,-13.08223c-15.8606,-1.95095 -23.54533,2.31424 -35.31488,-9.32351c-3.18503,-3.14936 -5.89536,-7.1335 -5.78866,-12.07162c0.03262,-1.50972 1.03689,-2.83985 1.44241,-4.29446c3.87572,-13.90213 15.24167,-18.38971 27.11133,-26.40009c11.01163,-7.43133 22.96884,-11.83467 34.61999,-18.04495c10.33688,-5.50974 21.24258,-16.92716 29.95339,-23.39196c10.61934,-7.88123 19.48423,-17.38759 29.50594,-26.04906c4.12338,-3.56371 12.3767,-8.70194 14.69117,-10.35525c1.76637,-1.26178 8.39727,-6.2552 15.21433,-11.18704c0.8011,0.84722 1.61507,1.68184 2.45049,2.4954c1.52911,1.48909 6.85335,4.254 8.17236,5.11491c11.21801,7.3219 20.9958,14.03027 30.94147,22.70567c7.28615,6.35555 14.84814,12.47176 21.91946,19.06551c6.90025,6.43424 10.77259,12.58714 16.51159,20.09758c4.69145,6.13955 14.15883,15.34251 16.76157,18.09853c9.13926,9.67746 19.72155,17.73447 28.64883,27.66721c3.75533,4.17828 9.34233,12.65506 14.69648,17.66311c9.53435,8.91804 12.87605,11.63418 20.71297,18.41616c-12.69909,0.09235 -25.39552,-1.48742 -38.09116,-2.1173z" data-paper-data="{&quot;index&quot;:null}"/><path d="M-7.03488,82.57367c-0.36254,-0.84884 -0.66427,-1.72986 -0.8997,-2.6376c-2.08703,-7.3129 -1.45439,-15.94287 -0.23522,-22.39807c0.9463,-5.01044 1.96478,-10.00717 3,-15c0.30789,-1.48492 0.91327,-2.59094 0.63589,-4.17104c-1.67327,-9.53177 -6.87212,-20.38152 -4.70703,-30.08147c2.36076,-10.57659 12.84968,-23.22982 24.97875,-19.92189c3.80772,1.03847 7.12958,2.97927 9.7568,5.61363c19.84547,-16.10217 39.69452,-32.19995 59.53408,-48.3093c41.05932,-33.33937 86.56534,-60.79666 130.10122,-90.83013c4.58907,-3.1658 10.01061,-3.78222 15.39014,-3.22511c2.32868,0.24116 4.6119,2.88078 6.16556,4.0597c5.90964,4.48425 8.93535,10.6598 7.40805,18.07982c-0.22742,1.10486 -0.41005,3.46179 -1.15931,4.55398c-9.60441,14.00035 -28.85874,26.02397 -38.24735,35.68841c-0.79707,0.82049 1.87872,1.30709 2.8477,1.91505c1.52575,0.95728 3.60883,1.44112 4.48396,3.01542c0.54807,0.98595 3.19103,6.92691 4.03292,7.76413c0.11692,0.11627 2.95717,-0.65162 3.2251,-0.5992c2.35061,0.4599 4.7435,0.90804 6.93943,1.86449c2.60478,1.13452 9.2724,8.92958 9.98956,11.6787c1.60171,6.13989 0.03492,12.26675 -3.70608,17.29502c-0.68511,0.92086 -8.10001,9.20019 -7.61442,10.07289c0.36352,0.65331 0.10153,1.90057 0.82599,2.08528c1.71441,0.43711 3.51853,-0.37837 5.28144,-0.52814c1.24414,-0.1057 3.98856,0.33072 4.9474,-0.48072c23.76047,-20.10782 47.06775,-40.74526 70.65997,-61.05022c0.36722,-0.31605 0.74794,-0.61664 1.13585,-0.90692c7.64416,-5.72035 19.06213,-17.53993 30.44371,-17.48021c0.98418,0.00517 4.65538,-0.35451 5.98482,0.46374c2.5653,1.57891 4.99001,3.38586 7.3477,5.26069c1.44029,1.14531 2.1557,3.86384 2.8204,5.27321c0.74631,1.5824 1.84105,2.99777 2.47545,4.62826c0.56605,1.45483 -0.44743,5.00165 -0.61919,5.97074c-1.98224,11.18396 -15.52311,20.10581 -22.5327,26.66171c-8.21304,7.68147 -17.26678,15.65978 -25.2974,23.53177c-0.12206,0.11965 0.73011,3.50736 0.67585,4.02866c-0.21313,2.04778 -1.07389,6.33709 -2.27514,8.20675c-1.18935,1.85111 -2.6833,3.48806 -4.05551,5.20801c-0.45221,0.56681 -2.24535,1.19168 -1.58459,1.49027c0.2856,0.12906 3.72257,-1.23196 4.67163,-1.4523c2.99357,-0.69499 5.99661,-1.34879 9,-2c1.96832,-0.42678 3.99734,-0.79274 6.0343,-1.01166c1.29908,-0.28477 2.64859,-0.43484 4.03315,-0.43484c2.05166,0 4.02635,0.32953 5.87404,0.93853c2.88845,0.75335 5.59798,2.16154 7.94896,4.51827l0.00002,-0.00003c1.07474,1.07737 1.80178,2.37846 2.3472,3.79587c1.63946,2.78534 2.5798,6.03152 2.5798,9.49733c0,2.35048 -0.43251,4.59995 -1.22227,6.67316c-2.68964,7.06057 -9.52288,12.07684 -17.52773,12.07684c-0.06671,0 -0.13334,-0.00034 -0.19988,-0.00104c-7.60067,2.02163 -15.26415,3.63438 -22.38363,7.56692c-9.65439,5.33272 -11.77144,10.44592 -19.15824,17.94237c-11.04838,11.21238 -15.2287,14.50162 -23.92099,24.83482c-5.03482,5.98528 -9.54291,12.39895 -14.53691,18.41832c-3.19808,3.85472 -9.09742,8.40269 -11.89076,11.09553c-5.81775,5.60844 -11.54175,11.31668 -17.14216,17.14216c-4.38896,4.56534 -7.95119,10.23172 -12.56509,14.48699c-15.13405,13.95768 -31.28838,26.16714 -48.17412,37.92774c-18.4687,12.8631 -23.93623,10.77759 -39.63789,20.29228c-2.05409,1.24472 -4.05871,4.88014 -6.11038,6.71309c-4.93417,4.40815 -9.97123,8.70008 -15,13c-17.4981,14.96198 -36.42976,28.26063 -54.62468,42.52084c-9.04527,7.08921 -11.15835,8.93951 -19.70984,14.88107c-3.03721,2.11025 -5.1141,4.61592 -8.97358,5.65902c-7.60119,2.05438 -15.66848,-1.24959 -20.32723,-7.3233c-0.02816,-1.86464 -0.04679,-3.65103 -0.00295,-5.31187c0.17969,-6.80726 0.66701,-13.60296 0.9717,-20.40577c0.82797,-18.48565 4.81512,-36.61835 5.0283,-55.18913c0.31585,-27.51534 -3.37784,-55.95765 -4.84165,-83.31626c-0.02993,-0.55945 -0.0197,-1.1219 0.02214,-1.68585c0.89129,-2.19439 1.58351,-4.501 2.05,-6.93497c-0.2769,-0.55451 -0.53161,-1.12334 -0.76537,-1.70444z"/><path d="" data-paper-data="{&quot;index&quot;:null}"/><path d="" data-paper-data="{&quot;index&quot;:null}"/><path d="" data-paper-data="{&quot;index&quot;:null}"/><path d="M324.46609,62.21518c0,-10.35534 8.39466,-18.75 18.75,-18.75c10.35534,0 18.75,8.39466 18.75,18.75c0,10.35534 -8.39466,18.75 -18.75,18.75c-10.35534,0 -18.75,-8.39466 -18.75,-18.75z"/><path d="M398.46609,114.21518c0,-10.35534 8.39466,-18.75 18.75,-18.75c10.35534,0 18.75,8.39466 18.75,18.75c0,10.35534 -8.39466,18.75 -18.75,18.75c-10.35534,0 -18.75,-8.39466 -18.75,-18.75z"/><path d="M408.46609,29.21518c0,-10.35534 8.39466,-18.75 18.75,-18.75c10.35534,0 18.75,8.39466 18.75,18.75c0,10.35534 -8.39466,18.75 -18.75,18.75c-10.35534,0 -18.75,-8.39466 -18.75,-18.75z"/><path d="M437.46609,191.21518c0,-10.35534 8.39466,-18.75 18.75,-18.75c10.35534,0 18.75,8.39466 18.75,18.75c0,10.35534 -8.39466,18.75 -18.75,18.75c-10.35534,0 -18.75,-8.39466 -18.75,-18.75z"/></g></g></svg>