<svg version="1.1" xmlns="http://www.w3.org/2000/svg" xmlns:xlink="http://www.w3.org/1999/xlink" width="615.92807" height="448.35929" viewBox="0,0,615.92807,448.35929"><g transform="translate(75.46574,38.76567)"><g data-paper-data="{&quot;isPaintingLayer&quot;:true}" fill="#8ba936" fill-rule="nonzero" stroke="none" stroke-width="0.5" stroke-linecap="butt" stroke-linejoin="miter" stroke-miterlimit="10" stroke-dasharray="" stroke-dashoffset="0" style="mix-blend-mode: normal"><path d="M487.5,-33.78482c13.80712,0 25,11.19288 25,25c0,11.92466 -8.34887,21.89933 -19.52015,24.39756c1.06627,1.50012 2.09861,2.97353 3.09779,4.39951c7.98122,11.39043 18.95049,28.87783 10.78303,42.60611c-1.96399,3.30117 -6.05902,6.19976 -8.99868,8.34222l6.75509,4.62191c9.92375,8.35389 16.80715,11.99536 25.67524,21.53693c2.43107,2.61569 6.10857,5.41492 7.56834,8.69256c7.67521,17.23324 -2.42771,34.63645 -19.86682,39.73365c-6.47852,1.89358 -15.08342,-0.40558 -21.59755,-2.17213c-13.80862,-3.74471 -26.45189,-11.2815 -36.94549,-20.85218c-4.22764,-3.85581 -12.16354,-6.07736 -17.10427,-8.46086c-4.05964,-1.95844 -7.52236,-4.9909 -11.41166,-7.25432c-8.80422,-5.12372 -17.6395,-10.4526 -26.4128,-15.62908c-3.03315,-1.78964 -6.76143,-2.30229 -9.88959,-4.16063c-2.88651,-1.71479 -6.41241,-5.84398 -9.25995,-7.12641c-25.87781,-11.65444 -29.66565,-11.25573 -52.57491,-22.13208c-18.29878,-8.68749 -39.88275,-11.27494 -60.05075,-10.54277c-2.57133,0.09335 -5.15588,0.18231 -7.74991,0.27294c-8.65882,6.76136 -17.3578,13.6224 -25.74334,20.16182c-4.73635,3.69361 -8.42981,7.47888 -13.13627,11.08695c-7.49914,5.74901 -16.34439,10.55558 -24.23551,15.59778c-19.03439,12.16242 -19.83926,13.20074 -35.88026,22.0043c-2.84136,1.55938 -5.05631,4.41673 -8.01365,5.98744c-6.91086,3.67053 -15.97447,5.98243 -22.88531,8.37352c-5.64792,1.95414 -10.42326,5.53788 -16.09086,7.27346c-1.87819,0.57515 -4.1093,0.50134 -5.94187,1.08479c-4.45161,1.41729 -10.64799,4.23802 -15.94843,5.51677c-4.96206,1.19711 -10.12434,1.7123 -14.91206,3.48227c-8.75987,3.23843 -17.39018,6.30075 -26.31908,9.04681c-5.99046,1.84235 -11.94878,3.56336 -18.00101,5.17062c-7.46041,1.98122 -14.12882,3.53829 -21.90522,5.94544c-3.36402,1.04132 -5.82552,2.29472 -8.18649,3.50572c-4.05166,2.82962 -8.98082,4.48935 -14.29764,4.48935c-13.80712,0 -25,-11.19288 -25,-25c0,-0.63182 0.02344,-1.25816 0.06949,-1.87821c-0.01485,-1.74704 -0.15603,-3.51029 0.34874,-5.1628c0.82592,-2.70385 2.28474,-5.18473 4.21463,-7.45996c0.91573,-1.28387 1.94983,-2.47749 3.08636,-3.56493c-11.91048,-8.90658 -14.78671,-24.75676 -11.37907,-39.04408c1.39358,-5.8429 4.39176,-10.29477 7.5286,-15.26254c0.76098,-1.20516 1.4883,-2.43164 2.19995,-3.66658c0.3418,-0.59314 1.54446,-1.40321 0.98723,-1.80087c-6.95309,-4.96198 -18.43058,-4.7396 -26.54389,-9.04879c-13.63097,-7.23975 -19.32594,-20.19259 -22.01489,-34.50906c-1.36181,-7.25055 -3.55365,-16.56789 -1.82761,-24.09603c3.92057,-17.09955 19.46299,-23.77446 35.48293,-22.41331c24.35197,2.06909 48.68814,4.32473 73.04687,6.31269c7.91708,0.64613 28.47308,-0.40632 28.80066,-0.40553c25.59489,0.06177 32.58029,1.97094 62.95518,-4.33737c3.83077,-0.79558 7.50841,-2.46341 11.36702,-3.22109c25.55651,-5.01829 50.69334,-10.79385 76.57693,-14.24848c67.85969,-9.05709 139.92533,-7.26389 205.83431,-0.32791c8.17646,0.86046 12.99708,5.58001 19.83903,9.47024c4.48368,2.54935 8.90209,5.66134 13.9591,6.67583c3.45275,0.69266 6.79229,1.52049 9.9821,2.92239c2.34194,-11.3781 12.41502,-19.9336 24.48634,-19.9336z"/><path d="M488.375,283.71518c2.19241,4.38482 1.60902,9.02732 3.19749,13.36666c7.62119,20.81942 7.97645,41.56469 5.74918,63.63794c-1.18977,11.79115 -3.0044,36.26688 -16.41848,41.85608c-8.48095,3.53373 -17.16897,3.89816 -25.58353,-1c-2.54593,-1.482 -8.61196,-7.60765 -9.88422,-8.0699c-3.63334,-1.32009 -9.39384,1.78659 -13.02919,2.31859c-6.75954,0.9892 -14.07405,1.58879 -20.90625,1.39063c-3.31453,-0.09614 -6.62817,-1.32582 -9.93094,-1c-5.59143,0.5516 -10.98919,2.5731 -16.60101,2.95686c-5.07027,0.34672 -16.79564,0.68335 -23.36407,1.74099c-4.27233,0.68793 -7.3187,1.95039 -11.57869,2.17289c-5.00632,0.26148 -9.758,-1.9936 -14.66341,-1.73224c-5.53953,0.29515 -11.06129,0.91942 -16.55956,1.65596c-44.44958,5.95439 -87.01667,8.94231 -133.03576,4.3404c-3.861,-0.3861 -7.49834,-2.84803 -11.14612,-3.58765c-10.54382,-2.13787 -44.67194,-9.23038 -56.64732,-9.39621c-10.11046,-0.14 -20.13941,1.83536 -30.20972,2.74634c-7.90943,0.7155 -8.59153,-0.01126 -23.63184,1.89202c-4.79252,0.60647 -9.88943,2.47168 -14.87076,3.05774c-5.99557,0.7054 -11.99297,1.39994 -18,2c-12.979,1.29651 -31.63248,-0.3403 -40.17993,-11.47889c-1.41652,-1.84593 -3.97045,-4.17986 -4.5502,-6.4626c-0.95219,-3.74925 -2.77963,-8.52149 -2.18642,-12.30315c0.92958,-5.92608 2.59032,-11.04244 3.15576,-17.1589c0.33725,-3.64809 -0.55644,-7.30628 -0.87593,-10.95596c-0.62931,-7.18888 -0.00812,-14.49538 1.72802,-21.48535c1.32285,-5.32601 2.58683,-10.53797 3.14791,-16.0713c0.22191,-2.1885 1.82179,-5.46556 -0.06352,-6.59887c-3.64388,-2.19045 -7.92086,-4.18753 -10.03023,-7.87894c-5.20833,-9.11458 -5.20833,-19.79167 0,-28.90625c1.11892,-1.9581 2.50583,-3.56845 4.09607,-4.89096c0.00695,-0.51529 0.02949,-1.02681 0.06717,-1.53412c-0.01485,-1.74704 -0.15603,-3.51029 0.34874,-5.1628c1.21074,-3.96369 3.35383,-7.13984 6.07702,-9.7692c2.70608,-2.9771 6.12077,-5.29853 9.97761,-6.69784c5.27157,-2.60372 11.0153,-4.55315 16.07658,-6.63755c13.71335,-5.64761 27.31178,-11.5426 41.4801,-15.88119c2.2073,-0.67591 4.1017,-2.52404 6.34133,-3.28c2.26998,-0.7662 4.72341,-0.917 7.03791,-1.84845c23.63173,-9.51032 47.04887,-19.8321 72.08461,-25.27183c9.64457,-2.09556 16.78345,-7.48829 25.32627,-11.9336c8.35641,-4.34832 14.54614,-8.34969 22.18034,-13.63932c27.78827,-19.25411 65.57877,-35.04533 91.59208,-48.24544c2.17232,-1.10232 4.30969,-2.48796 6.71229,-2.89c4.72523,-0.79069 12.61463,0.4483 16.87002,2.64936c2.96077,1.53143 5.86795,5.08054 8.72108,7.16842c6.72087,4.91823 14.31764,9.58409 19.91895,15.85504c7.31828,8.19318 13.5822,17.71296 22.70536,24.01972c4.26647,2.94938 8.92699,5.28457 13.34262,8.00557c3.38301,2.08467 6.07045,5.1873 9.2612,7.47346c5.38067,3.85523 10.96396,7.4213 16.52265,11.0151c10.87491,7.03084 21.87603,13.86476 32.77565,20.85723c4.10029,2.63047 7.66505,6.62492 11.5479,9.21984c6.43165,4.29829 13.48701,6.15881 19.89772,10.07044c8.38112,5.11393 12.39412,10.77261 18.91895,18.0148c4.1388,4.59383 8.07558,5.7499 10.63961,12.51364c3.70496,9.77342 0.96678,19.78963 -5.35913,26.47943c0.6365,1.05824 1.2394,2.15606 1.80807,3.29339z"/></g></g></svg>