<svg version="1.1" xmlns="http://www.w3.org/2000/svg" xmlns:xlink="http://www.w3.org/1999/xlink" width="471.99022" height="446.71405" viewBox="0,0,471.99022,446.71405"><g transform="translate(-28.95102,56.15132)"><g data-paper-data="{&quot;isPaintingLayer&quot;:true}" fill="#8ba936" fill-rule="nonzero" stroke="none" stroke-width="0.5" stroke-linecap="butt" stroke-linejoin="miter" stroke-miterlimit="10" stroke-dasharray="" stroke-dashoffset="0" style="mix-blend-mode: normal"><path d="M53.56757,338.27573l0.0001,-0.97719c-0.0142,-2.62974 -0.73088,-5.21004 -0.9881,-7.82721c-0.48148,-4.89909 -0.7344,-10.14301 -1.00928,-15.07889c-0.2439,-4.37954 1.02379,-8.52051 2.07158,-12.72169c1.05028,-4.21115 1.77468,-7.9659 3.4205,-11.83745c-0.49481,-0.7085 -0.49481,-1.55756 -0.49481,-1.55756l0.03228,-3.40046c1.81844,-5.50315 8.09217,-16.03418 15.83768,-11.69077c1.46823,0.82333 1.58869,2.96823 2.38303,4.45235c0.63409,1.89919 1.56423,4.10201 2.35139,6.30219c2.49758,-0.41948 4.99596,-0.79879 7.49858,-0.99265c2.72793,-0.21131 5.4814,0.07976 8.20667,-0.1634c6.37778,-0.56906 12.59727,-2.08945 18.88925,-2.98906c7.34224,-1.04977 15.06585,-2.7667 20.53335,-8.28597c3.36123,-3.35441 6.87774,-7.03652 9.79842,-10.77226c1.94112,-2.48282 3.05668,-5.54541 5.0129,-8.01635c0.81758,-1.0327 2.09701,-1.66347 2.82982,-2.75795c0.54154,-0.8088 0.44689,-1.91278 0.88084,-2.78405c0.9969,-2.00155 1.95624,-4.02249 3,-6c2.15483,-4.08254 5.10029,-7.55891 6.93609,-11.85833c1.77849,-4.1652 3.65876,-8.35965 4.9094,-12.74226c0.57001,-1.99748 1.18516,-5.45318 2.15451,-7.39941c1.86721,-3.74889 4.9809,-7.01164 7.31243,-10.48659c3.22601,-3.24354 6.6546,-6.93658 10.47158,-9.44313c3.7241,-2.44557 7.59505,-2.30589 11.3634,-4.21768c2.31173,-1.1728 4.57613,-2.44955 6.75099,-3.86005c7.62003,-4.94194 15.66822,-11.21861 24.79894,-13.33326c4.02064,-0.93117 8.20488,-0.53634 12.3021,-1.04873c2.347,-0.29351 7.15482,-1.56918 9.39567,-2.12839c4.46795,-1.10982 8.83894,-1.12765 13.32612,-1.83658c2.63102,-0.41568 5.08424,-1.59273 7.64537,-2.32462c2.98994,-0.85442 6.07212,-1.43208 8.97288,-2.55252c1.49735,-0.57836 2.76504,-1.75471 4.33193,-2.10319c1.75626,-0.3906 3.60291,0.0723 5.39716,-0.06059c9.91681,-0.73448 20.50676,-2.13255 30.48268,-0.98756c4.20359,0.48247 5.08881,1.64471 9.11327,2.96182c2.63891,0.86365 5.38036,1.375 8.06925,2.06754c5.00046,0.71271 10.17795,1.53078 15.02032,3.01783c5.42743,1.66672 10.12335,5.01857 15.89215,5.96636c5.65842,0.92966 11.91051,1.11947 17.42706,3.10865c4.22072,1.52192 7.98806,4.32176 12.12919,6.04937c2.11146,0.88086 4.09684,2.03782 6.14167,3.06391c1.01448,0.50907 2.24846,0.52563 3.21595,1.11916c2.2491,1.37977 4.39869,4.30359 6.27064,6.19327c6.43099,4.25704 12.76164,8.45762 18.95356,12.96284c2.55575,1.85956 5.5367,3.09769 8.03781,5.03012c2.90932,2.24782 5.56435,4.83156 8.73798,6.81377c3.14959,1.96719 6.89357,3.14086 10,5c0.82952,0.49645 1.22836,1.54985 2.0619,2.03952c1.23939,0.72811 7.73708,2.78347 8.85916,3.19191c5.04659,1.83696 9.68779,3.4148 14.73548,4.65245c0.1646,0.99921 0.32245,1.99909 0.46822,3.00019c2.37187,16.28873 4.77138,32.57353 7.16441,48.85921c0.18387,3.62036 -0.95391,7.6523 0.75795,10.84706c0.33945,0.63349 0.70914,1.24594 1.10404,1.84087c0.85823,5.86908 1.70832,11.73937 2.58273,17.60606c0.61856,4.15015 1.9105,8.24751 1.90175,12.44349c-0.01305,6.25683 -1.32406,12.44346 -1.96663,18.66721c-0.48714,4.71839 -0.96114,9.43813 -1.43603,14.15778c-1.08697,0.69997 -2.18723,1.37508 -3.3159,1.99656c-2.60381,1.43374 -5.41659,2.47603 -7.97659,3.98659c-5.47384,3.22989 -11.07347,7.2604 -16.00065,11.27374c-1.0404,0.84744 -1.82889,2.01407 -2.975,2.71194c-4.33961,2.64239 -10.66111,3.61459 -15.4886,5.22375c-11.24978,3.74733 -22.89245,5.69316 -34.60281,7.3892c-16.65754,2.41255 -33.61692,3.271 -50.42149,1.8096c-6.65283,-0.57856 -13.31858,-1.78208 -19.93826,-2.66918c-6.11718,-0.83321 -12.00783,-2.99539 -17.92391,-4.73541c-11.1926,-3.29194 -22.3852,-6.58388 -33.57779,-9.87582c-4.79655,-1.41075 -9.60123,-2.7972 -14.39048,-4.23249c-1.4398,-0.43149 -2.81468,-1.18731 -4.31196,-1.31899c-1.5067,-0.13251 -3.0003,0.38872 -4.50487,0.54355c-4.44645,0.45757 -9.22508,0.30832 -13.61198,1.16588c-2.66855,0.52165 -5.26874,1.37534 -7.95024,1.82571c-5.67807,1.32123 -11.34809,3.1207 -17.07619,4.17962c-6.53191,1.20751 -13.26008,1.48837 -19.76593,2.82172c-1.4919,0.30576 -2.89335,1.03571 -4.40672,1.20587c-6.52037,0.73315 -13.79763,-0.31742 -20.36417,-0.48159c-13.32917,-0.33323 -26.65834,-0.66646 -39.98751,-0.99969c-26.65834,-0.66646 -53.31667,-1.33292 -79.97501,-1.99938c-4.95974,-0.12399 -10.0526,0.04249 -14.99531,-0.37488c-2.24748,-0.18978 -4.90557,0.48798 -6.71108,-0.8638c-1.28179,-0.95967 -0.51651,-3.16054 -0.77476,-4.74081c0.07432,-7.89785 4.67584,-15.38547 7.7829,-22.51368c0.89969,-2.06408 1.79768,-4.12373 2.69044,-6.18185c-1.47342,-0.56791 -1.47342,-2.32528 -1.47342,-2.32528z"/><path d="M52.60989,187.69876c-0.0294,-0.15185 -0.03612,-0.24702 -0.03612,-0.24702c-1.05606,-14.96278 -2.24621,-31.8254 -3.30227,-46.78817c-1.1734,-16.62531 -2.3468,-33.25062 -3.5202,-49.87593c-0.35202,-4.98759 -0.70404,-9.97519 -1.05606,-14.96278c-0.22654,-3.20977 0.01405,-6.48366 -0.65552,-9.63098c-1.87036,-8.79172 -7.86496,-16.1529 -10.3881,-24.68792c-1.92091,-6.57578 -3.0974,-13.20515 -3.89852,-20.00662c-0.8037,-6.82339 -1.67615,-12.65069 1.02818,-19.23499c2.15102,-5.23716 6.56211,-8.48131 10.70131,-11.92197c2.97757,-2.47507 5.51595,-5.71739 8.38256,-8.31608c7.09328,-6.43032 14.779,-12.34362 22.16242,-18.44061c15.1333,-6.78244 30.17186,-13.3871 46.73599,-15.79141c4.27402,-0.62038 8.97024,-0.2372 13.28203,-0.3456c6.67372,-0.16777 13.45722,-0.69592 20.12901,-0.50236c6.49401,0.1884 12.8622,0.82554 19.38134,0.81706c25.02121,-0.03255 49.86082,-3.55543 74.84323,-3.89942c9.99351,-0.1376 20.15225,0.68578 30.13437,1.17864c11.65446,0.57553 23.36818,0.13068 34.99615,0.7723c8.32182,0.45919 16.69907,1.81811 24.98594,2.72214c14.32327,1.56254 28.52632,2.99951 42.68437,5.68549c33.62342,6.37883 68.04963,8.50715 102.15738,11.19987c6.45481,0.50959 13.05187,0.73648 19.58387,1.23851c-0.27625,0.9157 -0.42474,1.88681 -0.42474,2.89259v6.00601h0.03363c-0.01102,0.05366 -0.0218,0.1074 -0.03233,0.16123c-0.12859,0.65733 -0.22726,1.31708 -0.30047,1.97888c-1.04503,6.57997 -2.09006,13.15993 -3.13683,19.73961c-2.09487,13.16774 -4.19659,26.33439 -6.2846,39.50321c-0.75126,4.73812 -1.82525,9.43694 -2.24351,14.21598c-0.59862,6.83989 -0.53761,13.72155 -0.80201,20.58249c-0.75489,19.58866 -1.49284,39.178 -2.23875,58.767c-1.82808,-0.56831 -3.63515,-1.19184 -5.4008,-1.9225c-5.85202,-2.42167 -10.81098,-6.95583 -16.2894,-10.14239c-6.50279,-3.7824 -13.78401,-6.23103 -21.20795,-7.27822c-0.85452,-0.12207 -10.09971,-1.41423 -10.56718,-1.60718c-2.77831,-1.14681 -4.64763,-3.97575 -7.4336,-5.10382c-4.20764,-1.70372 -9.58036,-2.7791 -14.0234,-3.72425c-9.62803,-2.04812 -19.79252,-1.26837 -28.7224,-6.261c-3.75879,-2.10151 -7.75171,-5.93464 -10.93616,-8.79897c-1.92158,-1.72842 -3.29213,-4.15442 -5.54696,-5.41761c-2.60346,-1.45849 -5.51784,-2.28876 -8.18296,-3.63128c-4.24061,-1.03563 -8.61966,-1.79988 -12.81958,-2.941c-3.9486,-1.07284 -7.50943,-3.34009 -11.61918,-3.92269c-6.57407,-0.93194 -14.04448,0.01873 -20.69454,0.01873c-6.97684,0 -13.40233,-1.33155 -20.29485,-2.01292c-7.95343,-0.78625 -16.2476,-0.06681 -24.02569,-2.00772c-4.48434,-0.04565 -8.51179,-1.55446 -12.92581,-1.99153c-4.38731,-0.43443 -10.06721,-0.501 -14.4482,-0.00656c-5.01748,0.56627 -9.62051,1.80821 -14.30861,3.81139c-5.83425,2.49291 -11.24229,6.47774 -17.36073,8.28413c-4.49029,1.3257 -9.4222,1.57101 -13.96602,2.83173c-6.14826,1.70588 -12.11496,4.10429 -17.8054,6.95821c-2.14893,1.10625 -6.32274,3.14237 -8.32616,4.60379c-0.83421,0.60852 -1.34039,1.62217 -2.2242,2.15611c-0.90223,0.54507 -2.08854,0.47052 -3,1c-1.52655,0.88679 -2.34925,2.65365 -3.70399,3.78565c-0.68256,0.57034 -1.64002,0.81522 -2.20594,1.50145c-1.01571,1.23165 -1.49639,2.83261 -2.43389,4.1248c-4.11547,5.67253 -8.90674,10.98517 -12.88173,16.83514c-2.56214,3.77068 -4.14872,7.89573 -7.27358,11.33925c-5.34206,5.88681 -13.19239,8.37138 -19.30723,13.28107c-7.08759,5.06527 -15.27794,9.2281 -21.86997,14.89464c-4.82608,4.14852 -9.25744,8.74498 -14.14162,12.87089c-2.52778,2.13535 -5.32903,3.93554 -7.82909,6.1033c-1.80803,1.56772 -3.23936,3.54405 -5.08233,5.07054c-3.29709,2.7309 -6.77067,3.73625 -9.81721,6.83441c0,0 -1.76777,1.76777 -3.53553,0c-0.84621,-0.84621 -0.88228,-1.69243 -0.68991,-2.34474z"/></g></g></svg>