<svg version="1.1" xmlns="http://www.w3.org/2000/svg" xmlns:xlink="http://www.w3.org/1999/xlink" width="615.92807" height="493.35929" viewBox="0,0,615.92807,493.35929"><g transform="translate(75.46574,38.76566)"><g data-paper-data="{&quot;isPaintingLayer&quot;:true}" fill-rule="nonzero" stroke="none" stroke-width="0.5" stroke-linecap="butt" stroke-linejoin="miter" stroke-miterlimit="10" stroke-dasharray="" stroke-dashoffset="0" style="mix-blend-mode: normal"><path d="M-22.50338,-33.78483c12.07132,0 22.1444,8.5555 24.48634,19.9336c3.18981,-1.4019 6.52935,-2.22973 9.9821,-2.92239c5.05701,-1.01449 9.47542,-4.12648 13.9591,-6.67583c6.84195,-3.89023 11.66257,-8.60978 19.83903,-9.47024c65.90898,-6.93598 137.97462,-8.72918 205.83431,0.32791c25.88359,3.45463 51.02042,9.23019 76.57693,14.24848c3.85861,0.75768 7.53625,2.42551 11.36702,3.22109c30.37489,6.30831 37.36029,4.39914 62.95518,4.33737c0.32758,-0.00079 20.88358,1.05166 28.80066,0.40553c24.35873,-1.98796 48.6949,-4.2436 73.04687,-6.31269c16.01994,-1.36115 31.56236,5.31376 35.48293,22.41331c1.72604,7.52814 -0.4658,16.84548 -1.82761,24.09603c-2.68895,14.31647 -8.38392,27.26931 -22.01489,34.50906c-8.11331,4.30919 -19.5908,4.08681 -26.54389,9.04879c-0.55723,0.39766 0.64543,1.20773 0.98723,1.80087c0.71165,1.23494 1.43897,2.46142 2.19995,3.66658c3.13684,4.96777 6.13502,9.41964 7.5286,15.26254c3.40764,14.28732 0.53141,30.1375 -11.37907,39.04408c1.13653,1.08744 2.17063,2.28106 3.08636,3.56493c1.92989,2.27523 3.38871,4.75611 4.21463,7.45996c0.50477,1.65251 0.36359,3.41576 0.34874,5.1628c0.04605,0.62005 0.06949,1.24639 0.06949,1.87821c0,13.80712 -11.19288,25 -25,25c-5.31682,0 -10.24598,-1.65973 -14.29764,-4.48935c-2.36097,-1.211 -4.82247,-2.4644 -8.18649,-3.50572c-7.7764,-2.40715 -14.44481,-3.96422 -21.90522,-5.94544c-6.05223,-1.60726 -12.01055,-3.32827 -18.00101,-5.17062c-8.9289,-2.74606 -17.55921,-5.80838 -26.31908,-9.04681c-4.78772,-1.76997 -9.95,-2.28516 -14.91206,-3.48227c-5.30044,-1.27875 -11.49682,-4.09948 -15.94843,-5.51677c-1.83257,-0.58345 -4.06368,-0.50964 -5.94187,-1.08479c-5.6676,-1.73558 -10.44294,-5.31932 -16.09086,-7.27346c-6.91084,-2.39109 -15.97445,-4.70299 -22.88531,-8.37352c-2.95734,-1.57071 -5.17229,-4.42806 -8.01365,-5.98744c-16.041,-8.80356 -16.84587,-9.84188 -35.88026,-22.0043c-7.89112,-5.0422 -16.73637,-9.84877 -24.23551,-15.59778c-4.70646,-3.60807 -8.39992,-7.39334 -13.13627,-11.08695c-8.38554,-6.53942 -17.08452,-13.40046 -25.74334,-20.16182c-2.59403,-0.09063 -5.17858,-0.17959 -7.74991,-0.27294c-20.168,-0.73217 -41.75197,1.85528 -60.05075,10.54277c-22.90926,10.87635 -26.6971,10.47764 -52.57491,22.13208c-2.84754,1.28243 -6.37344,5.41162 -9.25995,7.12641c-3.12816,1.85834 -6.85644,2.37099 -9.88959,4.16063c-8.7733,5.17648 -17.60858,10.50536 -26.4128,15.62908c-3.8893,2.26342 -7.35202,5.29588 -11.41166,7.25432c-4.94073,2.3835 -12.87663,4.60505 -17.10427,8.46086c-10.4936,9.57068 -23.13687,17.10747 -36.94549,20.85218c-6.51413,1.76655 -15.11903,4.06571 -21.59755,2.17213c-17.43911,-5.0972 -27.54203,-22.50041 -19.86682,-39.73365c1.45977,-3.27764 5.13727,-6.07687 7.56834,-8.69256c8.86809,-9.54157 15.75149,-13.18304 25.67524,-21.53693l6.75509,-4.62191c-2.93966,-2.14246 -7.03469,-5.04105 -8.99868,-8.34222c-8.16746,-13.72828 2.80181,-31.21568 10.78303,-42.60611c0.99918,-1.42598 2.03152,-2.89939 3.09779,-4.39951c-11.17128,-2.49823 -19.52015,-12.4729 -19.52015,-24.39756c0,-13.80712 11.19288,-25 25,-25z" data-paper-data="{&quot;index&quot;:null}" fill="#8ba936"/><path d="M-23.37844,328.71522c0.56867,-1.13733 1.17157,-2.23515 1.80807,-3.29339c-6.32591,-6.6898 -9.06409,-16.70601 -5.35913,-26.47943c2.56403,-6.76374 6.50081,-7.91981 10.63961,-12.51364c6.52483,-7.24219 10.53783,-12.90087 18.91895,-18.0148c6.41071,-3.91163 13.46607,-5.77215 19.89772,-10.07044c3.88285,-2.59492 7.44761,-6.58937 11.5479,-9.21984c10.89962,-6.99247 21.90074,-13.82639 32.77565,-20.85723c5.55869,-3.5938 11.14198,-7.15987 16.52265,-11.0151c3.19075,-2.28616 5.87819,-5.38879 9.2612,-7.47346c4.41563,-2.721 9.07615,-5.05619 13.34262,-8.00557c9.12316,-6.30676 15.38708,-15.82654 22.70536,-24.01972c5.60131,-6.27095 13.19808,-10.93681 19.91895,-15.85504c2.85313,-2.08788 5.76031,-5.63699 8.72108,-7.16842c4.25539,-2.20106 12.14479,-3.44005 16.87002,-2.64936c2.4026,0.40204 4.53997,1.78768 6.71229,2.89c26.01331,13.20011 63.80381,28.99133 91.59208,48.24544c7.6342,5.28963 13.82393,9.291 22.18034,13.63932c8.54282,4.44531 15.6817,9.83804 25.32627,11.9336c25.03574,5.43973 48.45288,15.76151 72.08461,25.27183c2.3145,0.93145 4.76793,1.08225 7.03791,1.84845c2.23963,0.75596 4.13403,2.60409 6.34133,3.28c14.16832,4.33859 27.76675,10.23358 41.4801,15.88119c5.06128,2.0844 10.80501,4.03383 16.07658,6.63755c3.85684,1.39931 7.27153,3.72074 9.97761,6.69784c2.72319,2.62936 4.86628,5.80551 6.07702,9.7692c0.50477,1.65251 0.36359,3.41576 0.34874,5.1628c0.03768,0.50731 0.06022,1.01883 0.06717,1.53412c1.59024,1.32251 2.97715,2.93286 4.09607,4.89096c5.20833,9.11458 5.20833,19.79167 0,28.90625c-2.10937,3.69141 -6.38635,5.68849 -10.03023,7.87894c-1.88531,1.13331 -0.28543,4.41037 -0.06352,6.59887c0.56108,5.53333 1.82506,10.74529 3.14791,16.0713c1.73614,6.98997 2.35733,14.29647 1.72802,21.48535c-0.31949,3.64968 -1.21318,7.30787 -0.87593,10.95596c0.56544,6.11646 2.22618,11.23282 3.15576,17.1589c0.59321,3.78166 -1.23423,8.5539 -2.18642,12.30315c-0.57975,2.28274 -3.13368,4.61667 -4.5502,6.4626c-8.54745,11.13859 -27.20093,12.7754 -40.17993,11.47889c-6.00703,-0.60006 -12.00443,-1.2946 -18,-2c-4.98133,-0.58606 -10.07824,-2.45127 -14.87076,-3.05774c-15.04031,-1.90328 -15.72241,-1.17652 -23.63184,-1.89202c-10.07031,-0.91098 -20.09926,-2.88634 -30.20972,-2.74634c-11.97538,0.16583 -46.1035,7.25834 -56.64732,9.39621c-3.64778,0.73962 -7.28512,3.20155 -11.14612,3.58765c-46.01909,4.60191 -88.58618,1.61399 -133.03576,-4.3404c-5.49827,-0.73654 -11.02003,-1.36081 -16.55956,-1.65596c-4.90541,-0.26136 -9.65709,1.99372 -14.66341,1.73224c-4.25999,-0.2225 -7.30636,-1.48496 -11.57869,-2.17289c-6.56843,-1.05764 -18.2938,-1.39427 -23.36407,-1.74099c-5.61182,-0.38376 -11.00958,-2.40526 -16.60101,-2.95686c-3.30277,-0.32582 -6.61641,0.90386 -9.93094,1c-6.8322,0.19816 -14.14671,-0.40143 -20.90625,-1.39063c-3.63535,-0.532 -9.39585,-3.63868 -13.02919,-2.31859c-1.27226,0.46225 -7.33829,6.5879 -9.88422,8.0699c-8.41456,4.89816 -17.10258,4.53373 -25.58353,1c-13.41408,-5.5892 -15.22871,-30.06493 -16.41848,-41.85608c-2.22727,-22.07325 -1.87201,-42.81852 5.74918,-63.63794c1.58847,-4.33934 1.00508,-8.98184 3.19749,-13.36666z" data-paper-data="{&quot;index&quot;:null}" fill="#8ba936"/><path d="M147.75,99.21518c0,-10.35534 8.39466,-18.75 18.75,-18.75c10.35534,0 18.75,8.39466 18.75,18.75c0,10.35534 -8.39466,18.75 -18.75,18.75c-10.35534,0 -18.75,-8.39466 -18.75,-18.75z" fill="#8ba936"/><path d="M30.75,140.21518c0,-10.35534 8.39466,-18.75 18.75,-18.75c10.35534,0 18.75,8.39466 18.75,18.75c0,10.35534 -8.39466,18.75 -18.75,18.75c-10.35534,0 -18.75,-8.39466 -18.75,-18.75z" fill="#8ba936"/><path d="M272.75,190.21518c0,-10.35534 8.39466,-18.75 18.75,-18.75c10.35534,0 18.75,8.39466 18.75,18.75c0,10.35534 -8.39466,18.75 -18.75,18.75c-10.35534,0 -18.75,-8.39466 -18.75,-18.75z" fill="#8ba936"/><path d="M392.75,187.21518c0,-10.35534 8.39466,-18.75 18.75,-18.75c10.35534,0 18.75,8.39466 18.75,18.75c0,10.35534 -8.39466,18.75 -18.75,18.75c-10.35534,0 -18.75,-8.39466 -18.75,-18.75z" fill="#8ba936"/></g></g></svg>