<svg version="1.1" xmlns="http://www.w3.org/2000/svg" xmlns:xlink="http://www.w3.org/1999/xlink" width="418.01558" height="269.3065" viewBox="0,0,418.01558,269.3065"><g transform="translate(-49.98442,-34.31361)"><g data-paper-data="{&quot;isPaintingLayer&quot;:true}" fill="#8ba936" fill-rule="nonzero" stroke="none" stroke-width="0.5" stroke-linecap="butt" stroke-linejoin="miter" stroke-miterlimit="10" stroke-dasharray="" stroke-dashoffset="0" style="mix-blend-mode: normal"><path d="M51.38197,101.23607c-2.23607,-1.11803 -1.11803,-3.3541 -1.11803,-3.3541l1.15594,-2.26872c1.69365,-2.50365 3.40649,-5.90102 4.22788,-9.0906c-0.22931,0.00102 -0.48009,-0.02879 -0.75409,-0.09729c-2.42536,-0.60634 -1.81902,-3.0317 -1.81902,-3.0317l1.02506,-4.09263c0.38484,-1.13314 0.76967,-2.26627 1.15451,-3.39941c2.42883,-3.6774 5.37944,-8.05695 8.75959,-10.9119c2.06358,-1.74295 4.92674,-2.21663 7.40287,-3.29597c3.05565,-1.33195 6.11131,-2.6639 9.16696,-3.99585c4.58348,-1.99793 9.16696,-3.99585 13.75044,-5.99378c0.64775,-0.28235 9.24262,-4.0462 9.6557,-4.1515c9.29722,-2.36996 19.39724,4.0341 26.57647,8.82025c0.75534,0.50356 8.55377,5.66163 8.88559,6.06498c1.11981,1.36117 1.33809,3.26138 2.00714,4.89207c5.40141,14.04622 12.51576,28.33582 13.53899,43.56935c0.19146,2.85033 -0.51419,5.69034 -0.7825,8.53447c-0.62615,6.6372 -1.2523,13.27439 -1.87845,19.91159c-0.46961,4.9779 -0.93923,9.9558 -1.40884,14.93369c-0.47382,5.02245 -0.49815,9.32638 -2.71997,13.89475c-0.57874,1.15747 -4.54697,9.24191 -5.16711,9.79475c-1.14654,1.02211 -2.94691,0.87067 -4.43651,1.24531c-6.6071,1.66172 -13.22141,3.23092 -20.01868,3.65764c-11.13501,0.69904 -23.65495,0.68935 -34.15192,-3.92623c-4.43649,-1.95075 -8.8558,-5.73565 -12.92355,-8.38853c-0.92775,-0.60505 -8.62712,-5.5686 -9.04497,-6.10389c-0.35388,-0.45334 -2.45644,-9.02725 -2.54927,-9.39488c-3.65932,-14.5221 -5.74166,-29.99003 -6.61827,-44.91976c-0.16867,-2.87258 -0.29699,-5.75061 -0.30512,-8.62824c-0.44987,0.08893 -0.98682,0.03814 -1.61084,-0.27387z"/><path d="M457.49179,282.83172c-0.02659,0.25679 -0.06444,0.51301 -0.11441,0.7685c-0.36502,1.86643 -1.62921,3.43761 -2.49457,5.13112c-0.87729,1.71687 -1.36454,3.73921 -2.73237,5.098c-0.36687,0.36444 -8.77121,4.52612 -9.58814,4.93459c-0.6489,0.32445 -9.10356,4.57495 -9.49867,4.6717c-1.62598,0.39818 -3.34798,0.02827 -5.022,0.02509c-5.15144,-0.0098 -10.30394,-0.09333 -15.45452,-0.17833c-7.91836,-3.04941 -15.80462,-6.18109 -23.69934,-9.29113c-0.38251,-0.15069 -9.39417,-3.69403 -9.5897,-3.79915c-2.98735,-1.60612 -5.88058,-3.61776 -8.71634,-5.76c-0.6405,2.12512 -1.281,4.25023 -1.9215,6.37535c-0.50545,1.67704 -2.96123,10.44741 -4.09883,11.05684c-1.13761,0.60943 -9.79953,-2.20506 -11.4757,-2.71338c-6.52077,-1.97749 -13.8732,-3.78918 -19.25066,-8.28603c-1.06184,-0.88795 -1.65243,-2.22122 -2.46316,-3.34313c-2.22176,-3.07454 -3.99201,-6.32412 -5.63324,-9.66039c-1.65926,-0.40735 -3.31597,-0.82346 -4.96837,-1.25375c-1.9183,-0.49953 -4.10249,-0.45296 -5.73303,-1.58024c-1.47543,-1.02005 -2.08124,-2.92619 -3.00722,-4.46239c-1.0886,-1.80597 -2.74845,-3.46343 -3.02997,-5.55325c-0.18064,-1.34099 1.13311,-2.46045 1.79118,-3.64275c1.50365,-2.7015 3.21191,-5.28352 4.84011,-7.91228c-1.2995,-5.69173 -2.17077,-11.6098 -3.40248,-17.1525c-1.08097,-4.86438 -3.48449,-10.99259 -2.12157,-16.02866c1.58395,-5.85275 9.57883,-8.03987 14.21309,-10.47973c1.63415,-0.86035 6.61982,-3.94278 7.53797,-4.21206c0.36758,-0.1078 7.92547,-0.08375 8.64167,-0.08375c0,0 2.5,0 2.5,2.5c0,0.17921 -0.01285,0.34557 -0.0367,0.5c1.29579,0 2.59158,0 3.88736,0c0.22756,-0.31147 0.45507,-0.62304 0.68251,-0.93472c1.16007,-1.52509 2.04266,-3.30834 3.48022,-4.57526c0.81599,-0.71914 2.02138,-0.80475 3.04418,-1.17472c2.16574,-0.7834 4.34258,-1.53957 6.52256,-2.28722c1.40787,-0.94408 2.85097,-1.79517 4.3297,-2.52808c1.66498,-0.82522 3.20587,-2.01201 5.01579,-2.43312c1.32701,-0.30875 3.37981,-0.25382 5.39558,-0.08976c1.68032,-0.55612 3.05405,-0.98352 3.28499,-0.97486c1.55073,0.0581 2.92397,0.95341 4.3262,1.69257c0.83928,0.07484 1.66716,0.19949 2.46104,0.47027c1.20343,0.41048 2.13587,1.36566 3.15266,2.14504c1.45882,0.72205 2.90193,1.47667 4.33445,2.24769c7.0429,3.79068 13.74809,7.87352 20.49829,12.16146c0.6041,0.38374 8.63324,5.45881 8.90419,5.74115c1.29131,1.34555 1.91971,3.19798 2.865,4.80558c2.51599,4.27878 4.97478,8.59274 7.45975,12.88962c4.63805,6.61823 10.00321,13.1222 14.06342,20.10504c1.23754,2.12835 2.28118,4.4452 3.2739,6.78401c5.63296,7.32711 11.24647,14.66981 16.8091,22.04922l-0.00932,0.47529l0.17812,-0.053l0.95663,3.21522c0.07815,0.24215 0.12037,0.50044 0.12037,0.76859c0,1.38071 -1.11929,2.5 -2.5,2.5c-0.82831,0 -1.56254,-0.40283 -2.01746,-1.02328l-2.98254,-3.97672l0.35842,-0.26882c-1.14676,-1.1008 -2.26706,-2.23696 -3.36663,-3.39946z"/><path d="M283.70943,35.62829c4.5929,-1.48487 8.99029,-1.12829 13.79057,-1.12829c2.97392,0 6.47128,-0.44014 9.40046,0.03228c1.04064,0.16784 1.9604,0.82579 3,1c1.04349,0.17486 2.15622,-0.25476 3.17393,0.0346c1.53067,0.4352 2.80213,1.53189 4.29298,2.08841c2.35134,0.87773 4.97983,0.98923 7.23101,2.09892c2.00563,0.98865 4.00571,1.98867 6,3c0.95551,0.48455 1.59432,1.56451 2.62608,1.85306c0.59544,0.16652 1.22349,0.09846 1.85353,0.01473c-0.05092,-0.19886 -0.07799,-0.40727 -0.07799,-0.622c0,-1.38071 1.11929,-2.5 2.5,-2.5c1.38071,0 2.5,1.11929 2.5,2.5c0,0.60668 -0.2161,1.16289 -0.57552,1.59585c0.05386,0.03075 0.10762,0.06175 0.1613,0.09295c3.02942,-0.09425 5.94291,0.02596 9.09164,0.9809c1.17874,0.35748 9.74625,2.95013 10.41048,3.39936c1.02517,0.69335 1.31072,2.10064 1.91962,3.17811c2.45737,4.34841 4.73386,8.81439 7.09713,13.21479c1.57714,2.93662 3.20191,5.84815 4.73142,8.80986c0.90625,1.75484 2.42026,3.33909 2.64675,5.30109c0.22649,1.96201 -0.88674,3.84954 -1.36934,5.7647c-1.69305,6.71889 -3.58217,13.40332 -5.53422,20.05039c-3.52267,2.89497 -7.50245,6.96479 -11.55879,9.01787c-0.24474,0.12387 -9.52072,2.79484 -10.04597,2.94025c-1.84444,0.51062 -3.6336,1.52001 -5.54703,1.48148c-1.91343,-0.03853 -3.6605,-1.11914 -5.48289,-1.70361c-6.34685,-2.03551 -12.65444,-4.20464 -18.97973,-6.30632c-15.81644,-5.25527 -31.63289,-10.51054 -47.44933,-15.76581c-1.74815,-0.60209 -3.65971,-0.85383 -5.24446,-1.80626c-1.58475,-0.95243 -2.71066,-2.51531 -4.05619,-3.78341c-6.7041,-6.31834 -12.14567,-12.2156 -14.64737,-21.28306c-2.02636,-7.34457 -2.03433,-16.17672 5.24769,-20.88156c2.67449,-1.72796 7.43267,-2.36365 10.48192,-2.94673c3.83363,-0.73308 7.80733,-1.77385 11.7322,-2.415c3.31761,-3.301 6.0951,-5.7469 10.68009,-7.30755z"/><path d="M184.01503,233.49358c1.98525,-2.63923 5.16637,-3.62574 8.43822,-6.02179c5.11903,-3.74878 9.66702,-10.50276 16.92928,-8.77301c1.92063,0.45746 3.80458,1.19186 5.49369,2.21412c3.91735,2.37082 4.48012,7.70248 5.09755,11.72599c1.06958,6.96995 0.2255,12.7091 -1.10853,19.5507c-0.11333,0.58122 -1.93252,9.98567 -2.05235,10.27984c-0.68948,1.69256 -1.98021,3.07234 -2.97031,4.60852c-0.23112,0.35192 -5.55842,8.47753 -5.70053,8.63588c-4.01535,4.47419 -8.95237,5.3621 -14.44177,7.02258c-1.86852,0.5652 -3.67476,1.70953 -5.62523,1.62912c-0.53974,-0.02225 -10.3254,-4.01999 -10.76829,-4.3977c-0.39063,-0.33314 -5.25212,-8.35682 -5.72547,-9.13139c-0.74719,-1.22267 -5.57477,-8.9316 -5.58121,-9.85767c-0.00619,-0.89092 4.90507,-8.43375 5.57773,-9.49359c3.583,-5.6454 7.13316,-11.30821 10.84206,-16.87194c0,0 0.59701,-0.89551 1.59516,-1.11967z"/></g></g></svg>