<svg version="1.1" xmlns="http://www.w3.org/2000/svg" xmlns:xlink="http://www.w3.org/1999/xlink" width="540.92921" height="533.54441" viewBox="0,0,540.92921,533.54441"><g transform="translate(34.25001,148.57029)"><g data-paper-data="{&quot;isPaintingLayer&quot;:true}" fill-rule="nonzero" stroke="none" stroke-width="0.5" stroke-linecap="butt" stroke-linejoin="miter" stroke-miterlimit="10" stroke-dasharray="" stroke-dashoffset="0" style="mix-blend-mode: normal"><path d="M74.73426,55.9209c1.2287,1.29131 2.16435,3.3145 1.16794,6.30372c-2.05548,6.16644 -8.22192,4.11096 -8.22192,4.11096c-1.64549,-0.55424 -3.32514,-1.01586 -4.93647,-1.66273c-1.75843,-0.70592 -3.14075,-2.38386 -5.01196,-2.6821c-1.33426,-0.21266 -2.72308,0.33211 -4.0523,0.08995c-2.80041,-0.51019 -5.1948,-2.41632 -7.95972,-3.09295c-0.74702,-0.18281 -1.54528,0.25213 -2.3038,0.12518c-2.29646,-0.38435 -4.52941,-1.08215 -6.7883,-1.64687c-1.74525,-0.43631 -3.44264,-1.10311 -5.22372,-1.35613c-1.71782,-0.24403 -3.50175,0.21217 -5.20371,-0.12518c-1.53803,-0.30486 -2.95496,-1.50704 -4.51261,-1.32762h-3.003c-3.58985,0 -6.5,-2.91015 -6.5,-6.5c0,-1.79493 0.72754,-3.41993 1.90381,-4.59619v0l2.62004,-2.62004c1.0111,-1.95433 2.20213,-3.76355 3.68045,-5.16418c1.77689,-1.68352 4.52396,-1.96836 6.50711,-3.40317c2.04726,-1.4812 3.36902,-4.66599 4.7799,-6.35536c1.96182,-2.34906 4.73997,-3.88013 7.23211,-5.65665c2.77928,-1.98121 4.17256,-5.40661 6.39767,-7.99475c1.24936,-1.45319 2.59153,-2.85181 4.11284,-4.01727c0.62353,-0.47768 1.65201,-0.26921 2.20743,-0.82462c0.55541,-0.55541 0.33654,-1.592 0.82462,-2.20743c2.85141,-3.59535 4.45644,-4.82867 8.37219,-6.51766c1.92883,-0.83197 3.81776,-2.37629 5.90989,-2.18772c11.88491,1.07119 10.39876,12.48664 12.45731,20.72082c0,6.28659 2.79295,12.46296 1.37632,18.8041c-0.24401,1.09223 -1.23007,1.91726 -1.5015,3.003c-0.24278,0.97111 0.26221,2.03695 0,3.003c-0.42383,1.56149 -1.32107,2.95432 -2.01384,4.4165c-0.74565,1.57377 -2.04761,2.90834 -2.49066,4.59251c-0.38297,1.45579 0.17388,3.00729 0.17388,4.51261z" fill="#ff0000"/><path d="M71.33338,-6.68836c5.81378,-4.75634 8.72067,4.75634 8.72067,4.75634l2.01384,7.2264c0,1.63787 -0.24278,3.32464 0,4.9136c0.27143,1.77652 1.2575,3.12647 1.5015,4.9136c0.43649,3.19693 -0.50933,6.65926 0,9.82721c0.56945,3.54188 2.51719,6.25213 3.003,9.82721c0.37659,2.7713 -0.12399,5.70491 0.12518,8.51446c0.54622,6.15889 1.51525,12.27395 1.5502,18.49709c0,10.96792 0.72193,22.78597 -0.08393,33.64204c-0.19083,2.5708 -1.16258,4.84078 -1.5015,7.3704c-0.70648,5.27301 0.08393,12.51017 0.08393,17.95079c0,8.76051 -1.01096,19.25228 -0.08393,27.778c0.27723,2.54966 1.25487,4.81234 1.5015,7.3704c0.38995,4.04465 -0.53588,8.28432 0,12.28401c0.33892,2.52962 1.21289,4.82413 1.5015,7.3704c0.47135,4.15851 -0.30549,8.49562 0.03523,12.68815c0.497,6.11551 1.36641,8.21931 2.87782,13.59675c0.10253,4.33834 -0.37482,8.74946 0.08995,13.02393c0.05984,0.55038 0.15232,1.08738 0.26304,1.61687c-0.12649,1.01916 -0.19164,2.05734 -0.19164,3.11074c0,0.63464 0.02365,1.26375 0.07011,1.88651c-0.15675,2.14232 0.29709,4.10003 1.17074,5.91355c0.18174,0.55392 0.38231,1.09931 0.60096,1.63541c0.2354,6.60796 0.14759,14.71053 -0.50166,19.4657c-0.24401,1.78714 -1.22582,3.13884 -1.5015,4.9136c-0.20957,1.3492 0.25686,2.80864 0.08995,4.17368c-0.3105,2.53937 -1.23896,4.81658 -1.5015,7.3704c-0.27411,2.66643 0.23404,5.45891 -0.08995,8.11032c-0.21942,1.79565 -1.18563,3.15686 -1.5015,4.9136c-0.80095,4.45455 0.57321,11.00038 0.14225,15.80207c-0.71896,8.0104 -3.24608,15.73633 -2.97137,23.52002c0,0 0,10.63549 -6.5,10.63549c-6.5,0 -6.5,-10.63549 -6.5,-10.63549c0.05796,-3.27131 -0.20461,-6.60038 0.17388,-9.81394c0.25166,-2.13675 1.30172,-3.83522 1.67944,-5.92167c0.58252,-3.2177 0.90322,-6.55549 1.18131,-9.8804c0.50574,-6.04688 -0.68052,-12.56706 0.14225,-18.59315c0.24401,-1.78714 1.28194,-3.118 1.5015,-4.9136c0.26506,-2.16775 -0.30986,-4.44926 -0.08995,-6.63049c0.25761,-2.55516 1.1912,-4.83097 1.5015,-7.3704c0.22588,-1.84856 -0.18571,-3.82313 0.08995,-5.65352c0.26777,-1.778 1.18563,-3.15686 1.5015,-4.9136c0.42486,-2.36291 -0.17388,-4.92062 -0.17388,-7.38367c0,-3.52709 0.46151,-7.10783 0.08393,-10.58039c-0.27723,-2.54966 -1.25487,-4.81234 -1.5015,-7.3704c-0.45586,-4.72824 -0.19568,-7.48658 0.08995,-11.54409c-1.6778,-4.83849 -2.62631,-10.38276 -3.12818,-15.88487c-0.35725,-3.91662 0.55349,-8.01173 0.03523,-11.87987c-0.33892,-2.52962 -1.21289,-4.82413 -1.5015,-7.3704c-0.45633,-4.02602 0.43834,-8.25264 0,-12.28401c-0.27723,-2.54966 -1.25487,-4.81234 -1.5015,-7.3704c-0.95061,-9.85997 -0.08393,-21.14426 -0.08393,-31.18523c0,-6.74067 -0.66541,-14.74686 0.08393,-21.35803c0.28861,-2.54628 1.29868,-4.80206 1.5015,-7.3704c0.76404,-9.67514 -0.08393,-20.43768 -0.08393,-30.2348c0.04298,-5.35783 -0.99787,-10.5918 -1.4528,-15.89813c-0.1763,-2.05644 0.32587,-4.1759 0.12518,-6.22635c-0.35395,-3.6163 -2.46944,-6.2704 -3.003,-9.82721c-0.47724,-3.1813 0.56505,-6.68465 0,-9.82721c-0.31587,-1.75674 -1.23007,-3.13709 -1.5015,-4.9136c-0.24278,-1.58897 0,-3.27574 0,-4.9136l-0.98916,-2.6008c0,0 -2.90689,-9.51267 2.90689,-14.26901z" fill="#80ff00"/><path d="M292.48149,326.84829c-4.54229,-3.4342 -6.8991,-8.00298 -10.31283,-12.31283c-3.02133,-3.81444 -6.40827,-7.12403 -9.01235,-11.32946c-2.56961,-4.14976 -4.68022,-8.64858 -7.43098,-12.71852c-2.51083,-3.71495 -7.21563,-8.91652 -9.7561,-13.5122c-3.36119,-6.08035 -6.33781,-12.3857 -10.03469,-18.26799c-1.10878,-1.76424 -2.14814,-3.60785 -3.42009,-5.25541c-0.70376,-0.49178 -1.34465,-1.02865 -1.95221,-1.60409c-0.1603,-0.13704 -0.31826,-0.27674 -0.47381,-0.41902c-0.59575,-0.09489 -1.24877,-0.10069 -1.72368,-0.4325c-5.80238,-4.05394 -8.72012,-6.77769 -9.27601,-13.72941c-3.72045,-5.53895 -7.2154,-11.25969 -11.19607,-16.59088c-2.89052,-3.87118 -7.29829,-7.13758 -7.68189,-12.38017c-1.344,-18.36799 13.62497,-28.87268 31.1027,-29.45579c7.90928,-0.26388 10.13912,-5.08021 17.72867,-0.02051c3.5023,2.33487 6.30819,5.72644 7.98271,9.53064c4.75908,2.66013 9.89251,5.08433 10.32591,5.32725c4.85495,2.72126 10.53722,3.41581 15.53451,5.76726c16.0542,7.5542 32.81136,12.77148 48.01537,22.16957c8.02892,4.96293 25.41707,18.14148 28.45129,20.30892c2.31447,1.65331 10.56779,6.79154 14.69117,10.35525c10.02171,8.66147 18.8866,18.16783 29.50594,26.04906c8.71081,6.4648 19.61651,17.88222 29.95339,23.39196c11.65115,6.21028 23.60836,10.61362 34.61999,18.04495c11.86966,8.01038 23.23561,12.49796 27.11133,26.40009c0.40552,1.45461 1.40979,2.78474 1.44241,4.29446c0.1067,4.93812 -2.60363,8.92226 -5.78866,12.07162c-11.76955,11.63775 -19.45428,7.37256 -35.31488,9.32351c-34.81098,4.28197 -68.99852,11.41374 -104.03256,13.08223c-9.40824,0.44807 -17.65673,-3.21763 -26.89668,-3.97113c-4.92068,-0.40128 -14.80422,0.74633 -21.70534,-0.17585c-12.54578,-1.67646 -24.99695,-4.89336 -37.65424,-4.90121c-3.73655,-0.00231 -7.79503,0.24805 -11.9581,0.62659c-3.42903,2.819 -7.78199,4.43635 -12.48474,3.94986c-2.34806,-0.2429 -4.64396,-0.85034 -6.89002,-1.72075c-4.60928,0.55372 -8.90245,1.01874 -12.5374,1.19909c-14.24681,0.70684 -28.49461,2.60987 -42.74606,2.00378c-14.86255,-0.63209 -29.71528,-1.51509 -44.58395,-1.98151c-6.19147,-0.19422 -12.38928,0.05576 -18.58354,0c-8.52879,-0.07678 -28.59097,-5.34594 -28.67718,-5.36411c-0.28959,-0.06103 -0.59006,-0.13182 -0.89948,-0.21162c-2.51806,2.21478 -5.14103,4.01979 -7.6643,4.82265c-3.53085,1.12345 -7.32027,0.23053 -10.77575,0.75307c-1.4924,0.22568 -2.40949,1.90641 -3.83093,2.41406c-3.24086,1.15745 -10.13111,0.9662 -13.30278,-0.36924c-2.4548,-1.0336 -4.73021,-4.11254 -7.24761,-5.15585c-2.30229,-0.95417 -4.94136,-0.81279 -7.29846,-1.62216c-7.95017,-2.72988 -18.16966,-13.76455 -21.47591,-19.75387c-6.78913,-12.29864 -4.56554,-26.80953 -6.5776,-40.30588c-0.33274,-2.23194 -2.05015,-4.17933 -2.10158,-6.43535c-0.0636,-2.79036 0.38002,-5.56925 0.5837,-8.3529c0.20028,-2.73718 2.69092,-4.81598 3.5943,-7.40754c2.3385,-6.70857 2.18698,-10.93865 5.90307,-17.14654c7.19311,-12.0164 23.60507,-21.29993 34.48567,-27.61419c4.7262,-2.74272 9.09464,-6.15845 13.89958,-8.77107c4.31286,-2.34506 10.93225,-4.7777 17.2607,-5.31358c1.05497,-1.4371 2.30982,-2.71832 3.7236,-3.80268c0.01268,-0.01397 0.02537,-0.02793 0.03807,-0.0419c4.00872,8.45586 12.62278,14.30356 22.60265,14.30356c0.56035,0 1.1164,-0.01844 1.66757,-0.05473c1.31587,-0.08666 2.60392,-0.27513 3.85637,-0.5576c1.06774,-0.11165 2.10711,-0.33321 3.11976,-0.64973c0.54115,0.30827 1.09494,0.59691 1.66038,0.86496c10.10492,7.83803 22.05692,13.18424 33.87367,18.39243c0.19809,0.33659 0.39913,0.67145 0.60297,1.00467c0.20717,0.12691 0.41169,0.25774 0.61344,0.39237c8.40925,4.54115 16.62083,12.97975 21.86408,18.34939c6.20294,6.35247 13.91649,13.76848 20,21c1.40335,1.66817 0.97735,2.41239 2.5,3.5c5.14961,3.67829 10.80512,6.9064 15.88854,10.68026c2.74556,2.03826 4.74192,5.50118 7.34624,7.48537c6.91562,5.26891 14.85068,10.39868 22.14998,15.09544c5.77301,3.71467 11.85803,6.49506 15.57443,12.68907c0.6177,1.0295 1.10295,2.09603 1.46515,3.18481c15.4623,-0.00782 27.70852,-12.08793 26.8315,-26.46818c-1.93413,-1.04516 -3.5066,-2.07133 -4.27233,-2.65026z" fill="#8ba936"/><path d="M-22.75825,70.95693c2.36054,-2.77503 6.94877,-6.12561 7.56729,-10.11785c0.13627,-0.87955 -1.47201,-1.00133 -2.19406,-1.52175c-1.58371,-1.14147 -3.77442,-2.66947 -4.9353,-4.2623c-3.3272,-4.56522 -4.10349,-12.32008 -3.92969,-17.83984c0.26555,-8.4332 5.63066,-26.70167 13.26843,-31.72235c2.51422,-1.65272 6.95094,-0.55021 8.45706,-3.1549c2.23715,-3.86893 3.31842,-8.48054 6.22692,-11.87378c4.4322,-5.1709 11.98307,-7.45215 18.10583,-9.69497c11.26949,-4.1281 22.93773,-9.64119 34.27237,-2.8404c2.03271,1.21962 4.09263,5.0811 5.38656,6.87634c1.08376,1.50363 2.86963,3.49484 3.26293,5.43822c2.00895,9.92655 -2.71872,15.40628 -8.97184,22.2301c-2.60123,2.83863 -6.38174,4.90809 -7.86142,8.46263c-1.58562,3.80905 -1.77875,7.89447 -3.62633,11.66437c-5.07609,10.35752 -10.69118,20.21717 -16.1053,30.32784c-6.32544,11.81253 -11.28678,23.00203 -20.68449,32.82269c-1.67622,1.75166 -1.91384,5.76765 -3.25837,7.94578c-1.65497,2.68105 -5.19837,5.41482 -9.3237,7.28681c-1.17122,0.58777 -2.41254,1.05644 -3.70806,1.39012c-5.55942,1.6533 -11.44935,1.46802 -14.94836,-2.46069c-5.11398,-3.34855 -8.49223,-9.12866 -8.49223,-15.6978c0,-3.54199 0.98213,-6.8546 2.68892,-9.68034c2.35069,-5.08194 5.83868,-10.09329 8.80282,-13.57791z" fill="#8ba936"/><path d="M163.677,-20.07801c2.35098,-2.35673 5.06051,-3.76492 7.94896,-4.51827c1.84769,-0.609 3.82238,-0.93853 5.87404,-0.93853c1.38456,0 2.73407,0.15007 4.03315,0.43484c2.03696,0.21892 4.06598,0.58488 6.0343,1.01166c3.00339,0.65121 6.00643,1.30501 9,2c0.94906,0.22034 4.38603,1.58136 4.67163,1.4523c0.66076,-0.29859 -1.13238,-0.92346 -1.58459,-1.49027c-1.37221,-1.71995 -2.86616,-3.3569 -4.05551,-5.20801c-1.20125,-1.86966 -2.06201,-6.15897 -2.27514,-8.20675c-0.05426,-0.5213 0.79791,-3.90901 0.67585,-4.02866c-8.03062,-7.87199 -17.08436,-15.8503 -25.2974,-23.53177c-7.00959,-6.5559 -20.55046,-15.47775 -22.5327,-26.66171c-0.17176,-0.96909 -1.18524,-4.51591 -0.61919,-5.97074c0.6344,-1.63049 1.72914,-3.04586 2.47545,-4.62826c0.6647,-1.40937 1.38011,-4.1279 2.8204,-5.27321c2.35769,-1.87483 4.7824,-3.68178 7.3477,-5.26069c1.32944,-0.81825 5.00064,-0.45857 5.98482,-0.46374c11.38158,-0.05972 22.79955,11.75986 30.44371,17.48021c0.38791,0.29028 0.76863,0.59087 1.13585,0.90692c23.59222,20.30496 46.8995,40.9424 70.65997,61.05022c0.95884,0.81144 3.70326,0.37502 4.9474,0.48072c1.76291,0.14977 3.56703,0.96525 5.28144,0.52814c0.72446,-0.18471 0.46247,-1.43197 0.82599,-2.08528c0.48559,-0.8727 -6.92931,-9.15203 -7.61442,-10.07289c-3.741,-5.02827 -5.30779,-11.15513 -3.70608,-17.29502c0.71716,-2.74912 7.38478,-10.54418 9.98956,-11.6787c2.19593,-0.95645 4.58882,-1.40459 6.93943,-1.86449c0.26793,-0.05242 3.10818,0.71547 3.2251,0.5992c0.84189,-0.83722 3.48485,-6.77818 4.03292,-7.76413c0.87513,-1.5743 2.95821,-2.05814 4.48396,-3.01542c0.96898,-0.60796 3.64477,-1.09456 2.8477,-1.91505c-9.38861,-9.66444 -28.64294,-21.68806 -38.24735,-35.68841c-0.74926,-1.09219 -0.93189,-3.44912 -1.15931,-4.55398c-1.5273,-7.42002 1.49841,-13.59557 7.40805,-18.07982c1.55366,-1.17892 3.83688,-3.81854 6.16556,-4.0597c5.37953,-0.55711 10.80107,0.05931 15.39014,3.22511c43.53588,30.03347 89.0419,57.49076 130.10122,90.83013c24.44891,19.85204 48.9122,39.68652 73.36548,59.5333c-0.09599,4.67218 -0.20253,9.34475 -0.19509,14.01395c0.02123,13.31967 1.88804,28.8539 1.93241,40.22372c0.04197,10.75356 -3.33621,22.01508 -4.72242,32.5428c-2.60955,19.81847 -4.99632,39.69178 -8.72451,59.33058c-3.79975,20.01574 -0.60096,36.4497 -2.48548,56.12621c-1.60571,16.76547 -4.12578,29.36235 -5.94195,42.53385c-2.08719,-1.6324 -4.44877,-3.50858 -7.71334,-6.06718c-18.19492,-14.26021 -37.12658,-27.55886 -54.62468,-42.52084c-5.02877,-4.29992 -10.06583,-8.59185 -15,-13c-2.05167,-1.83295 -4.05629,-5.46837 -6.11038,-6.71309c-15.70166,-9.51469 -21.16919,-7.42918 -39.63789,-20.29228c-16.88574,-11.7606 -33.04007,-23.97006 -48.17412,-37.92774c-4.6139,-4.25527 -8.17613,-9.92165 -12.56509,-14.48699c-5.60041,-5.82548 -11.32441,-11.53372 -17.14216,-17.14216c-2.79334,-2.69284 -8.69268,-7.24081 -11.89076,-11.09553c-4.994,-6.01937 -9.50209,-12.43304 -14.53691,-18.41832c-8.69229,-10.3332 -12.87261,-13.62244 -23.92099,-24.83482c-7.3868,-7.49645 -9.50385,-12.60965 -19.15824,-17.94237c-7.11948,-3.93254 -14.78296,-5.54529 -22.38363,-7.56692c-0.06654,0.0007 -0.13317,0.00104 -0.19988,0.00104c-8.00485,0 -14.83809,-5.01627 -17.52773,-12.07684c-0.78976,-2.07321 -1.22227,-4.32268 -1.22227,-6.67316c0,-3.46581 0.94034,-6.71199 2.5798,-9.49733c0.54542,-1.41741 1.27246,-2.7185 2.3472,-3.79587z" fill="#8ba936"/><path d="" fill="#8ba936"/><path d="" fill="#8ba936"/></g></g></svg>